<svg width="66" height="66" viewBox="0 0 66 66" xmlns="http://www.w3.org/2000/svg" xmlns:xlink="http://www.w3.org/1999/xlink"><title>0C7461D2-36CE-4131-B43B-C5E0A4F616E3</title><defs><circle id="b" cx="29" cy="29" r="29"/><filter x="-50%" y="-50%" width="200%" height="200%" filterUnits="objectBoundingBox" id="a"><feOffset dy="2" in="SourceAlpha" result="shadowOffsetOuter1"/><feGaussianBlur stdDeviation="2" in="shadowOffsetOuter1" result="shadowBlurOuter1"/><feColorMatrix values="0 0 0 0 0 0 0 0 0 0 0 0 0 0 0 0 0 0 0.5 0" in="shadowBlurOuter1"/></filter></defs><g fill="none" fill-rule="evenodd"><g transform="translate(4 2)"><use fill="#000" filter="url(#a)" xlink:href="#b"/><use fill="#67C15E" xlink:href="#b"/></g><path d="M33.495 12C23.295 12 15 20.298 15 30.5c0 4.046 1.305 7.798 3.523 10.843l-2.305 6.874 7.11-2.273A18.353 18.353 0 0 0 33.505 49C43.705 49 52 40.701 52 30.5S43.704 12 33.505 12h-.01zm-5.165 9.397c-.359-.859-.63-.892-1.174-.914-.185-.01-.391-.021-.62-.021-.707 0-1.446.206-1.892.663-.544.555-1.892 1.849-1.892 4.503s1.936 5.22 2.196 5.58c.272.358 3.773 5.883 9.21 8.135 4.251 1.761 5.512 1.598 6.48 1.392 1.413-.305 3.186-1.35 3.632-2.61.446-1.263.446-2.34.315-2.568-.13-.228-.49-.358-1.033-.63-.544-.272-3.186-1.577-3.686-1.752-.49-.184-.957-.119-1.326.403-.522.729-1.033 1.469-1.447 1.914-.326.348-.859.392-1.304.207-.598-.25-2.273-.838-4.339-2.676-1.598-1.424-2.685-3.197-3-3.73-.316-.543-.033-.86.217-1.153.272-.337.533-.576.804-.892.272-.315.424-.478.598-.848.186-.359.055-.729-.076-1-.13-.273-1.217-2.926-1.663-4.003z" fill="#FFF"/></g></svg>