<svg width="23" height="34" viewBox="0 0 23 34" xmlns="http://www.w3.org/2000/svg"><title>FD4EDC61-467C-47B0-A628-908AE5DABDCE</title><g stroke="#4D2B24" fill="none" fill-rule="evenodd" stroke-linecap="round" stroke-linejoin="round"><path d="M22.281 30.458c0 1.566-1.288 2.834-2.875 2.834H3.594c-1.587 0-2.875-1.268-2.875-2.834V3.542C.719 1.978 2.007.708 3.594.708h15.812c1.587 0 2.875 1.27 2.875 2.834v26.916zm0-24.083H.72m21.561 21.25H.72M7.906 3.542h7.188"/><path d="M12.219 30.458a.714.714 0 0 1-.719.709.714.714 0 0 1-.719-.709c0-.39.322-.708.719-.708.397 0 .719.317.719.708z"/></g></svg>