<?xml version="1.0" standalone="no"?>
<!DOCTYPE svg PUBLIC "-//W3C//DTD SVG 1.1//EN" "http://www.w3.org/Graphics/SVG/1.1/DTD/svg11.dtd" >
<svg>
<metadata>
Created by FontForge 20120731 at Mon Nov 17 05:01:08 2014
 By Orthosie Webhosting
Copyright (c) 2007 Monotype Imaging Inc. Soho is designed by Sebastian Lester. All rights reserved.
</metadata>
<defs>
<font id="SohoStdCondensed" horiz-adv-x="329" >
  <font-face 
    font-family="SohoStdCondensed"
    font-weight="400"
    font-stretch="condensed"
    units-per-em="1000"
    panose-1="2 4 5 6 3 5 6 2 2 4"
    ascent="767"
    descent="-233"
    x-height="550"
    cap-height="743"
    bbox="-60 -227 1160 994"
    underline-thickness="56"
    underline-position="-23"
    unicode-range="U+000D-FB16"
  />
<missing-glyph horiz-adv-x="161" 
 />
    <glyph glyph-name="f_f" unicode="ff" horiz-adv-x="558" 
d="M534 478h-109v-402l42 -5v-71h-167v71l42 5v402h-165v-402l42 -5v-71h-167v71l42 5v402l-77 10v62h77v76q0 76 23.5 113.5t90.5 37.5q43 0 82 -14v-58q-40 4 -66 4q-31 0 -39 -16.5t-8 -66.5v-76h165v76q0 76 23.5 113.5t90.5 37.5q43 0 82 -14v-58q-40 4 -65 4
q-32 0 -40 -16t-8 -67v-76h109v-72z" />
    <glyph glyph-name="f_i" unicode="fi" horiz-adv-x="489" 
d="M467 0h-167v71l42 5v402h-165v-402l42 -5v-71h-167v71l42 5v402l-76 10v62h76v76q0 77 23.5 114t90.5 37q44 0 83 -14v-58q-44 4 -66 4q-31 0 -39.5 -16t-8.5 -67v-76h248v-474l42 -5v-71zM427 653h-86v114h86v-114z" />
    <glyph glyph-name="f_l" unicode="fl" horiz-adv-x="503" 
d="M478 0h-167v71l42 5v629q-96 4 -107 4q-42 0 -55.5 -14.5t-13.5 -68.5v-76h109v-72h-109v-402l42 -5v-71h-167v71l42 5v402l-77 10v62h77v76q0 85 30.5 118t102.5 33q23 0 126 -10h83v-691l42 -5v-71z" />
    <glyph glyph-name="f_f_i" unicode="ffi" horiz-adv-x="740" 
d="M712 0h-166v71l42 5v402h-163v-402l42 -5v-71h-167v71l42 5v402h-165v-402l42 -5v-71h-167v71l42 5v402l-77 10v62h77v76q0 77 23.5 114t90.5 37q43 0 82 -14v-58q-40 4 -66 4q-31 0 -39 -16t-8 -67v-76h165v76q0 77 23.5 114t90.5 37q43 0 82 -14v-58q-40 4 -65 4
q-32 0 -40 -16t-8 -67v-76h246v-474l41 -5v-71zM672 653h-85v114h85v-114z" />
    <glyph glyph-name="f_f_l" unicode="ffl" horiz-adv-x="749" 
d="M724 0h-167v71l42 5v629q-100 4 -106 4q-42 0 -55.5 -15t-13.5 -68v-76h110v-72h-110v-402l42 -5v-71h-167v71l42 5v402h-164v-402l42 -5v-71h-167v71l42 5v402l-77 10v62h77v76q0 76 23.5 113.5t90.5 37.5q43 0 82 -14v-58q-40 4 -66 4q-31 0 -39 -16t-8 -67v-76h164v76
q0 85 31 118t102 33q22 0 125 -10h83v-691l42 -5v-71z" />
    <glyph glyph-name="f_b" unicode="fb" horiz-adv-x="721" 
d="M423 767v-239q51 33 114 33q81 0 116 -51t35 -155v-137q0 -121 -44.5 -174.5t-152.5 -53.5q-58 0 -149 10v704q-47 5 -104 5q-36 0 -48.5 -15t-12.5 -68v-76h109v-72h-109v-402l42 -5v-71h-167v71l42 5v402l-77 10v62h77v76q0 82 30 116.5t97 34.5q57 0 121 -10h81z
M605 218v138q0 72 -18 101t-67 29q-56 0 -95 -25v-392q40 -4 70 -4q61 0 85.5 31.5t24.5 121.5z" />
    <glyph glyph-name="f_f_b" unicode="ffb" horiz-adv-x="972" 
d="M939 218q0 -121 -44.5 -174.5t-152.5 -53.5q-58 0 -149 10v704q-52 5 -104 5q-36 0 -48.5 -15t-12.5 -68v-76h109v-72h-109v-402l42 -5v-71h-167v71l42 5v402h-168v-402l42 -5v-71h-167v71l42 5v402l-77 9v63h77v76q0 76 23 113.5t91 37.5q39 0 83 -14v-58q-32 4 -65 4
q-32 0 -40.5 -16t-8.5 -67v-76h168v76q0 82 30 116.5t97 34.5q57 0 121 -10h81v-239q51 33 114 33q81 0 116 -51t35 -155v-137zM856 218v138q0 72 -18 101t-67 29q-56 0 -95 -25v-393q39 -3 70 -3q61 0 85.5 31.5t24.5 121.5z" />
    <glyph glyph-name="f_h" unicode="fh" horiz-adv-x="755" 
d="M729 0h-125v370q0 68 -14 92t-54 24q-58 0 -111 -35v-375l42 -5v-71h-167v71l42 5v629q-52 4 -96 4q-42 0 -55.5 -15t-13.5 -68v-76h109v-72h-109v-402l42 -5v-71h-167v71l42 5v402l-77 10v62h77v76q0 84 32 117.5t104 33.5q44 0 112 -10h83v-245q57 38 129 38
q73 0 103 -48t30 -137v-299l42 -5v-71z" />
    <glyph glyph-name="f_f_h" unicode="ffh" horiz-adv-x="1003" 
d="M977 0h-125v370q0 68 -14 92t-54 24q-58 0 -111 -35v-375l42 -5v-71h-167v71l42 5v629q-50 4 -96 4q-42 0 -55.5 -15t-13.5 -68v-76h109v-72h-109v-402l42 -5v-71h-167v71l42 5v402h-165v-402l42 -5v-71h-167v71l42 5v402l-77 10v62h77v76q0 76 23 113.5t91 37.5
q43 0 82 -14v-58q-40 4 -66 4q-31 0 -39 -16t-8 -67v-76h165v76q0 84 32.5 117.5t103.5 33.5q44 0 112 -10h83v-245q57 38 129 38q73 0 103 -48t30 -137v-299l42 -5v-71z" />
    <glyph glyph-name="f_j" unicode="fj" horiz-adv-x="479" 
d="M424 -83q0 -67 -23.5 -99.5t-81.5 -32.5q-37 0 -64 8v62q11 -1 44 -1q26 0 34 12.5t8 50.5v561h-164v-402l42 -5v-71h-167v71l42 5v402l-77 10v62h77v76q0 76 23.5 113.5t90.5 37.5q43 0 82 -14v-58q-40 4 -66 4q-31 0 -39 -16t-8 -67v-76h247v-633zM424 653h-85v114h85
v-114z" />
    <glyph glyph-name="f_f_j" unicode="ffj" horiz-adv-x="730" 
d="M673 -83q0 -67 -23.5 -99.5t-81.5 -32.5q-37 0 -64 8v62q11 -1 44 -1q26 0 34 12.5t8 50.5v561h-164v-402l42 -5v-71h-167v71l42 5v402h-166v-402l42 -5v-71h-167v71l42 5v402l-77 10v62h77v76q0 76 23.5 113.5t90.5 37.5q43 0 82 -14v-58q-40 4 -65 4q-31 0 -39.5 -16.5
t-8.5 -66.5v-76h166v76q0 76 23.5 113.5t90.5 37.5q43 0 82 -14v-58q-40 4 -66 4q-31 0 -39 -16t-8 -67v-76h247v-633zM673 653h-85v114h85v-114z" />
    <glyph glyph-name="f_k" unicode="fk" horiz-adv-x="707" 
d="M682 0h-106l-151 268v-268h-125v71l42 5v629q-52 4 -96 4q-42 0 -55.5 -15t-13.5 -68v-76h109v-72h-109v-402l42 -5v-71h-167v71l42 5v402l-77 10v62h77v76q0 84 32 117.5t104 33.5q44 0 112 -10h83v-466l150 249h107v-71l-58 -5l-116 -188l121 -210l53 -5v-71z" />
    <glyph glyph-name="f_f_k" unicode="ffk" horiz-adv-x="954" 
d="M929 0h-106l-152 268v-268h-124v71l42 5v629q-52 4 -96 4q-42 0 -55.5 -15t-13.5 -68v-76h110v-72h-110v-402l42 -5v-71h-167v71l42 5v402h-164v-402l42 -5v-71h-167v71l42 5v402l-77 10v62h77v76q0 76 23.5 113.5t90.5 37.5q43 0 82 -14v-58q-40 4 -66 4q-31 0 -39 -16
t-8 -67v-76h164v76q0 84 32.5 117.5t103.5 33.5q45 0 112 -10h82v-466l151 249h107v-71l-59 -5l-115 -188l121 -210l53 -5v-71z" />
    <glyph glyph-name=".notdef" horiz-adv-x="161" 
 />
    <glyph glyph-name=".null" horiz-adv-x="0" 
 />
    <glyph glyph-name=".null" horiz-adv-x="0" 
 />
    <glyph glyph-name="nonmarkingreturn" horiz-adv-x="333" 
 />
    <glyph glyph-name="CR" unicode="&#xd;" horiz-adv-x="161" 
 />
    <glyph glyph-name="space" unicode=" " horiz-adv-x="161" 
 />
    <glyph glyph-name="exclam" unicode="!" horiz-adv-x="196" 
d="M140 0h-83v131h83v-131zM142 767l-7 -572h-74l-7 572h88z" />
    <glyph glyph-name="quotedbl" unicode="&#x22;" horiz-adv-x="308" 
d="M278 760l-28 -231h-62l6 231h84zM121 760h-85l-6 -231h63z" />
    <glyph glyph-name="numbersign" unicode="#" horiz-adv-x="544" 
d="M492 196h-111l-15 -196h-73l16 196h-113l-16 -196h-72l15 196h-71v72h78l15 194h-93v71h99l18 210h72l-17 -210h113l17 210h72l-17 -210h83v-71h-89l-15 -194h104v-72zM331 462h-113l-16 -194h113z" />
    <glyph glyph-name="dollar" unicode="$" horiz-adv-x="455" 
d="M411 186q0 -162 -146 -190v-115h-81v110q-88 4 -132 20v128h64l11 -71q6 0 33 -1t47 -1q63 0 90.5 29.5t27.5 90.5q0 46 -17.5 76.5t-61.5 60.5l-88 59q-62 42 -88 86t-26 111q0 145 140 167v108h81v-102q68 -3 128 -20v-123h-64l-11 64q-44 4 -74 4q-61 0 -87.5 -23
t-26.5 -75q0 -42 17 -70.5t61 -58.5l88 -59q61 -40 88 -89t27 -116z" />
    <glyph glyph-name="percent" unicode="%" horiz-adv-x="856" 
d="M817 182q0 -191 -144 -191q-146 0 -146 191v82q0 189 146 189q144 0 144 -189v-82zM743 182v82q0 69 -17.5 96t-53.5 27q-35 0 -52 -27t-17 -96v-82q0 -69 17 -96.5t52 -27.5q36 0 53.5 27.5t17.5 96.5zM642 743l-352 -743h-78l352 743h78zM328 480q0 -91 -32 -140.5
t-112 -49.5t-112.5 50.5t-32.5 139.5v82q0 90 32.5 140t112.5 50t112 -49.5t32 -140.5v-82zM254 480v82q0 69 -16 96.5t-54 27.5t-54 -28t-16 -96v-82q0 -69 16 -96.5t54 -27.5t54 27.5t16 96.5z" />
    <glyph glyph-name="ampersand" unicode="&#x26;" horiz-adv-x="551" 
d="M425 0l-36 49q-61 -59 -153 -59q-79 0 -138.5 45.5t-59.5 140.5v9q0 122 101 201q-42 57 -60.5 101.5t-18.5 99.5v4q0 80 45 121t124 41q88 0 158 -21v-123h-65l-11 66q-25 2 -76 2q-44 0 -67 -19t-23 -67v-4q0 -41 13 -71t48 -79l184 -249q22 67 22 168l-43 6v63h161
v-63l-43 -6q0 -139 -48 -236l77 -103v-17h-91zM236 63q66 0 109 45l-161 218q-62 -52 -62 -141v-9q0 -53 33.5 -83t80.5 -30z" />
    <glyph glyph-name="quotesingle" unicode="'" horiz-adv-x="151" 
d="M121 760l-28 -231h-63l6 231h85z" />
    <glyph glyph-name="parenleft" unicode="(" horiz-adv-x="264" 
d="M245 -202h-79q-121 208 -121 469v7q0 263 121 469h79q-115 -208 -115 -469v-7q0 -259 115 -469z" />
    <glyph glyph-name="parenright" unicode=")" horiz-adv-x="264" 
d="M219 267q0 -260 -120 -469h-80q116 211 116 469v7q0 259 -116 469h80q120 -207 120 -469v-7z" />
    <glyph glyph-name="asterisk" unicode="*" horiz-adv-x="469" 
d="M429 596l-59 -19q-45 -16 -85 -21q24 -23 56 -65l38 -50l-64 -46l-37 51q-25 32 -45 73q-15 -29 -45 -73l-36 -50l-64 45l38 51q30 41 56 66q-34 4 -84 20l-59 19l23 74l60 -19q44 -13 80 -33q-6 35 -6 85v63h78v-63q0 -39 -8 -87q37 19 80 34l59 19z" />
    <glyph glyph-name="plus" unicode="+" horiz-adv-x="513" 
d="M461 357h-169v-171h-69v171h-172v68h172v171h69v-171h169v-68z" />
    <glyph glyph-name="comma" unicode="," horiz-adv-x="201" 
d="M171 135l-87 -227h-74l64 227h97z" />
    <glyph glyph-name="hyphen" unicode="-" horiz-adv-x="274" 
d="M237 257h-200v72h200v-72z" />
    <glyph glyph-name="period" unicode="." horiz-adv-x="179" 
d="M131 0h-83v135h83v-135z" />
    <glyph glyph-name="slash" unicode="/" horiz-adv-x="306" 
d="M309 743l-232 -743h-80l232 743h80z" />
    <glyph glyph-name="zero" unicode="0" horiz-adv-x="479" 
d="M440 266q0 -136 -47 -206t-153 -70q-107 0 -154 70t-47 206v210q0 136 47 206.5t154 70.5q106 0 153 -70.5t47 -206.5v-210zM355 266v210q0 108 -28 155t-88 47t-87.5 -47t-27.5 -155v-210q0 -108 27.5 -155.5t87.5 -47.5t88 47t28 156z" />
    <glyph glyph-name="one" unicode="1" horiz-adv-x="438" 
d="M400 0h-363v71l140 6v579l-140 -50v76l160 64h64v-669l139 -6v-71z" />
    <glyph glyph-name="two" unicode="2" horiz-adv-x="443" 
d="M396 0h-357v96q0 76 19.5 129.5t51.5 89t98 88.5q71 57 91 89.5t20 81.5q0 61 -28.5 83t-101.5 22q-9 0 -21 -0.5t-27.5 -1.5t-24.5 -1l-10 -67h-64v122q66 22 157 22q105 0 155 -43t50 -136q0 -61 -29 -110.5t-114 -119.5q-88 -72 -114 -117t-26 -131v-19h200l10 62h65
v-139z" />
    <glyph glyph-name="three" unicode="3" horiz-adv-x="449" 
d="M406 193q0 -113 -52.5 -158t-158.5 -45q-80 0 -153 23v125h64l11 -72q34 -3 74 -3q71 0 100.5 25.5t29.5 105.5v32q0 63 -19 93t-76 30h-156v71h156q57 0 76 29.5t19 91.5v18q0 72 -28 96t-102 24q-39 0 -73 -3l-10 -67h-64v122q15 5 61.5 13.5t89.5 8.5
q108 0 159.5 -42.5t51.5 -151.5v-18q0 -111 -73 -156q73 -44 73 -159v-33z" />
    <glyph glyph-name="four" unicode="4" horiz-adv-x="478" 
d="M452 198h-83v-122l42 -5v-71h-170v71l42 5v122h-258v91l247 454h97v-470h83v-75zM284 273v330l-181 -330h181z" />
    <glyph glyph-name="five" unicode="5" horiz-adv-x="442" 
d="M406 197q0 -114 -53.5 -160.5t-162.5 -46.5q-65 0 -154 21v127h64l11 -72q36 -3 75 -3q75 0 105 27.5t30 106.5v41q0 78 -27.5 107.5t-113.5 29.5h-131l24 368h314v-134h-65l-10 57h-166l-14 -218h54q125 0 172.5 -52.5t47.5 -157.5v-41z" />
    <glyph glyph-name="six" unicode="6" horiz-adv-x="476" 
d="M437 212q0 -69 -19 -116t-51 -68.5t-61.5 -29.5t-63.5 -8t-59.5 4.5t-54 19.5t-47 41.5t-30.5 74t-12 113.5v250q0 131 47 195.5t173 64.5q83 0 152 -22v-122h-64l-10 67q-35 3 -74 3t-65 -8.5t-40.5 -22t-22 -39.5t-9.5 -50.5t-2 -65.5v-49q60 17 124 17
q90 0 139.5 -41.5t49.5 -144.5v-63zM352 212v56q0 72 -24.5 98t-87.5 26q-56 0 -116 -16v-136q0 -94 28 -135.5t90 -41.5q54 0 82 39t28 110z" />
    <glyph glyph-name="seven" unicode="7" horiz-adv-x="426" 
d="M397 650l-236 -650h-91l250 666h-218l-10 -57h-64v134h369v-93z" />
    <glyph glyph-name="eight" unicode="8" horiz-adv-x="489" 
d="M448 211q0 -59 -12 -101.5t-30 -65.5t-47 -35.5t-53.5 -15.5t-59.5 -3h-3q-35 0 -59.5 3t-54 15.5t-47 35.5t-30 65.5t-12.5 101.5v10q0 65 16.5 103t53.5 64q-68 47 -68 154v13q0 198 201 198h3q201 0 201 -198v-13q0 -107 -68 -154q36 -27 52.5 -64.5t16.5 -102.5v-10z
M364 211v10q0 70 -19 100t-65 30h-71q-47 0 -66 -30t-19 -100v-10q0 -89 28.5 -118t90.5 -29h3q62 0 90 29t28 118zM363 542v13q0 72 -28.5 98t-88.5 26h-3q-61 0 -89.5 -26t-28.5 -98v-13q0 -119 84 -119h71q83 0 83 119z" />
    <glyph glyph-name="nine" unicode="9" horiz-adv-x="476" 
d="M437 250q0 -131 -47 -195.5t-173 -64.5q-84 0 -153 22v124h64l10 -69q34 -3 75 -3q39 0 65 8.5t40.5 22t22 39.5t9.5 50.5t2 65.5v49q-62 -17 -124 -17q-90 0 -139.5 41.5t-49.5 144.5v63q0 56 13 97.5t33 64.5t47.5 37.5t51 18.5t50.5 4q34 0 59.5 -4.5t54 -19.5
t47 -41.5t30.5 -74t12 -113.5v-250zM352 367v136q0 94 -28 135.5t-90 41.5q-54 0 -82 -39t-28 -110v-56q0 -72 24.5 -98t87.5 -26q56 0 116 16z" />
    <glyph glyph-name="colon" unicode=":" horiz-adv-x="187" 
d="M135 0h-83v135h83v-135zM135 550v-136h-83v136h83z" />
    <glyph glyph-name="semicolon" unicode=";" horiz-adv-x="199" 
d="M155 135l-88 -227h-73l64 227h97zM144 414h-83v136h83v-136z" />
    <glyph glyph-name="less" unicode="&#x3c;" horiz-adv-x="513" 
d="M416 140h-101l-219 251l219 250h101l-218 -250z" />
    <glyph glyph-name="equal" unicode="=" horiz-adv-x="513" 
d="M430 245h-347v71h347v-71zM430 467h-347v71h347v-71z" />
    <glyph glyph-name="greater" unicode="&#x3e;" horiz-adv-x="513" 
d="M416 391l-218 -251h-102l218 251l-218 250h102z" />
    <glyph glyph-name="question" unicode="?" horiz-adv-x="377" 
d="M187 0h-83v135h83v-135zM184 244v-49h-78v49q0 59 13 98.5t53 92.5q43 58 58.5 95.5t15.5 78.5v11q0 47 -22 64t-72 17q-29 0 -42 -1l-11 -59h-64v115q71 21 131 21q168 0 168 -157v-11q0 -84 -71 -180q-52 -70 -65.5 -102.5t-13.5 -82.5z" />
    <glyph glyph-name="at" unicode="@" horiz-adv-x="628" 
d="M593 367q0 -145 -65 -228.5t-207 -83.5q-84 0 -119.5 36t-35.5 103q0 5 3 83q7 121 44 165t107 44q59 0 127 -22l-24 -326q109 44 109 229q0 120 -45 177.5t-144 57.5q-108 0 -165 -69t-75 -244q-9 -92 -9 -136q0 -208 195 -208q28 0 60.5 2t52.5 4l21 2v-46
q-3 -1 -21.5 -4t-51.5 -6.5t-61 -3.5q-72 0 -123.5 21.5t-79 59.5t-39.5 82t-12 98q0 64 8 140q19 195 91 278.5t209 83.5q250 0 250 -289zM364 416q-18 3 -42 3q-35 0 -52.5 -27t-23.5 -118q-3 -47 -3 -80q0 -42 16.5 -59t59.5 -17h24z" />
    <glyph glyph-name="A" unicode="A" horiz-adv-x="556" 
d="M185 0h-166v71l40 5l139 591l-43 5v71h182l157 -667l43 -5v-71h-167v71l37 4l-38 170h-183l-38 -170l37 -4v-71zM350 326l-47 207q-13 59 -22 135h-6q-16 -110 -22 -135l-48 -207h145z" />
    <glyph glyph-name="B" unicode="B" horiz-adv-x="495" 
d="M460 207q0 -63 -17.5 -105.5t-51.5 -64t-73 -29.5t-93 -8h-195v71l42 6v589l-42 5v72h196q55 0 94 -7.5t71.5 -27t49 -57.5t16.5 -95v-13q0 -53 -21 -96t-61 -63q85 -41 85 -164v-13zM375 207v13q0 63 -25.5 96t-91.5 33h-101v-272h68q78 0 114 26t36 104zM373 543v13
q0 70 -34.5 90t-112.5 20h-69v-243h101q65 0 90 30t25 90z" />
    <glyph glyph-name="C" unicode="C" horiz-adv-x="434" 
d="M400 8q-76 -18 -132 -18q-53 0 -90.5 10.5t-72 39.5t-52.5 89.5t-18 151.5v182q0 91 18 151t52.5 89t72 39.5t90.5 10.5q34 0 75 -6t57 -13v-125h-65l-10 62q-38 2 -57 2q-52 0 -82 -15t-48 -62t-18 -133v-182q0 -87 18 -134t48 -62.5t82 -15.5q38 0 57 2l10 65h65v-128z
" />
    <glyph glyph-name="D" unicode="D" horiz-adv-x="522" 
d="M484 283q0 -63 -11 -110.5t-38 -88.5t-78.5 -62.5t-126.5 -21.5h-200v71l42 6v589l-42 6v71h200q74 0 125.5 -21.5t78.5 -61.5t38.5 -88t11.5 -110v-179zM397 283v179q0 111 -38 157.5t-133 46.5h-69v-589h69q95 0 133 47.5t38 158.5z" />
    <glyph glyph-name="E" unicode="E" horiz-adv-x="446" 
d="M413 0h-383v71l42 5v591l-42 5v71h383v-134h-65l-10 57h-181v-240h241v-80h-241v-269h181l10 59h65v-136z" />
    <glyph glyph-name="F" unicode="F" horiz-adv-x="438" 
d="M398 346h-241v-270l42 -5v-71h-169v71l42 5v591l-42 5v71h383v-134h-65l-10 57h-181v-240h241v-80z" />
    <glyph glyph-name="G" unicode="G" horiz-adv-x="466" 
d="M428 11q-74 -21 -165 -21q-51 0 -89.5 12t-71.5 42t-50 88t-17 143v193q0 71 13 123.5t34 82.5t52 48.5t61.5 24.5t68.5 6q36 0 76 -5t60 -9t28 -7v-123h-65l-10 61q-66 3 -76 3q-32 0 -52.5 -3t-42.5 -14.5t-34 -33.5t-20 -60.5t-8 -93.5v-193q0 -66 9.5 -108t31.5 -63
t48 -28t67 -7q36 0 68 3v236l-79 6v71h163v-374z" />
    <glyph glyph-name="H" unicode="H" horiz-adv-x="575" 
d="M376 743h169v-71l-42 -5v-591l42 -5v-71h-169v71l42 5v277h-261v-277l42 -5v-71h-169v71l42 5v591l-42 5v71h169v-71l-42 -5v-235h261v235l-42 5v71z" />
    <glyph glyph-name="I" unicode="I" horiz-adv-x="231" 
d="M200 0h-169v71l42 5v591l-42 5v71h169v-71l-42 -5v-591l42 -5v-71z" />
    <glyph glyph-name="J" unicode="J" horiz-adv-x="224" 
d="M193 672l-42 -5v-749q0 -69 -27.5 -99t-91.5 -30q-44 0 -69 10v63h60q28 0 35.5 11t7.5 45v749l-42 5v71h169v-71z" />
    <glyph glyph-name="K" unicode="K" horiz-adv-x="501" 
d="M199 0h-169v71l42 5v591l-42 5v71h169v-71l-42 -5v-272l219 348h101v-71l-47 -5l-184 -290l185 -302l46 -4v-71h-107l-213 355v-279l42 -5v-71z" />
    <glyph glyph-name="L" unicode="L" horiz-adv-x="423" 
d="M399 0h-369v71l42 5v591l-42 5v71h169v-71l-42 -5v-590h167l10 60h65v-137z" />
    <glyph glyph-name="M" unicode="M" horiz-adv-x="642" 
d="M197 0h-167v71l42 5v591l-42 5v71h157l101 -283q4 -11 31 -100h2q23 74 31 99l103 284h157v-71l-42 -5v-591l42 -5v-71h-168v71l42 5v406q0 43 7 167h-2q-5 -15 -13 -42t-15 -49t-14 -41l-76 -209h-106l-75 209q-1 4 -41 132h-2q6 -79 6 -167v-406l42 -5v-71z" />
    <glyph glyph-name="N" unicode="N" horiz-adv-x="567" 
d="M373 743h164v-71l-42 -5v-667h-116l-193 541q-31 84 -40 113h-2q8 -80 8 -147v-431l42 -5v-71h-164v71l42 5v591l-42 5v71h162l188 -518q5 -13 19.5 -52.5t21.5 -61.5h2q-8 80 -8 152v404l-42 5v71z" />
    <glyph glyph-name="O" unicode="O" horiz-adv-x="510" 
d="M475 292q0 -302 -220 -302t-220 302v158q0 303 220 303t220 -303v-158zM389 292v158q0 116 -32.5 170.5t-101.5 54.5q-70 0 -102.5 -54.5t-32.5 -170.5v-158q0 -115 32.5 -169.5t102.5 -54.5q69 0 101.5 54.5t32.5 169.5z" />
    <glyph glyph-name="P" unicode="P" horiz-adv-x="484" 
d="M204 0h-174v70l42 5v593l-42 5v71h186q116 0 177 -45.5t61 -168.5v-17q0 -65 -17 -109t-50.5 -67.5t-74.5 -33t-96 -9.5h-59v-218l47 -5v-71zM368 513v17q0 82 -34 109t-118 27h-59v-295h59q83 0 117.5 29.5t34.5 112.5z" />
    <glyph glyph-name="Q" unicode="Q" horiz-adv-x="510" 
d="M475 292q0 -270 -178 -299v-78q0 -26 8.5 -32.5t41.5 -6.5h62v-61q-1 0 -11 -2t-20.5 -4t-27 -3.5t-31.5 -1.5q-53 0 -79.5 23.5t-26.5 87.5v78q-178 29 -178 299v158q0 303 220 303t220 -303v-158zM389 292v158q0 116 -32.5 170.5t-101.5 54.5q-70 0 -102.5 -54.5
t-32.5 -170.5v-158q0 -115 32.5 -169.5t102.5 -54.5q69 0 101.5 54.5t32.5 169.5z" />
    <glyph glyph-name="R" unicode="R" horiz-adv-x="519" 
d="M199 0h-169v71l42 5v591l-42 5v71h181q117 0 180 -46.5t63 -167.5v-10q0 -154 -107 -205l105 -239l48 -4v-71h-111l-129 294q-13 -1 -44 -1h-59v-217l42 -5v-71zM368 519v10q0 82 -35.5 109.5t-121.5 27.5h-54v-296h58q85 0 119 33t34 116z" />
    <glyph glyph-name="S" unicode="S" horiz-adv-x="432" 
d="M400 186q0 -96 -50.5 -146t-148.5 -50q-93 0 -160 20v128h64l10 -70q29 -2 77 -2q66 0 94 27t28 93q0 46 -17.5 76.5t-61.5 60.5l-88 59q-61 40 -88 85.5t-27 111.5q0 174 193 174q87 0 157 -21v-123h-65l-11 66q-46 2 -73 2q-60 0 -87 -23t-27 -75q0 -44 17 -72.5
t61 -58.5l88 -59q61 -41 88 -88.5t27 -114.5z" />
    <glyph glyph-name="T" unicode="T" horiz-adv-x="469" 
d="M445 609h-64l-10 57h-94v-592l42 -5v-69h-169v69l42 5v592h-94l-10 -57h-64v134h421v-134z" />
    <glyph glyph-name="U" unicode="U" horiz-adv-x="559" 
d="M360 743h169v-71l-42 -5v-392q0 -135 -47.5 -210t-160.5 -75q-112 0 -159.5 75t-47.5 210v392l-42 5v71h169v-71l-42 -5v-374q0 -126 24.5 -175.5t97.5 -49.5t98 50t25 175v374l-42 5v71z" />
    <glyph glyph-name="V" unicode="V" horiz-adv-x="554" 
d="M368 743h167v-71l-41 -5l-158 -667h-119l-158 667l-40 5v71h166v-71l-38 -5l105 -458q7 -28 15.5 -81.5t8.5 -54.5h2q17 110 23 136l105 458l-38 5v71z" />
    <glyph glyph-name="W" unicode="W" horiz-adv-x="718" 
d="M534 743h165v-71l-41 -5l-86 -667h-128l-68 366q-7 37 -16 106h-2q-8 -55 -17 -106l-66 -366h-129l-87 667l-40 5v71h167v-71l-40 -5l51 -445q3 -22 5.5 -47t5 -55.5t4.5 -47.5h4q18 134 21 148l61 314h123l62 -317q4 -21 20 -145h4q1 26 15 150l50 445l-38 5v71z" />
    <glyph glyph-name="X" unicode="X" horiz-adv-x="516" 
d="M320 743h172v-71l-43 -5l-143 -293l147 -298l44 -5v-71h-178v71l39 4l-104 210l-101 -210l39 -4v-71h-173v71l42 5l147 302l-143 289l-43 5v71h175v-71l-38 -5l101 -201l97 201l-37 5v71z" />
    <glyph glyph-name="Y" unicode="Y" horiz-adv-x="481" 
d="M298 743h164v-71l-39 -5l-141 -371v-219l42 -5v-72h-168v72l42 5v218l-142 372l-37 5v71h164v-71l-38 -5l59 -163q7 -19 20 -60t16 -50h2q4 10 16.5 51.5t18.5 58.5l59 163l-38 5v71z" />
    <glyph glyph-name="Z" unicode="Z" horiz-adv-x="456" 
d="M426 0h-396v97l298 569h-213l-10 -57h-64v134h375v-96l-299 -570h234l11 62h64v-139z" />
    <glyph glyph-name="bracketleft" unicode="[" horiz-adv-x="285" 
d="M256 -203h-189v946h189v-72h-106v-802h106v-72z" />
    <glyph glyph-name="backslash" unicode="\" horiz-adv-x="321" 
d="M317 0h-81l-232 743h81z" />
    <glyph glyph-name="bracketright" unicode="]" horiz-adv-x="285" 
d="M218 -203h-189v72h106v803h-106v71h189v-946z" />
    <glyph glyph-name="asciicircum" unicode="^" horiz-adv-x="513" 
d="M447 400h-87l-104 303l-104 -303h-86l119 345h142z" />
    <glyph glyph-name="underscore" unicode="_" horiz-adv-x="401" 
d="M407 -107h-413v56h413v-56z" />
    <glyph glyph-name="grave" unicode="`" 
d="M215 607h-80l-111 153h95z" />
    <glyph glyph-name="a" unicode="a" horiz-adv-x="432" 
d="M406 0h-118v31q-54 -41 -127 -41q-66 0 -96.5 36.5t-30.5 110.5v28q0 91 47.5 127.5t147.5 36.5h52v52q0 67 -17.5 86.5t-78.5 19.5q-35 0 -54 -2l-10 -52h-62v106q49 21 138 21q99 0 133 -40t34 -139v-305l42 -5v-71zM281 89v177h-52q-65 0 -88.5 -20.5t-23.5 -80.5v-38
q0 -41 14.5 -55.5t47.5 -14.5q55 0 102 32z" />
    <glyph glyph-name="b" unicode="b" horiz-adv-x="423" 
d="M390 218q0 -121 -44.5 -174.5t-152.5 -53.5q-58 0 -149 10v691l-42 5v71h124v-239q51 33 113 33q82 0 116.5 -50.5t34.5 -155.5v-137zM307 218v138q0 73 -17.5 101.5t-66.5 28.5q-55 0 -96 -25v-393q60 -3 71 -3q61 0 85 31.5t24 121.5z" />
    <glyph glyph-name="c" unicode="c" horiz-adv-x="361" 
d="M331 9q-44 -19 -122 -19q-94 0 -133.5 57t-39.5 167v123q0 110 39.5 166.5t133.5 56.5q76 0 122 -19v-108h-63l-10 52q-11 1 -36 1q-56 0 -79.5 -30t-23.5 -119v-123q0 -89 23.5 -119.5t79.5 -30.5q36 0 109 9v-64z" />
    <glyph glyph-name="d" unicode="d" horiz-adv-x="450" 
d="M424 0h-122v25q-52 -35 -116 -35q-78 0 -114 51t-36 155v139q0 125 45 175t133 50q42 0 85 -9v140l-55 5v71h138v-691l42 -5v-71zM299 90v388q-45 9 -81 9q-53 0 -76 -30t-23 -122v-139q0 -71 19 -101.5t67 -30.5t94 26z" />
    <glyph glyph-name="e" unicode="e" horiz-adv-x="426" 
d="M396 245h-279v-15q0 -99 22 -133t98 -34q74 0 144 14v-68q-61 -19 -149 -19q-111 0 -155 54.5t-44 194.5v61q0 131 43 195.5t138 64.5q98 0 140 -65t42 -200v-50zM312 313v14q0 80 -19 119t-78 39t-78.5 -39.5t-19.5 -118.5v-14h195z" />
    <glyph glyph-name="f" unicode="f" horiz-adv-x="308" 
d="M286 478h-109v-402l42 -5v-71h-167v71l42 5v402l-77 9v63h77v76q0 76 23.5 113.5t90.5 37.5q39 0 83 -14v-58q-32 4 -65 4q-32 0 -40.5 -16t-8.5 -67v-76h109v-72z" />
    <glyph glyph-name="g" unicode="g" horiz-adv-x="437" 
d="M405 -42q0 -175 -188 -175q-185 0 -185 175q0 70 42 122q-39 27 -39 76q0 53 41 85q-37 46 -37 133q0 89 39.5 137.5t141.5 48.5h188v-63l-45 -6q29 -46 29 -117q0 -184 -176 -184q-56 0 -91 15q-20 -18 -20 -40q0 -19 10.5 -26.5t36.5 -7.5h64q94 0 141.5 -34.5
t47.5 -138.5zM322 -40q-1 61 -21.5 81t-84.5 20h-76q-26 -33 -26 -101q0 -56 20.5 -81t82.5 -25q60 0 82.5 25t22.5 81zM310 374q0 59 -19.5 87t-74.5 28q-57 0 -76 -28t-19 -87q0 -56 19.5 -84.5t75.5 -28.5q55 0 74.5 28.5t19.5 84.5z" />
    <glyph glyph-name="h" unicode="h" horiz-adv-x="481" 
d="M455 0h-125v370q0 68 -14 92t-54 24q-58 0 -111 -35v-375l42 -5v-71h-167v71l42 5v615l-42 5v71h125v-245q55 38 129 38q73 0 103 -48t30 -137v-299l42 -5v-71z" />
    <glyph glyph-name="i" unicode="i" horiz-adv-x="219" 
d="M193 0h-167v71l42 5v397l-42 5v72h125v-474l42 -5v-71zM153 653h-86v114h86v-114z" />
    <glyph glyph-name="j" unicode="j" horiz-adv-x="206" 
d="M151 -84q0 -72 -23.5 -102t-87.5 -30q-38 0 -58 6v63q11 -1 44 -1q26 0 34 12.5t8 51.5v557l-43 5v72h126v-634zM151 653h-86v114h86v-114z" />
    <glyph glyph-name="k" unicode="k" horiz-adv-x="434" 
d="M408 0h-109l-148 268v-268h-125v71l42 5v615l-42 5v71h125v-466l148 249h109v-71l-58 -5l-114 -188l120 -210l52 -5v-71z" />
    <glyph glyph-name="l" unicode="l" horiz-adv-x="219" 
d="M193 0h-167v71l42 5v615l-42 5v71h125v-691l42 -5v-71z" />
    <glyph glyph-name="m" unicode="m" horiz-adv-x="681" 
d="M655 0h-126v391q0 24 -0.5 35t-3 26t-8 21t-15.5 10.5t-26 4.5q-40 0 -96 -37q3 -20 3 -60v-391h-85v391q0 24 -0.5 35t-3 26t-7.5 21t-14.5 10.5t-24.5 4.5q-41 0 -97 -39v-373l42 -5v-71h-167v71l42 5v398l-42 5v71h123v-36q57 46 122 46t93 -48q64 48 125 48
q35 0 59.5 -11.5t37 -26t18.5 -41.5t7 -43.5t1 -46.5v-315l43 -5v-71z" />
    <glyph glyph-name="n" unicode="n" horiz-adv-x="481" 
d="M455 0h-125v376q0 66 -12 89t-49 23q-46 0 -118 -39v-373l42 -5v-71h-167v71l42 5v398l-42 5v71h123v-36q75 46 135 46q77 0 103 -43t26 -141v-300l42 -5v-71z" />
    <glyph glyph-name="o" unicode="o" horiz-adv-x="433" 
d="M398 216q0 -226 -182 -226q-181 0 -181 226v118q0 226 181 226q182 0 182 -226v-118zM315 216v118q0 82 -23.5 116.5t-75.5 34.5t-75 -34t-23 -117v-118q0 -83 23 -117t75 -34t75.5 34.5t23.5 116.5z" />
    <glyph glyph-name="p" unicode="p" horiz-adv-x="448" 
d="M193 -206h-167v71l42 4v605l-42 5v71h122v-31q52 41 119 41q76 0 111.5 -51t35.5 -156v-137q0 -123 -47 -174.5t-135 -51.5q-41 0 -81 10v-131l42 -4v-71zM331 216v137q0 73 -18.5 102.5t-63.5 29.5q-43 0 -98 -31v-381q43 -9 81 -9q51 0 75 31t24 121z" />
    <glyph glyph-name="q" unicode="q" horiz-adv-x="425" 
d="M419 -206h-166v71l42 4v156q-56 -35 -122 -35q-77 0 -109.5 50t-32.5 156v139q0 125 42 175t155 50q75 0 149 -10v-681l42 -5v-70zM294 92v391q-38 2 -68 2q-66 0 -89 -28t-23 -122v-139q0 -73 16 -102t62 -29q48 0 102 27z" />
    <glyph glyph-name="r" unicode="r" horiz-adv-x="320" 
d="M301 484q-38 0 -82 -9.5t-68 -26.5v-372l42 -5v-71h-167v71l42 5v398l-42 5v71h122v-39q56 49 153 49v-76z" />
    <glyph glyph-name="s" unicode="s" horiz-adv-x="365" 
d="M335 136q0 -146 -166 -146q-40 0 -80 7t-55 14v117h63l10 -63q40 -2 57 -2q51 0 69.5 17t18.5 55q0 36 -16 57.5t-69 55.5l-27 17q-60 38 -85 76t-25 88q0 131 160 131q83 0 133 -20v-107h-63l-10 52q-36 2 -53 2q-45 0 -64.5 -12.5t-19.5 -44.5q0 -31 14.5 -53.5
t57.5 -48.5l29 -18q73 -45 97 -80.5t24 -93.5z" />
    <glyph glyph-name="t" unicode="t" horiz-adv-x="320" 
d="M293 2q-39 -12 -83 -12q-57 0 -81 26t-24 92v370l-80 9v63h80v133h83v-133h105v-72h-105v-363q0 -37 6.5 -46.5t34.5 -9.5q13 0 37 2t27 2v-61z" />
    <glyph glyph-name="u" unicode="u" horiz-adv-x="481" 
d="M455 0h-125v37q-78 -47 -137 -47q-39 0 -65 14t-38.5 41.5t-17 57t-4.5 71.5v300l-42 5v71h125v-376q0 -67 12 -89.5t51 -22.5q45 0 116 40v372l-42 5v71h125v-474l42 -5v-71z" />
    <glyph glyph-name="v" unicode="v" horiz-adv-x="463" 
d="M279 550h162v-71l-41 -5l-112 -474h-115l-113 474l-40 5v71h163v-68l-38 -4l56 -265q17 -81 29 -153h2q26 139 29 153l56 265l-38 4v68z" />
    <glyph glyph-name="w" unicode="w" horiz-adv-x="695" 
d="M512 550h160v-71l-43 -5l-74 -474h-113l-75 306q-15 63 -18 105h-3q-6 -56 -18 -105l-74 -306h-114l-74 474l-43 5v71h162v-68l-37 -4l35 -270q4 -31 9.5 -81t6.5 -55h4q23 127 25 135l65 275h111l65 -275q9 -39 26 -135h4q8 83 15 136l35 270l-37 4v68z" />
    <glyph glyph-name="x" unicode="x" horiz-adv-x="454" 
d="M70 76l108 204l-103 194l-49 5v71h104l100 -189l96 189h99v-71l-52 -5l-102 -188l112 -210l48 -5v-71h-102l-108 201l-103 -201h-95v71z" />
    <glyph glyph-name="y" unicode="y" horiz-adv-x="479" 
d="M289 550h169v-71l-47 -5l-130 -511q-12 -47 -21 -73t-27 -54t-45.5 -40t-67.5 -12q-49 0 -82 11v65q32 -3 76 -3q36 0 52.5 23t32.5 90l7 30l-138 474l-48 5v71h169v-68l-37 -4l59 -222q14 -55 33 -152h2q11 85 27 150l53 224l-37 4v68z" />
    <glyph glyph-name="z" unicode="z" horiz-adv-x="374" 
d="M344 0h-314v102l230 376h-148l-10 -45h-63v117h304v-94l-234 -384h162l10 57h63v-129z" />
    <glyph glyph-name="braceleft" unicode="{" horiz-adv-x="296" 
d="M266 -206h-48q-46 0 -76 10.5t-43.5 31.5t-18 42t-4.5 52v185q0 54 -9 76t-40 50v55q31 29 40 51t9 76v182q0 33 4.5 54.5t18 42.5t43.5 31t76 10h47v-71h-47q-40 0 -50 -12t-10 -55v-182q0 -58 -14 -92.5t-45 -62.5q31 -28 45.5 -62t14.5 -91v-185q0 -42 9.5 -53.5
t49.5 -11.5h48v-71z" />
    <glyph glyph-name="bar" unicode="|" horiz-adv-x="216" 
d="M149 -206h-82v949h82v-949z" />
    <glyph glyph-name="braceright" unicode="}" horiz-adv-x="296" 
d="M269 241q-31 -28 -40.5 -50t-9.5 -76v-185q0 -31 -4.5 -52t-18 -42t-43 -31.5t-75.5 -10.5h-48v71h48q40 0 49.5 11.5t9.5 53.5v185q0 57 14.5 91t45.5 62q-32 28 -46 62.5t-14 92.5v182q0 43 -9.5 55t-49.5 12h-47v71h47q87 0 114 -34.5t27 -103.5v-182q0 -54 9 -76
t41 -51v-55z" />
    <glyph glyph-name="asciitilde" unicode="~" horiz-adv-x="513" 
d="M446 451q0 -56 -20.5 -87.5t-73.5 -31.5q-62 0 -102 49l-36 44q-25 32 -46 32t-27.5 -12.5t-6.5 -40.5v-68h-68v68q0 119 102 119q52 0 94 -50l35 -43q26 -32 51 -32q19 0 24.5 12t5.5 40v68h68v-67z" />
    <glyph glyph-name="uni00A0" unicode="&#xa0;" horiz-adv-x="161" 
 />
    <glyph glyph-name="exclamdown" unicode="&#xa1;" horiz-adv-x="196" 
d="M143 -217h-89l8 572h74zM140 550v-132h-83v132h83z" />
    <glyph glyph-name="cent" unicode="&#xa2;" horiz-adv-x="373" 
d="M332 9q-34 -13 -89 -17v-110h-77v113q-129 24 -129 222v117q0 197 129 221v111h78v-107q57 -4 88 -18v-108h-63l-9 53h-37q-55 0 -79 -30.5t-24 -121.5v-117q0 -91 24 -122t79 -31q35 0 109 9v-64z" />
    <glyph glyph-name="sterling" unicode="&#xa3;" horiz-adv-x="461" 
d="M423 0h-359v69q36 39 36 126v158h-62v69h62v90q0 130 36.5 185.5t141.5 55.5q75 0 145 -21v-123h-64l-12 64q-17 2 -59 2q-67 0 -85 -31t-18 -132v-90h184v-69h-184v-158q0 -69 -32 -121h270v-74z" />
    <glyph glyph-name="currency" unicode="&#xa4;" horiz-adv-x="518" 
d="M471 226l-57 -56l-64 62q-44 -26 -90 -26q-53 0 -93 26l-63 -62l-57 56l63 63q-25 42 -25 92q0 52 25 91l-63 62l57 56l63 -61q43 26 93 26q52 0 92 -26l62 61l57 -56l-63 -62q27 -46 27 -91q0 -49 -26 -92zM366 381q0 44 -32 76.5t-74 32.5q-43 0 -75 -32.5t-32 -76.5
q0 -45 32 -77.5t75 -32.5q42 0 74 32.5t32 77.5z" />
    <glyph glyph-name="yen" unicode="&#xa5;" horiz-adv-x="485" 
d="M458 254h-174v-177l42 -5v-72h-168v72l42 5v177h-174v67h166l-37 94h-128v66h101l-70 186l-37 5v71h99l86 -239q28 -77 36 -110h2q10 41 35 110l87 239h98v-71l-38 -5l-70 -186h102v-66h-129l-38 -94h167v-67z" />
    <glyph glyph-name="brokenbar" unicode="&#xa6;" horiz-adv-x="216" 
d="M149 345h-82v397h82v-397zM149 -206h-82v397h82v-397z" />
    <glyph glyph-name="section" unicode="&#xa7;" horiz-adv-x="462" 
d="M414 -20q0 -87 -45 -142.5t-144 -55.5q-93 0 -163 21v127h64l8 -65q33 -3 84 -3q60 0 83 26t23 90q0 27 -2 41.5t-11 35t-29.5 39.5t-56.5 43l-84 57q-54 37 -74 77.5t-20 100.5q0 59 24 101q-24 41 -24 105q0 175 188 175q77 0 161 -21v-123h-64l-11 62q-33 3 -82 3
q-60 0 -81.5 -22.5t-21.5 -73.5q0 -25 2 -39t10 -32.5t26.5 -35.5t49.5 -36l76 -46q67 -41 90.5 -86.5t23.5 -107.5q0 -53 -25 -99q25 -44 25 -116zM328 162v33q0 47 -11 68t-61 52l-75 47q-16 10 -25.5 17.5t-17.5 16t-10 10.5v-34q0 -49 11 -68t56 -48l78 -50
q33 -21 55 -44z" />
    <glyph glyph-name="dieresis" unicode="&#xa8;" 
d="M294 635h-80v112h80v-112zM115 635v112h-80v-112h80z" />
    <glyph glyph-name="copyright" unicode="&#xa9;" horiz-adv-x="653" 
d="M607 380q0 -161 -76 -253.5t-206 -92.5t-206 92.5t-76 253.5t76 253.5t206 92.5t206 -92.5t76 -253.5zM544 380q0 135 -58.5 210.5t-160.5 75.5t-160.5 -75.5t-58.5 -210.5t58.5 -210.5t160.5 -75.5t160.5 75.5t58.5 210.5zM421 177q-33 -11 -96 -11q-142 0 -142 168v93
q0 166 142 166q72 0 96 -10v-89h-52l-8 36q-3 0 -13 0.5t-16 0.5q-44 0 -60 -23t-16 -81v-93q0 -57 16 -80t60 -23q18 0 29 1l8 36h52v-91z" />
    <glyph glyph-name="ordfeminine" unicode="&#xaa;" horiz-adv-x="324" 
d="M297 445h-85v19q-41 -26 -87 -26q-41 0 -63.5 23t-22.5 66v14q0 56 34 76t100 20h33v23q0 36 -11 47t-49 11q-24 0 -37 -2l-5 -26h-46v67q33 15 100 15t91 -25.5t24 -86.5v-158l24 -2v-55zM208 508v85h-34q-41 0 -55.5 -10t-14.5 -41v-17q0 -22 10 -29t30 -7q33 0 64 19z
" />
    <glyph glyph-name="guillemotleft" unicode="&#xab;" horiz-adv-x="367" 
d="M343 70h-75l-102 206l102 206h75l-99 -206zM203 70l-99 206l99 206h-75l-102 -206l102 -206h75z" />
    <glyph glyph-name="logicalnot" unicode="&#xac;" horiz-adv-x="513" 
d="M430 245h-72v222h-275v71h347v-293z" />
    <glyph glyph-name="uni00AD" unicode="&#xad;" horiz-adv-x="274" 
d="M237 257h-200v72h200v-72z" />
    <glyph glyph-name="registered" unicode="&#xae;" horiz-adv-x="540" 
d="M494 479q0 -129 -60 -204.5t-166 -75.5t-165.5 75.5t-59.5 204.5q0 130 59.5 205.5t165.5 75.5t166 -75.5t60 -205.5zM441 479q0 110 -45 170.5t-128 60.5q-82 0 -127.5 -60.5t-45.5 -170.5q0 -111 45.5 -171.5t127.5 -60.5q83 0 128 60.5t45 171.5zM386 323h-67l-60 125
h-12h-14v-125h-75v39l18 2v244l-18 2v43q27 1 91 1q60 0 90.5 -20t30.5 -76v-4q0 -71 -54 -94l47 -94l23 -3v-40zM311 554v4q0 31 -13.5 40t-47.5 9h-17v-112h17q35 0 48 12.5t13 46.5z" />
    <glyph glyph-name="macron" unicode="&#xaf;" 
d="M299 653h-270v66h270v-66z" />
    <glyph glyph-name="degree" unicode="&#xb0;" horiz-adv-x="379" 
d="M348 594q0 -65 -46.5 -111t-112.5 -46q-65 0 -111 46t-46 111q0 66 46 112t111 46q66 0 112.5 -46t46.5 -112zM280 594q0 39 -26.5 66t-64.5 27q-37 0 -63.5 -27t-26.5 -66t26.5 -65.5t63.5 -26.5q38 0 64.5 26.5t26.5 65.5z" />
    <glyph glyph-name="plusminus" unicode="&#xb1;" horiz-adv-x="513" 
d="M455 0h-398v70h398v-70zM461 372h-169v-171h-69v171h-172v68h172v171h69v-171h169v-68z" />
    <glyph glyph-name="two.superior" unicode="&#xb2;" horiz-adv-x="352" 
d="M304 301h-264v57q0 72 25 109.5t92 81.5q48 31 61.5 48.5t13.5 43.5q0 30 -17.5 41.5t-62.5 11.5q-15 0 -51 -2l-6 -40h-51v88q56 14 119 14q76 0 111.5 -26.5t35.5 -83.5q0 -41 -21.5 -71t-81.5 -70q-59 -39 -75 -62.5t-16 -69.5v-8h130l6 37h52v-99z" />
    <glyph glyph-name="three.superior" unicode="&#xb3;" horiz-adv-x="352" 
d="M308 421q0 -70 -37 -99.5t-114 -29.5q-65 0 -116 17v89h51l6 -43q32 -2 53 -2q43 0 61 13.5t18 56.5v14q0 33 -12 48.5t-50 15.5h-108v58h109q37 0 49 15.5t12 48.5v8q0 37 -17 50t-63 13q-19 0 -51 -2l-6 -40h-51v88q46 14 115 14q77 0 114 -27t37 -93v-8q0 -69 -49 -96
q49 -27 49 -95v-14z" />
    <glyph glyph-name="acute" unicode="&#xb4;" 
d="M298 760l-111 -153h-79l96 153h94z" />
    <glyph glyph-name="mu" unicode="&#xb5;" horiz-adv-x="488" 
d="M196 -206h-166v71l42 4v605l-42 5v71h124v-376q0 -67 12 -89.5t52 -22.5q43 0 116 40v372l-42 5v71h125v-474l42 -5v-71h-125v37q-80 -47 -137 -47q-28 0 -43 7v-128l42 -4v-71z" />
    <glyph glyph-name="paragraph" unicode="&#xb6;" horiz-adv-x="566" 
d="M515 -200h-77v871h-54v-871h-127v70l50 7v379h-25q-114 0 -177 54t-63 184v11q0 73 18 121.5t54 73t79 34t105 9.5h217v-943z" />
    <glyph glyph-name="periodcentered" unicode="&#xb7;" horiz-adv-x="179" 
d="M131 286h-83v135h83v-135z" />
    <glyph glyph-name="cedilla" unicode="&#xb8;" 
d="M225 -62l-105 -144h-77l87 144h95z" />
    <glyph glyph-name="one.superior" unicode="&#xb9;" horiz-adv-x="338" 
d="M294 300h-244v57l83 3v309l-83 -30v68l103 40h57v-387l84 -3v-57z" />
    <glyph glyph-name="ordmasculine" unicode="&#xba;" horiz-adv-x="334" 
d="M295 581q0 -143 -128 -143t-128 143v48q0 143 128 143t128 -143v-48zM229 581v48q0 47 -14.5 66.5t-47.5 19.5t-47.5 -19.5t-14.5 -66.5v-48q0 -46 14.5 -65.5t47.5 -19.5t47.5 19t14.5 66z" />
    <glyph glyph-name="guillemotright" unicode="&#xbb;" horiz-adv-x="367" 
d="M342 276l-102 -206h-75l99 206l-99 206h75zM202 276l-102 206h-75l99 -206l-99 -206h75z" />
    <glyph glyph-name="onequarter" unicode="&#xbc;" horiz-adv-x="756" 
d="M722 111h-55v-59l27 -3v-49h-132v49l27 3v59h-179v65l183 270h74v-276h55v-59zM592 170v174l-116 -174h116zM617 743l-352 -743h-78l352 743h78zM283 300h-244v57l84 3v309l-84 -30v68l104 40h57v-387l83 -3v-57z" />
    <glyph glyph-name="onehalf" unicode="&#xbd;" horiz-adv-x="823" 
d="M778 0h-264v57q0 73 24.5 111t92.5 81q48 31 61.5 48t13.5 44q0 30 -17.5 41t-62.5 11q-15 0 -51 -2l-6 -40h-51v88q56 14 119 14q76 0 111.5 -26.5t35.5 -83.5q0 -40 -21.5 -71t-81.5 -70q-58 -39 -74.5 -62t-16.5 -70v-8h130l6 37h52v-99zM617 743l-352 -743h-78
l352 743h78zM283 300h-244v57l84 3v309l-84 -30v68l104 40h57v-387l83 -3v-57z" />
    <glyph glyph-name="threequarters" unicode="&#xbe;" horiz-adv-x="782" 
d="M745 111h-56v-59l28 -3v-49h-133v49l28 3v59h-180v65l184 270h73v-276h56v-59zM614 170v174l-116 -174h116zM624 743l-351 -743h-78l351 743h78zM302 421q0 -70 -37 -99.5t-114 -29.5q-65 0 -116 17v89h51l6 -43q32 -2 53 -2q43 0 61 13.5t18 56.5v14q0 33 -12 48.5
t-50 15.5h-108v58h109q37 0 49 15.5t12 48.5v8q0 37 -17 50t-63 13q-19 0 -51 -2l-6 -40h-51v88q45 14 115 14q77 0 114 -27t37 -93v-8q0 -69 -49 -96q49 -27 49 -95v-14z" />
    <glyph glyph-name="questiondown" unicode="&#xbf;" horiz-adv-x="377" 
d="M190 550h83v-135h-83v135zM193 355v-49q0 -50 -13.5 -82.5t-65.5 -102.5q-71 -96 -71 -180v-11q0 -157 168 -157q60 0 131 21v115h-64l-11 -59q-13 -1 -42 -1q-50 0 -72 17t-22 64v11q0 41 15.5 78.5t58.5 95.5q40 53 53 92.5t13 98.5v49h-78z" />
    <glyph glyph-name="Agrave" unicode="&#xc0;" horiz-adv-x="556" 
d="M185 0h-166v71l40 5l139 591l-43 5v71h182l157 -667l43 -5v-71h-167v71l37 4l-38 170h-183l-38 -170l37 -4v-71zM350 326l-47 207q-13 59 -22 135h-6q-16 -110 -22 -135l-48 -207h145zM338 794h-80l-111 153h95z" />
    <glyph glyph-name="Aacute" unicode="&#xc1;" horiz-adv-x="556" 
d="M185 0h-166v71l40 5l139 591l-43 5v71h182l157 -667l43 -5v-71h-167v71l37 4l-38 170h-183l-38 -170l37 -4v-71zM350 326l-47 207q-13 59 -22 135h-6q-16 -110 -22 -135l-48 -207h145zM405 947l-111 -153h-79l96 153h94z" />
    <glyph glyph-name="Acircumflex" unicode="&#xc2;" horiz-adv-x="556" 
d="M185 0h-166v71l40 5l139 591l-43 5v71h182l157 -667l43 -5v-71h-167v71l37 4l-38 170h-183l-38 -170l37 -4v-71zM350 326l-47 207q-13 59 -22 135h-6q-16 -110 -22 -135l-48 -207h145zM434 794h-77l-80 106l-79 -106h-78l101 153h113z" />
    <glyph glyph-name="Atilde" unicode="&#xc3;" horiz-adv-x="556" 
d="M185 0h-166v71l40 5l139 591l-43 5v71h182l157 -667l43 -5v-71h-167v71l37 4l-38 170h-183l-38 -170l37 -4v-71zM350 326l-47 207q-13 59 -22 135h-6q-16 -110 -22 -135l-48 -207h145zM446 903q0 -110 -87 -110q-56 0 -92 46l-22 27q-24 30 -45 30q-27 0 -27 -49v-49h-61
v49q0 110 88 110q53 0 92 -48l21 -26q23 -28 45 -28q27 0 27 48v50h61v-50z" />
    <glyph glyph-name="Adieresis" unicode="&#xc4;" horiz-adv-x="556" 
d="M185 0h-166v71l40 5l139 591l-43 5v71h182l157 -667l43 -5v-71h-167v71l37 4l-38 170h-183l-38 -170l37 -4v-71zM350 326l-47 207q-13 59 -22 135h-6q-16 -110 -22 -135l-48 -207h145zM406 810h-80v112h80v-112zM227 810v112h-80v-112h80z" />
    <glyph glyph-name="Aring" unicode="&#xc5;" horiz-adv-x="556" 
d="M185 0h-166v71l40 5l139 591l-43 5v71h182l157 -667l43 -5v-71h-167v71l37 4l-38 170h-183l-38 -170l37 -4v-71zM350 326l-47 207q-13 59 -22 135h-6q-16 -110 -22 -135l-48 -207h145zM382 882q0 -57 -28 -83.5t-76 -26.5t-76.5 27t-28.5 83q0 57 28.5 84t76.5 27t76 -27
t28 -84zM323 882q0 58 -45 58t-45 -58q0 -57 45 -57t45 57z" />
    <glyph glyph-name="AE" unicode="&#xc6;" horiz-adv-x="739" 
d="M700 0h-383v71l42 5v168h-174l-55 -244h-112v71l40 5l139 591l-43 5v71h546v-134h-64l-10 57h-182v-240h241v-80h-241v-269h182l10 59h64v-136zM359 323v344h-78q-5 -20 -13.5 -60.5t-12.5 -56.5l-52 -227h156z" />
    <glyph glyph-name="Ccedilla" unicode="&#xc7;" horiz-adv-x="434" 
d="M400 8q-76 -18 -132 -18q-53 0 -90.5 10.5t-72 39.5t-52.5 89.5t-18 151.5v182q0 91 18 151t52.5 89t72 39.5t90.5 10.5q34 0 75 -6t57 -13v-125h-65l-10 62q-38 2 -57 2q-52 0 -82 -15t-48 -62t-18 -133v-182q0 -87 18 -134t48 -62.5t82 -15.5q38 0 57 2l10 65h65v-128z
M296 -62l-105 -144h-77l87 144h95z" />
    <glyph glyph-name="Egrave" unicode="&#xc8;" horiz-adv-x="446" 
d="M413 0h-383v71l42 5v591l-42 5v71h383v-134h-65l-10 57h-181v-240h241v-80h-241v-269h181l10 59h65v-136zM299 794h-80l-111 153h95z" />
    <glyph glyph-name="Eacute" unicode="&#xc9;" horiz-adv-x="446" 
d="M413 0h-383v71l42 5v591l-42 5v71h383v-134h-65l-10 57h-181v-240h241v-80h-241v-269h181l10 59h65v-136zM376 947l-111 -153h-79l96 153h94z" />
    <glyph glyph-name="Ecircumflex" unicode="&#xca;" horiz-adv-x="446" 
d="M413 0h-383v71l42 5v591l-42 5v71h383v-134h-65l-10 57h-181v-240h241v-80h-241v-269h181l10 59h65v-136zM394 794h-77l-80 106l-79 -106h-78l101 153h113z" />
    <glyph glyph-name="Edieresis" unicode="&#xcb;" horiz-adv-x="446" 
d="M413 0h-383v71l42 5v591l-42 5v71h383v-134h-65l-10 57h-181v-240h241v-80h-241v-269h181l10 59h65v-136zM371 810h-80v112h80v-112zM192 810v112h-80v-112h80z" />
    <glyph glyph-name="Igrave" unicode="&#xcc;" horiz-adv-x="231" 
d="M200 0h-169v71l42 5v591l-42 5v71h169v-71l-42 -5v-591l42 -5v-71zM176 794h-80l-111 153h95z" />
    <glyph glyph-name="Iacute" unicode="&#xcd;" horiz-adv-x="231" 
d="M200 0h-169v71l42 5v591l-42 5v71h169v-71l-42 -5v-591l42 -5v-71zM247 947l-111 -153h-79l96 153h94z" />
    <glyph glyph-name="Icircumflex" unicode="&#xce;" horiz-adv-x="231" 
d="M200 0h-169v71l42 5v591l-42 5v71h169v-71l-42 -5v-591l42 -5v-71zM273 794h-77l-80 106l-79 -106h-78l101 153h113z" />
    <glyph glyph-name="Idieresis" unicode="&#xcf;" horiz-adv-x="231" 
d="M200 0h-169v71l42 5v591l-42 5v71h169v-71l-42 -5v-591l42 -5v-71zM246 810h-80v112h80v-112zM67 810v112h-80v-112h80z" />
    <glyph glyph-name="Eth" unicode="&#xd0;" horiz-adv-x="522" 
d="M484 283q0 -50 -6.5 -89.5t-23.5 -77t-44.5 -62t-73 -39.5t-106.5 -15h-200v71l42 6v271h-42v77h42v241l-42 6v71h200q74 0 125.5 -21.5t78.5 -61.5t38.5 -88t11.5 -110v-179zM398 283v179q0 111 -38 157.5t-134 46.5h-69v-241h107v-77h-107v-271h69q95 0 133.5 47.5
t38.5 158.5z" />
    <glyph glyph-name="Ntilde" unicode="&#xd1;" horiz-adv-x="567" 
d="M373 743h164v-71l-42 -5v-667h-116l-193 541q-31 84 -40 113h-2q8 -80 8 -147v-431l42 -5v-71h-164v71l42 5v591l-42 5v71h162l188 -518q5 -13 19.5 -52.5t21.5 -61.5h2q-8 80 -8 152v404l-42 5v71zM453 901q0 -110 -87 -110q-56 0 -92 46l-22 27q-24 30 -45 30
q-27 0 -27 -49v-49h-61v49q0 110 88 110q53 0 92 -48l21 -26q23 -28 45 -28q27 0 27 48v50h61v-50z" />
    <glyph glyph-name="Ograve" unicode="&#xd2;" horiz-adv-x="510" 
d="M475 292q0 -302 -220 -302t-220 302v158q0 303 220 303t220 -303v-158zM389 292v158q0 116 -32.5 170.5t-101.5 54.5q-70 0 -102.5 -54.5t-32.5 -170.5v-158q0 -115 32.5 -169.5t102.5 -54.5q69 0 101.5 54.5t32.5 169.5zM318 794h-80l-111 153h95z" />
    <glyph glyph-name="Oacute" unicode="&#xd3;" horiz-adv-x="510" 
d="M475 292q0 -302 -220 -302t-220 302v158q0 303 220 303t220 -303v-158zM389 292v158q0 116 -32.5 170.5t-101.5 54.5q-70 0 -102.5 -54.5t-32.5 -170.5v-158q0 -115 32.5 -169.5t102.5 -54.5q69 0 101.5 54.5t32.5 169.5zM383 947l-111 -153h-79l96 153h94z" />
    <glyph glyph-name="Ocircumflex" unicode="&#xd4;" horiz-adv-x="510" 
d="M475 292q0 -302 -220 -302t-220 302v158q0 303 220 303t220 -303v-158zM389 292v158q0 116 -32.5 170.5t-101.5 54.5q-70 0 -102.5 -54.5t-32.5 -170.5v-158q0 -115 32.5 -169.5t102.5 -54.5q69 0 101.5 54.5t32.5 169.5zM412 794h-77l-80 106l-79 -106h-78l101 153h113z
" />
    <glyph glyph-name="Otilde" unicode="&#xd5;" horiz-adv-x="510" 
d="M475 292q0 -302 -220 -302t-220 302v158q0 303 220 303t220 -303v-158zM389 292v158q0 116 -32.5 170.5t-101.5 54.5q-70 0 -102.5 -54.5t-32.5 -170.5v-158q0 -115 32.5 -169.5t102.5 -54.5q69 0 101.5 54.5t32.5 169.5zM422 901q0 -110 -87 -110q-56 0 -92 46l-22 27
q-24 30 -45 30q-27 0 -27 -49v-49h-61v49q0 110 88 110q53 0 92 -48l21 -26q23 -28 45 -28q27 0 27 48v50h61v-50z" />
    <glyph glyph-name="Odieresis" unicode="&#xd6;" horiz-adv-x="510" 
d="M475 292q0 -302 -220 -302t-220 302v158q0 303 220 303t220 -303v-158zM389 292v158q0 116 -32.5 170.5t-101.5 54.5q-70 0 -102.5 -54.5t-32.5 -170.5v-158q0 -115 32.5 -169.5t102.5 -54.5q69 0 101.5 54.5t32.5 169.5zM385 810h-80v112h80v-112zM206 810v112h-80v-112
h80z" />
    <glyph glyph-name="multiply" unicode="&#xd7;" horiz-adv-x="513" 
d="M425 269l-48 -47l-120 120l-121 -122l-48 49l121 121l-122 122l48 48l122 -121l121 120l48 -48l-121 -121z" />
    <glyph glyph-name="Oslash" unicode="&#xd8;" horiz-adv-x="510" 
d="M475 292q0 -302 -220 -302q-88 0 -141 48l-21 -38h-81l57 101q-34 71 -34 191v158q0 303 220 303q94 0 148 -57l27 47h81l-65 -115q29 -71 29 -178v-158zM120 292q0 -51 6 -90l233 414q-32 59 -104 59q-70 0 -102.5 -54.5t-32.5 -170.5v-158zM389 292v158q0 42 -4 70
l-228 -405q32 -47 98 -47q69 0 101.5 54.5t32.5 169.5z" />
    <glyph glyph-name="Ugrave" unicode="&#xd9;" horiz-adv-x="559" 
d="M360 743h169v-71l-42 -5v-392q0 -135 -47.5 -210t-160.5 -75q-112 0 -159.5 75t-47.5 210v392l-42 5v71h169v-71l-42 -5v-374q0 -126 24.5 -175.5t97.5 -49.5t98 50t25 175v374l-42 5v71zM339 794h-80l-111 153h95z" />
    <glyph glyph-name="Uacute" unicode="&#xda;" horiz-adv-x="559" 
d="M360 743h169v-71l-42 -5v-392q0 -135 -47.5 -210t-160.5 -75q-112 0 -159.5 75t-47.5 210v392l-42 5v71h169v-71l-42 -5v-374q0 -126 24.5 -175.5t97.5 -49.5t98 50t25 175v374l-42 5v71zM413 947l-111 -153h-79l96 153h94z" />
    <glyph glyph-name="Ucircumflex" unicode="&#xdb;" horiz-adv-x="559" 
d="M360 743h169v-71l-42 -5v-392q0 -135 -47.5 -210t-160.5 -75q-112 0 -159.5 75t-47.5 210v392l-42 5v71h169v-71l-42 -5v-374q0 -126 24.5 -175.5t97.5 -49.5t98 50t25 175v374l-42 5v71zM436 794h-77l-80 106l-79 -106h-78l101 153h113z" />
    <glyph glyph-name="Udieresis" unicode="&#xdc;" horiz-adv-x="559" 
d="M360 743h169v-71l-42 -5v-392q0 -135 -47.5 -210t-160.5 -75q-112 0 -159.5 75t-47.5 210v392l-42 5v71h169v-71l-42 -5v-374q0 -126 24.5 -175.5t97.5 -49.5t98 50t25 175v374l-42 5v71zM409 810h-80v112h80v-112zM230 810v112h-80v-112h80z" />
    <glyph glyph-name="Yacute" unicode="&#xdd;" horiz-adv-x="481" 
d="M298 743h164v-71l-39 -5l-141 -371v-219l42 -5v-72h-168v72l42 5v218l-142 372l-37 5v71h164v-71l-38 -5l59 -163q7 -19 20 -60t16 -50h2q4 10 16.5 51.5t18.5 58.5l59 163l-38 5v71zM394 947l-111 -153h-79l96 153h94z" />
    <glyph glyph-name="Thorn" unicode="&#xde;" horiz-adv-x="484" 
d="M204 0h-174v71l42 5v614l-42 5v71h174v-71l-47 -5v-35h59q116 0 177 -45.5t61 -168.5v-17q0 -65 -17 -109t-50.5 -67.5t-74 -33t-96.5 -9.5h-59v-129l47 -5v-71zM369 424v17q-1 82 -35 109t-118 27h-59v-295h59q83 0 118 29.5t35 112.5z" />
    <glyph glyph-name="germandbls" unicode="&#xdf;" horiz-adv-x="470" 
d="M438 205q0 -99 -42 -155.5t-150 -56.5q-16 0 -44 3v68q20 -1 39 -1q66 0 90.5 32t24.5 110v33q0 64 -25.5 95.5t-90.5 31.5h-38v68h38q61 0 82.5 31.5t21.5 95.5v16q0 65 -20 96t-77 31q-58 0 -80 -38.5t-22 -131.5v-533h-124v71l42 5v457q0 54 8 95t27 76.5t56.5 54
t92.5 18.5q52 0 88.5 -17t55.5 -47t27.5 -63.5t8.5 -73.5v-16q0 -110 -72 -156q83 -44 83 -166v-33z" />
    <glyph glyph-name="agrave" unicode="&#xe0;" horiz-adv-x="432" 
d="M406 0h-118v31q-54 -41 -127 -41q-66 0 -96.5 36.5t-30.5 110.5v28q0 91 47.5 127.5t147.5 36.5h52v52q0 67 -17.5 86.5t-78.5 19.5q-35 0 -54 -2l-10 -52h-62v106q49 21 138 21q99 0 133 -40t34 -139v-305l42 -5v-71zM281 89v177h-52q-65 0 -88.5 -20.5t-23.5 -80.5v-38
q0 -41 14.5 -55.5t47.5 -14.5q55 0 102 32zM268 607h-80l-111 153h95z" />
    <glyph glyph-name="aacute" unicode="&#xe1;" horiz-adv-x="432" 
d="M406 0h-118v31q-54 -41 -127 -41q-66 0 -96.5 36.5t-30.5 110.5v28q0 91 47.5 127.5t147.5 36.5h52v52q0 67 -17.5 86.5t-78.5 19.5q-35 0 -54 -2l-10 -52h-62v106q49 21 138 21q99 0 133 -40t34 -139v-305l42 -5v-71zM281 89v177h-52q-65 0 -88.5 -20.5t-23.5 -80.5v-38
q0 -41 14.5 -55.5t47.5 -14.5q55 0 102 32zM343 760l-111 -153h-79l96 153h94z" />
    <glyph glyph-name="acircumflex" unicode="&#xe2;" horiz-adv-x="432" 
d="M406 0h-118v31q-54 -41 -127 -41q-66 0 -96.5 36.5t-30.5 110.5v28q0 91 47.5 127.5t147.5 36.5h52v52q0 67 -17.5 86.5t-78.5 19.5q-35 0 -54 -2l-10 -52h-62v106q49 21 138 21q99 0 133 -40t34 -139v-305l42 -5v-71zM281 89v177h-52q-65 0 -88.5 -20.5t-23.5 -80.5v-38
q0 -41 14.5 -55.5t47.5 -14.5q55 0 102 32zM368 607h-77l-80 106l-79 -106h-78l101 153h113z" />
    <glyph glyph-name="atilde" unicode="&#xe3;" horiz-adv-x="432" 
d="M406 0h-118v31q-54 -41 -127 -41q-66 0 -96.5 36.5t-30.5 110.5v28q0 91 47.5 127.5t147.5 36.5h52v52q0 67 -17.5 86.5t-78.5 19.5q-35 0 -54 -2l-10 -52h-62v106q49 21 138 21q99 0 133 -40t34 -139v-305l42 -5v-71zM281 89v177h-52q-65 0 -88.5 -20.5t-23.5 -80.5v-38
q0 -41 14.5 -55.5t47.5 -14.5q55 0 102 32zM376 713q0 -110 -87 -110q-56 0 -92 46l-22 27q-24 30 -45 30q-27 0 -27 -49v-49h-61v49q0 110 88 110q53 0 92 -48l21 -26q23 -28 45 -28q27 0 27 48v50h61v-50z" />
    <glyph glyph-name="adieresis" unicode="&#xe4;" horiz-adv-x="432" 
d="M406 0h-118v31q-54 -41 -127 -41q-66 0 -96.5 36.5t-30.5 110.5v28q0 91 47.5 127.5t147.5 36.5h52v52q0 67 -17.5 86.5t-78.5 19.5q-35 0 -54 -2l-10 -52h-62v106q49 21 138 21q99 0 133 -40t34 -139v-305l42 -5v-71zM281 89v177h-52q-65 0 -88.5 -20.5t-23.5 -80.5v-38
q0 -41 14.5 -55.5t47.5 -14.5q55 0 102 32zM345 635h-80v112h80v-112zM166 635v112h-80v-112h80z" />
    <glyph glyph-name="aring" unicode="&#xe5;" horiz-adv-x="432" 
d="M406 0h-118v31q-54 -41 -127 -41q-66 0 -96.5 36.5t-30.5 110.5v28q0 91 47.5 127.5t147.5 36.5h52v52q0 67 -17.5 86.5t-78.5 19.5q-35 0 -54 -2l-10 -52h-62v106q49 21 138 21q99 0 133 -40t34 -139v-305l42 -5v-71zM281 89v177h-52q-65 0 -88.5 -20.5t-23.5 -80.5v-38
q0 -41 14.5 -55.5t47.5 -14.5q55 0 102 32zM312 700q0 -57 -28 -83.5t-76 -26.5t-76.5 27t-28.5 83q0 57 28.5 84t76.5 27t76 -27t28 -84zM253 700q0 58 -45 58t-45 -58q0 -57 45 -57t45 57z" />
    <glyph glyph-name="ae" unicode="&#xe6;" horiz-adv-x="675" 
d="M645 245h-280v-15q0 -99 22 -133.5t99 -34.5q72 0 144 15v-68q-61 -19 -149 -19q-116 0 -158 56q-74 -56 -161 -56q-128 0 -128 147v28q0 91 47.5 127.5t147.5 36.5h53v52q0 67 -17.5 86.5t-79.5 19.5q-35 0 -54 -2l-9 -52h-63v106q52 21 138 21q106 0 138 -47
q44 47 128 47q98 0 140 -64.5t42 -196.5v-54zM561 313v14q0 80 -19 119.5t-78 39.5t-78.5 -39.5t-19.5 -119.5v-14h195zM282 89v177h-53q-65 0 -88.5 -20.5t-23.5 -80.5v-38q0 -41 15 -55.5t47 -14.5q54 0 103 32z" />
    <glyph glyph-name="ccedilla" unicode="&#xe7;" horiz-adv-x="361" 
d="M331 9q-44 -19 -122 -19q-94 0 -133.5 57t-39.5 167v123q0 110 39.5 166.5t133.5 56.5q76 0 122 -19v-108h-63l-10 52q-11 1 -36 1q-56 0 -79.5 -30t-23.5 -119v-123q0 -89 23.5 -119.5t79.5 -30.5q36 0 109 9v-64zM256 -62l-105 -144h-77l87 144h95z" />
    <glyph glyph-name="egrave" unicode="&#xe8;" horiz-adv-x="426" 
d="M396 245h-279v-15q0 -99 22 -133t98 -34q74 0 144 14v-68q-61 -19 -149 -19q-111 0 -155 54.5t-44 194.5v61q0 131 43 195.5t138 64.5q98 0 140 -65t42 -200v-50zM312 313v14q0 80 -19 119t-78 39t-78.5 -39.5t-19.5 -118.5v-14h195zM278 607h-80l-111 153h95z" />
    <glyph glyph-name="eacute" unicode="&#xe9;" horiz-adv-x="426" 
d="M396 245h-279v-15q0 -99 22 -133t98 -34q74 0 144 14v-68q-61 -19 -149 -19q-111 0 -155 54.5t-44 194.5v61q0 131 43 195.5t138 64.5q98 0 140 -65t42 -200v-50zM312 313v14q0 80 -19 119t-78 39t-78.5 -39.5t-19.5 -118.5v-14h195zM347 760l-111 -153h-79l96 153h94z
" />
    <glyph glyph-name="ecircumflex" unicode="&#xea;" horiz-adv-x="426" 
d="M396 245h-279v-15q0 -99 22 -133t98 -34q74 0 144 14v-68q-61 -19 -149 -19q-111 0 -155 54.5t-44 194.5v61q0 131 43 195.5t138 64.5q98 0 140 -65t42 -200v-50zM312 313v14q0 80 -19 119t-78 39t-78.5 -39.5t-19.5 -118.5v-14h195zM374 607h-77l-80 106l-79 -106h-78
l101 153h113z" />
    <glyph glyph-name="edieresis" unicode="&#xeb;" horiz-adv-x="426" 
d="M396 245h-279v-15q0 -99 22 -133t98 -34q74 0 144 14v-68q-61 -19 -149 -19q-111 0 -155 54.5t-44 194.5v61q0 131 43 195.5t138 64.5q98 0 140 -65t42 -200v-50zM312 313v14q0 80 -19 119t-78 39t-78.5 -39.5t-19.5 -118.5v-14h195zM341 635h-80v112h80v-112zM162 635
v112h-80v-112h80z" />
    <glyph glyph-name="igrave" unicode="&#xec;" horiz-adv-x="219" 
d="M157 607h-80l-111 153h95zM192 0h-166v71l42 5v397l-42 5v72h125v-474l41 -5v-71z" />
    <glyph glyph-name="iacute" unicode="&#xed;" horiz-adv-x="219" 
d="M225 760l-111 -153h-79l96 153h94zM192 0h-166v71l42 5v397l-42 5v72h125v-474l41 -5v-71z" />
    <glyph glyph-name="icircumflex" unicode="&#xee;" horiz-adv-x="219" 
d="M192 0h-166v71l42 5v397l-42 5v72h125v-474l41 -5v-71zM254 607h-77l-80 106l-79 -106h-78l101 153h113z" />
    <glyph glyph-name="idieresis" unicode="&#xef;" horiz-adv-x="219" 
d="M227 635h-80v112h80v-112zM48 635v112h-80v-112h80zM192 0h-166v71l42 5v397l-42 5v72h125v-474l41 -5v-71z" />
    <glyph glyph-name="eth" unicode="&#xf0;" horiz-adv-x="433" 
d="M398 217q0 -227 -182 -227q-181 0 -181 227v110q0 227 181 227q44 0 79 -19q-24 88 -80 131l-91 -75l-41 40l74 67q-44 13 -92 13h-17v69q9 1 24 1q84 0 144 -27l51 41l42 -40l-38 -34q127 -102 127 -394v-110zM315 217v110q0 83 -23.5 117.5t-75.5 34.5t-75 -34
t-23 -118v-110q0 -84 23 -118t75 -34t75.5 34t23.5 118z" />
    <glyph glyph-name="ntilde" unicode="&#xf1;" horiz-adv-x="481" 
d="M455 0h-125v376q0 66 -12 89t-49 23q-46 0 -118 -39v-373l42 -5v-71h-167v71l42 5v398l-42 5v71h123v-36q75 46 135 46q77 0 103 -43t26 -141v-300l42 -5v-71zM403 714q0 -110 -87 -110q-56 0 -92 46l-22 27q-24 30 -45 30q-27 0 -27 -49v-49h-61v49q0 110 88 110
q53 0 92 -48l21 -26q23 -28 45 -28q27 0 27 48v50h61v-50z" />
    <glyph glyph-name="ograve" unicode="&#xf2;" horiz-adv-x="433" 
d="M398 216q0 -226 -182 -226q-181 0 -181 226v118q0 226 181 226q182 0 182 -226v-118zM315 216v118q0 82 -23.5 116.5t-75.5 34.5t-75 -34t-23 -117v-118q0 -83 23 -117t75 -34t75.5 34.5t23.5 116.5zM279 607h-80l-111 153h95z" />
    <glyph glyph-name="oacute" unicode="&#xf3;" horiz-adv-x="433" 
d="M398 216q0 -226 -182 -226q-181 0 -181 226v118q0 226 181 226q182 0 182 -226v-118zM315 216v118q0 82 -23.5 116.5t-75.5 34.5t-75 -34t-23 -117v-118q0 -83 23 -117t75 -34t75.5 34.5t23.5 116.5zM340 760l-111 -153h-79l96 153h94z" />
    <glyph glyph-name="ocircumflex" unicode="&#xf4;" horiz-adv-x="433" 
d="M398 216q0 -226 -182 -226q-181 0 -181 226v118q0 226 181 226q182 0 182 -226v-118zM315 216v118q0 82 -23.5 116.5t-75.5 34.5t-75 -34t-23 -117v-118q0 -83 23 -117t75 -34t75.5 34.5t23.5 116.5zM372 607h-77l-80 106l-79 -106h-78l101 153h113z" />
    <glyph glyph-name="otilde" unicode="&#xf5;" horiz-adv-x="433" 
d="M398 216q0 -226 -182 -226q-181 0 -181 226v118q0 226 181 226q182 0 182 -226v-118zM315 216v118q0 82 -23.5 116.5t-75.5 34.5t-75 -34t-23 -117v-118q0 -83 23 -117t75 -34t75.5 34.5t23.5 116.5zM383 714q0 -110 -87 -110q-56 0 -92 46l-22 27q-24 30 -45 30
q-27 0 -27 -49v-49h-61v49q0 110 88 110q53 0 92 -48l21 -26q23 -28 45 -28q27 0 27 48v50h61v-50z" />
    <glyph glyph-name="odieresis" unicode="&#xf6;" horiz-adv-x="433" 
d="M398 216q0 -226 -182 -226q-181 0 -181 226v118q0 226 181 226q182 0 182 -226v-118zM315 216v118q0 82 -23.5 116.5t-75.5 34.5t-75 -34t-23 -117v-118q0 -83 23 -117t75 -34t75.5 34.5t23.5 116.5zM345 635h-80v112h80v-112zM166 635v112h-80v-112h80z" />
    <glyph glyph-name="divide" unicode="&#xf7;" horiz-adv-x="513" 
d="M300 131h-85v127h85v-127zM441 356v70h-369v-70h369zM300 519h-85v128h85v-128z" />
    <glyph glyph-name="oslash" unicode="&#xf8;" horiz-adv-x="433" 
d="M398 216q0 -226 -182 -226q-58 0 -98 23l-24 -42h-79l52 93q-32 56 -32 152v118q0 226 181 226q68 0 112 -33l29 52h79l-62 -110q24 -53 24 -135v-118zM118 216q0 -32 3 -56l166 296q-23 29 -71 29q-52 0 -75 -34t-23 -117v-118zM315 216v118q0 5 -0.5 14.5t-0.5 13.5
l-158 -280q21 -17 60 -17q52 0 75.5 34.5t23.5 116.5z" />
    <glyph glyph-name="ugrave" unicode="&#xf9;" horiz-adv-x="481" 
d="M455 0h-125v37q-78 -47 -137 -47q-39 0 -65 14t-38.5 41.5t-17 57t-4.5 71.5v300l-42 5v71h125v-376q0 -67 12 -89.5t51 -22.5q45 0 116 40v372l-42 5v71h125v-474l42 -5v-71zM295 607h-80l-111 153h95z" />
    <glyph glyph-name="uacute" unicode="&#xfa;" horiz-adv-x="481" 
d="M455 0h-125v37q-78 -47 -137 -47q-39 0 -65 14t-38.5 41.5t-17 57t-4.5 71.5v300l-42 5v71h125v-376q0 -67 12 -89.5t51 -22.5q45 0 116 40v372l-42 5v71h125v-474l42 -5v-71zM371 760l-111 -153h-79l96 153h94z" />
    <glyph glyph-name="ucircumflex" unicode="&#xfb;" horiz-adv-x="481" 
d="M455 0h-125v37q-78 -47 -137 -47q-39 0 -65 14t-38.5 41.5t-17 57t-4.5 71.5v300l-42 5v71h125v-376q0 -67 12 -89.5t51 -22.5q45 0 116 40v372l-42 5v71h125v-474l42 -5v-71zM395 607h-77l-80 106l-79 -106h-78l101 153h113z" />
    <glyph glyph-name="udieresis" unicode="&#xfc;" horiz-adv-x="481" 
d="M455 0h-125v37q-78 -47 -137 -47q-39 0 -65 14t-38.5 41.5t-17 57t-4.5 71.5v300l-42 5v71h125v-376q0 -67 12 -89.5t51 -22.5q45 0 116 40v372l-42 5v71h125v-474l42 -5v-71zM367 635h-80v112h80v-112zM188 635v112h-80v-112h80z" />
    <glyph glyph-name="yacute" unicode="&#xfd;" horiz-adv-x="479" 
d="M289 550h169v-71l-47 -5l-130 -511q-12 -47 -21 -73t-27 -54t-45.5 -40t-67.5 -12q-49 0 -82 11v65q32 -3 76 -3q36 0 52.5 23t32.5 90l7 30l-138 474l-48 5v71h169v-68l-37 -4l59 -222q14 -55 33 -152h2q11 85 27 150l53 224l-37 4v68zM391 760l-111 -153h-79l96 153h94
z" />
    <glyph glyph-name="thorn" unicode="&#xfe;" horiz-adv-x="448" 
d="M413 218q0 -124 -47 -176t-134 -52q-32 0 -82 10v-131l43 -4v-71h-167v71l42 4v822l-42 5v71h122v-247q54 40 117 40q77 0 112.5 -52t35.5 -157v-133zM331 218v133q0 72 -19 103t-63 31q-42 0 -99 -31v-381q54 -9 82 -9q51 0 75 31.5t24 122.5z" />
    <glyph glyph-name="ydieresis" unicode="&#xff;" horiz-adv-x="479" 
d="M289 550h169v-71l-47 -5l-130 -511q-12 -47 -21 -73t-27 -54t-45.5 -40t-67.5 -12q-49 0 -82 11v65q32 -3 76 -3q36 0 52.5 23t32.5 90l7 30l-138 474l-48 5v71h169v-68l-37 -4l59 -222q14 -55 33 -152h2q11 85 27 150l53 224l-37 4v68zM374 635h-80v112h80v-112z
M195 635v112h-80v-112h80z" />
    <glyph glyph-name="dotlessi" unicode="&#x131;" horiz-adv-x="219" 
d="M192 0h-166v71l42 5v397l-42 5v72h125v-474l41 -5v-71z" />
    <glyph glyph-name="Lslash" unicode="&#x141;" horiz-adv-x="423" 
d="M399 0h-369v71l42 5v196l-63 -66v108l63 66v287l-42 5v71h169v-71l-42 -5v-186l90 104v-108l-90 -104v-296h167l10 60h65v-137z" />
    <glyph glyph-name="lslash" unicode="&#x142;" horiz-adv-x="219" 
d="M193 0h-167v71l42 5v207l-53 -59v108l53 59v300l-42 5v71h125v-279l52 59v-108l-52 -59v-304l42 -5v-71z" />
    <glyph glyph-name="OE" unicode="&#x152;" horiz-adv-x="736" 
d="M691 0h-320q-60 -10 -103 -10q-124 0 -176.5 79t-52.5 223v158q0 144 52.5 223.5t175.5 79.5q46 0 104 -10h320v-134h-65l-10 57h-182v-240h241v-80h-241v-269h182l10 59h65v-136zM349 74v592q-46 9 -82 9q-74 0 -108 -54.5t-34 -170.5v-158q0 -116 34 -170t108 -55
q36 0 82 7z" />
    <glyph glyph-name="oe" unicode="&#x153;" horiz-adv-x="710" 
d="M676 245h-279v-15q0 -99 21.5 -133.5t98.5 -34.5q73 0 144 15v-68q-61 -19 -148 -19q-116 0 -159 58q-45 -58 -139 -58q-181 0 -181 226v118q0 226 181 226q95 0 141 -60q43 60 138 60q98 0 140 -64.5t42 -196.5v-54zM592 313v14q0 80 -19 119.5t-78 39.5q-57 0 -77 -35
t-21 -100v-38h195zM314 216v118q0 83 -23.5 117.5t-75.5 34.5t-75 -34.5t-23 -117.5v-118q0 -83 23 -117.5t75 -34.5t75.5 34.5t23.5 117.5z" />
    <glyph glyph-name="Scaron" unicode="&#x160;" horiz-adv-x="432" 
d="M400 186q0 -96 -50.5 -146t-148.5 -50q-93 0 -160 20v128h64l10 -70q29 -2 77 -2q66 0 94 27t28 93q0 46 -17.5 76.5t-61.5 60.5l-88 59q-61 40 -88 85.5t-27 111.5q0 174 193 174q87 0 157 -21v-123h-65l-11 66q-46 2 -73 2q-60 0 -87 -23t-27 -75q0 -44 17 -72.5
t61 -58.5l88 -59q61 -41 88 -88.5t27 -114.5zM370 947l-100 -153h-113l-101 153h78l79 -106l80 106h77z" />
    <glyph glyph-name="scaron" unicode="&#x161;" horiz-adv-x="365" 
d="M335 136q0 -146 -166 -146q-40 0 -80 7t-55 14v117h63l10 -63q40 -2 57 -2q51 0 69.5 17t18.5 55q0 36 -16 57.5t-69 55.5l-27 17q-60 38 -85 76t-25 88q0 131 160 131q83 0 133 -20v-107h-63l-10 52q-36 2 -53 2q-45 0 -64.5 -12.5t-19.5 -44.5q0 -31 14.5 -53.5
t57.5 -48.5l29 -18q73 -45 97 -80.5t24 -93.5zM340 760l-100 -153h-113l-101 153h78l79 -106l80 106h77z" />
    <glyph glyph-name="Ydieresis" unicode="&#x178;" horiz-adv-x="481" 
d="M298 743h164v-71l-39 -5l-141 -371v-219l42 -5v-72h-168v72l42 5v218l-142 372l-37 5v71h164v-71l-38 -5l59 -163q7 -19 20 -60t16 -50h2q4 10 16.5 51.5t18.5 58.5l59 163l-38 5v71zM371 821h-80v112h80v-112zM192 821v112h-80v-112h80z" />
    <glyph glyph-name="Zcaron" unicode="&#x17d;" horiz-adv-x="456" 
d="M426 0h-396v97l298 569h-213l-10 -57h-64v134h375v-96l-299 -570h234l11 62h64v-139zM385 946l-100 -153h-113l-101 153h78l79 -106l80 106h77z" />
    <glyph glyph-name="zcaron" unicode="&#x17e;" horiz-adv-x="374" 
d="M344 0h-314v102l230 376h-148l-10 -45h-63v117h304v-94l-234 -384h162l10 57h63v-129zM348 760l-100 -153h-113l-101 153h78l79 -106l80 106h77z" />
    <glyph glyph-name="longs" unicode="&#x17f;" horiz-adv-x="271" 
d="M187 0h-166v71l42 5v550q0 77 23.5 114t90.5 37q40 0 82 -14v-58q-28 4 -64 4q-33 0 -41.5 -16t-8.5 -67v-550l42 -5v-71z" />
    <glyph glyph-name="florin" unicode="&#x192;" horiz-adv-x="453" 
d="M426 741l-6 -60q-31 4 -55 4q-32 0 -45 -15t-19 -66l-19 -177h128l-8 -71h-129l-36 -349q-8 -81 -41 -113.5t-88 -32.5q-42 0 -80 12l5 58q30 -3 58 -3q31 0 44 14.5t19 67.5l37 346h-116l8 71h116l18 180q8 80 41 113t91 33q33 0 77 -12z" />
    <glyph glyph-name="circumflex" unicode="&#x2c6;" 
d="M321 607h-77l-80 106l-79 -106h-78l101 153h113z" />
    <glyph glyph-name="caron" unicode="&#x2c7;" 
d="M321 760l-100 -153h-113l-101 153h78l79 -106l80 106h77z" />
    <glyph glyph-name="uni02C9" unicode="&#x2c9;" 
d="M299 653h-270v66h270v-66z" />
    <glyph glyph-name="breve" unicode="&#x2d8;" 
d="M295 760q-3 -74 -30 -114.5t-101 -40.5q-39 0 -65 11.5t-39.5 34.5t-19 48t-7.5 61h63q3 -58 17 -78t51 -20t51.5 20.5t16.5 77.5h63z" />
    <glyph glyph-name="dotaccent" unicode="&#x2d9;" 
d="M206 653h-83v113h83v-113z" />
    <glyph glyph-name="ring" unicode="&#x2da;" 
d="M269 711q0 -57 -28 -83.5t-76 -26.5t-76.5 27t-28.5 83q0 57 28.5 84t76.5 27t76 -27t28 -84zM210 711q0 58 -45 58t-45 -58q0 -57 45 -57t45 57z" />
    <glyph glyph-name="ogonek" unicode="&#x2db;" 
d="M260 -205q-34 -9 -71 -9q-52 0 -79.5 25.5t-27.5 67.5q0 33 20 64t76 83h85q-69 -62 -89 -90.5t-20 -50.5t11 -33t38 -11q12 0 57 3v-49z" />
    <glyph glyph-name="tilde" unicode="&#x2dc;" 
d="M333 714q0 -110 -87 -110q-56 0 -92 46l-22 27q-24 30 -45 30q-27 0 -27 -49v-49h-61v49q0 110 88 110q53 0 92 -48l21 -26q23 -28 45 -28q27 0 27 48v50h61v-50z" />
    <glyph glyph-name="hungarumlaut" unicode="&#x2dd;" 
d="M375 758l-111 -153h-80l96 153h95zM208 758h-94l-96 -153h79z" />
    <glyph glyph-name="uni037E" unicode="&#x37e;" horiz-adv-x="179" 
d="M131 260h-83v136h83v-136z" />
    <glyph glyph-name="dieresisacute" unicode="&#x385;" 
d="M364 636h-80v112h80v-112zM159 769h95l-99 -162h-79zM44 636h-80v112h80v-112z" />
    <glyph glyph-name="middot" unicode="&#x387;" horiz-adv-x="180" 
d="M132 286h-83v135h83v-135z" />
    <glyph glyph-name="uni03A9" unicode="&#x3a9;" horiz-adv-x="514" 
d="M476 350q0 -188 -117 -250v-29h116v-71h-189v142q105 34 105 208v117q0 109 -33.5 158.5t-100.5 49.5t-100.5 -49.5t-33.5 -158.5v-117q0 -174 104 -208v-142h-189v71h116v29q-117 63 -117 250v117q0 134 53.5 210t166.5 76q112 0 165.5 -76.5t53.5 -209.5v-117z" />
    <glyph glyph-name="uni03BC" unicode="&#x3bc;" horiz-adv-x="488" 
d="M196 -206h-166v71l42 4v605l-42 5v71h124v-376q0 -67 12 -89.5t52 -22.5q43 0 116 40v372l-42 5v71h125v-474l42 -5v-71h-125v37q-80 -47 -137 -47q-28 0 -43 7v-128l42 -4v-71z" />
    <glyph glyph-name="pi" unicode="&#x3c0;" horiz-adv-x="509" 
d="M474 -3q-24 -7 -57 -7q-55 0 -75 29t-20 90v362h-137v-471h-84v471h-71v79h445v-79h-70v-362q0 -30 6 -39.5t25 -9.5h38v-63z" />
    <glyph glyph-name="dieresisgrave" unicode="&#x1fed;" 
d="M364 636h-80v112h80v-112zM169 769l84 -162h-80l-99 162h95zM44 636h-80v112h80v-112z" />
    <glyph glyph-name="figuredash" unicode="&#x2012;" horiz-adv-x="646" 
d="M607 257h-570v72h570v-72z" />
    <glyph glyph-name="endash" unicode="&#x2013;" horiz-adv-x="354" 
d="M317 257h-280v72h280v-72z" />
    <glyph glyph-name="emdash" unicode="&#x2014;" horiz-adv-x="456" 
d="M419 257h-382v72h382v-72z" />
    <glyph glyph-name="threequartersemdash" unicode="&#x2015;" horiz-adv-x="809" 
d="M773 257h-736v72h736v-72z" />
    <glyph glyph-name="quoteleft" unicode="&#x2018;" horiz-adv-x="181" 
d="M151 767l-35 -226h-86l56 226h65z" />
    <glyph glyph-name="quoteright" unicode="&#x2019;" horiz-adv-x="181" 
d="M151 767l-56 -226h-65l35 226h86z" />
    <glyph glyph-name="quotesinglbase" unicode="&#x201a;" horiz-adv-x="181" 
d="M151 133l-56 -225h-65l35 225h86z" />
    <glyph glyph-name="quotedblleft" unicode="&#x201c;" horiz-adv-x="333" 
d="M303 767l-34 -226h-87l57 226h64zM152 767l-35 -226h-87l57 226h65z" />
    <glyph glyph-name="quotedblright" unicode="&#x201d;" horiz-adv-x="333" 
d="M303 767l-57 -226h-65l35 226h87zM151 767l-56 -226h-65l35 226h86z" />
    <glyph glyph-name="quotedblbase" unicode="&#x201e;" horiz-adv-x="333" 
d="M303 133l-57 -225h-65l35 225h87zM151 133h-86l-35 -225h65z" />
    <glyph glyph-name="dagger" unicode="&#x2020;" horiz-adv-x="388" 
d="M339 487h-107v-617h-82v617h-102v75h102v205h82v-205h107v-75z" />
    <glyph glyph-name="daggerdbl" unicode="&#x2021;" horiz-adv-x="388" 
d="M339 269h-107v-399h-82v399h-102v75h102v136h-102v75h102v211h82v-211h107v-75h-107v-136h107v-75z" />
    <glyph glyph-name="bullet" unicode="&#x2022;" horiz-adv-x="413" 
d="M359 368q0 -64 -44.5 -108t-108.5 -44q-63 0 -107.5 44.5t-44.5 107.5t45 107.5t107 44.5q64 0 108.5 -44.5t44.5 -107.5z" />
    <glyph glyph-name="onedotenleader" unicode="&#x2024;" horiz-adv-x="171" 
d="M127 0h-83v135h83v-135z" />
    <glyph glyph-name="twodotenleader" unicode="&#x2025;" horiz-adv-x="334" 
d="M290 0h-83v135h83v-135zM127 0v135h-83v-135h83z" />
    <glyph glyph-name="ellipsis" unicode="&#x2026;" horiz-adv-x="638" 
d="M586 0h-83v135h83v-135zM361 0v135h-83v-135h83zM134 0h-82v135h82v-135z" />
    <glyph glyph-name="perthousand" unicode="&#x2030;" horiz-adv-x="1199" 
d="M1160 182q0 -191 -145 -191t-145 191v82q0 189 145 189t145 -189v-82zM1085 182v82q0 69 -17 96t-53 27q-35 0 -52.5 -27t-17.5 -96v-82q0 -69 17.5 -96.5t52.5 -27.5q36 0 53 27.5t17 96.5zM817 182q0 -191 -144 -191q-146 0 -146 191v82q0 189 146 189q144 0 144 -189
v-82zM743 182v82q0 69 -17.5 96t-53.5 27q-35 0 -52 -27t-17 -96v-82q0 -69 17 -96.5t52 -27.5q36 0 53.5 27.5t17.5 96.5zM642 743l-352 -743h-78l352 743h78zM328 480q0 -91 -32 -140.5t-112 -49.5t-112.5 50.5t-32.5 139.5v82q0 90 32.5 140t112.5 50t112 -49.5
t32 -140.5v-82zM254 480v82q0 69 -16 96.5t-54 27.5t-54 -28t-16 -96v-82q0 -69 16 -96.5t54 -27.5t54 27.5t16 96.5z" />
    <glyph glyph-name="guilsinglleft" unicode="&#x2039;" horiz-adv-x="227" 
d="M202 70h-75l-102 206l102 206h75l-99 -206z" />
    <glyph glyph-name="guilsinglright" unicode="&#x203a;" horiz-adv-x="227" 
d="M202 276l-102 -206h-75l99 206l-99 206h75z" />
    <glyph glyph-name="exclamdbl" unicode="&#x203c;" horiz-adv-x="376" 
d="M316 0h-83v131h83v-131zM230 767h89l-7 -572h-74zM143 131v-131h-83v131h83zM146 767l-7 -572h-74l-8 572h89z" />
    <glyph glyph-name="overscore" unicode="&#x203e;" horiz-adv-x="401" 
d="M425 822h-449v56h449v-56z" />
    <glyph glyph-name="fraction" unicode="&#x2044;" horiz-adv-x="380" 
d="M405 743l-352 -743h-78l352 743h78z" />
    <glyph glyph-name="zero.superior" unicode="&#x2070;" horiz-adv-x="356" 
d="M327 480q0 -90 -34 -139.5t-115 -49.5q-150 0 -150 189v84q0 189 150 189q82 0 115.5 -49t33.5 -140v-84zM250 480v84q0 70 -17 98t-55 28q-39 0 -55.5 -28.5t-16.5 -97.5v-84q0 -70 16 -97t56 -27q38 0 55 27.5t17 96.5z" />
    <glyph glyph-name="i.superior" unicode="&#x2071;" horiz-adv-x="185" 
d="M157 303h-128v57l27 3v218l-27 3v56h101v-277l27 -3v-57zM131 695h-77v74h77v-74z" />
    <glyph glyph-name="four.superior" unicode="&#x2074;" horiz-adv-x="356" 
d="M333 411h-56v-59l28 -3v-49h-133v49l28 3v59h-180v65l184 270h73v-276h56v-59zM202 470v174l-116 -174h116z" />
    <glyph glyph-name="five.superior" unicode="&#x2075;" horiz-adv-x="350" 
d="M310 426q0 -72 -39.5 -103.5t-114.5 -31.5q-46 0 -116 15v91h50l6 -43q32 -2 51 -2q47 0 66 15.5t19 58.5v17q0 40 -17.5 55t-69.5 15h-100l18 233h233v-95h-51l-5 33h-113l-8 -112h39q84 0 118 -31t34 -98v-17z" />
    <glyph glyph-name="six.superior" unicode="&#x2076;" horiz-adv-x="352" 
d="M322 432q0 -78 -42.5 -109.5t-102.5 -31.5q-72 0 -110.5 36t-38.5 132v127q0 86 34 126.5t123 40.5q68 0 118 -14v-88h-51l-6 40q-32 2 -54 2q-56 0 -71.5 -23t-15.5 -79v-21q35 10 79 10q65 0 101.5 -26t36.5 -94v-28zM244 432v25q0 41 -15.5 55t-52.5 14q-38 0 -71 -8
v-65q0 -57 17.5 -80t55.5 -23q31 0 48.5 21t17.5 61z" />
    <glyph glyph-name="seven.superior" unicode="&#x2077;" horiz-adv-x="353" 
d="M311 675l-166 -375h-83l175 384h-139l-5 -33h-51v95h269v-71z" />
    <glyph glyph-name="eight.superior" unicode="&#x2078;" horiz-adv-x="356" 
d="M327 427q0 -37 -9 -63t-22 -40t-35 -21.5t-40 -9.5t-44 -2h-2q-26 0 -44 2t-40 9.5t-35 21.5t-22 40t-9 63v5q0 66 45 99q-43 30 -43 94v7q0 69 40 95t108 26h2q69 0 109 -26t40 -95v-7q0 -63 -44 -94q45 -31 45 -99v-5zM250 427v5q0 39 -10.5 55t-37.5 16h-51
q-28 0 -38.5 -16t-10.5 -55v-5q0 -47 17.5 -62t55.5 -15h2q38 0 55.5 15t17.5 62zM249 624v6q0 38 -17.5 51.5t-54.5 13.5h-2q-37 0 -55 -13.5t-18 -51.5v-6q0 -65 49 -65h51q47 0 47 65z" />
    <glyph glyph-name="nine.superior" unicode="&#x2079;" horiz-adv-x="352" 
d="M322 460q0 -86 -34 -127t-123 -41q-56 0 -119 14v89h52l6 -41q32 -2 54 -2q55 0 71 23.5t16 78.5v22q-35 -10 -79 -10q-66 0 -102 25.5t-36 93.5v28q0 78 42 109t103 31q73 0 111 -35t38 -132v-126zM245 528v65q0 57 -17.5 79.5t-55.5 22.5q-66 0 -66 -82v-25
q0 -40 15.5 -54.5t51.5 -14.5q35 0 72 9z" />
    <glyph glyph-name="parenleft.superior" unicode="&#x207d;" horiz-adv-x="219" 
d="M193 226h-75q-74 116 -74 261v4q0 146 74 262h75q-71 -118 -71 -262v-4q0 -143 71 -261z" />
    <glyph glyph-name="parenright.superior" unicode="&#x207e;" horiz-adv-x="219" 
d="M177 487q0 -144 -75 -261h-75q71 118 71 261v4q0 144 -71 262h75q75 -117 75 -262v-4z" />
    <glyph glyph-name="n.superior" unicode="&#x207f;" horiz-adv-x="375" 
d="M347 303h-102v219q0 37 -8.5 51t-32.5 14q-29 0 -73 -22v-202l27 -3v-57h-129v57l27 3v218l-27 3v56h101v-20q47 27 93 27q58 0 77.5 -32t19.5 -91v-161l27 -3v-57z" />
    <glyph glyph-name="zero.inferior" unicode="&#x2080;" horiz-adv-x="356" 
d="M326 180q0 -189 -150 -189t-150 189v85q0 188 150 188t150 -188v-85zM248 180v85q0 69 -18 96.5t-54 27.5q-37 0 -54.5 -27.5t-17.5 -96.5v-85q0 -69 17.5 -96.5t54.5 -27.5q36 0 54 27.5t18 96.5z" />
    <glyph glyph-name="one.inferior" unicode="&#x2081;" horiz-adv-x="338" 
d="M294 0h-244v57l83 3v309l-83 -30v68l103 40h57v-387l84 -3v-57z" />
    <glyph glyph-name="two.inferior" unicode="&#x2082;" horiz-adv-x="352" 
d="M304 0h-264v57q0 72 26 110.5t91 81.5q49 32 62 49t13 43q0 30 -17.5 41t-62.5 11q-15 0 -51 -2l-6 -40h-51v88q56 14 119 14q76 0 111.5 -26.5t35.5 -83.5q0 -40 -21.5 -71t-81.5 -70q-58 -38 -74.5 -62t-16.5 -70v-8h130l6 37h52v-99z" />
    <glyph glyph-name="three.inferior" unicode="&#x2083;" horiz-adv-x="352" 
d="M308 120q0 -70 -37 -99.5t-114 -29.5q-65 0 -116 17v89h51l6 -43q32 -2 53 -2q43 0 61 14t18 56v15q0 33 -12 48.5t-50 15.5h-108v57h109q37 0 49 16t12 48v8q0 38 -16.5 50.5t-63.5 12.5q-19 0 -51 -2l-6 -40h-51v88q45 14 115 14q77 0 114 -27t37 -93v-8q0 -67 -49 -96
q49 -27 49 -95v-14z" />
    <glyph glyph-name="four.inferior" unicode="&#x2084;" horiz-adv-x="356" 
d="M333 111h-56v-59l28 -3v-49h-133v49l28 3v59h-180v65l184 270h73v-276h56v-59zM202 170v174l-116 -174h116z" />
    <glyph glyph-name="five.inferior" unicode="&#x2085;" horiz-adv-x="350" 
d="M310 126q0 -72 -39.5 -103.5t-114.5 -31.5q-46 0 -116 15v91h50l6 -43q32 -2 51 -2q47 0 66 15.5t19 58.5v17q0 40 -17.5 55t-69.5 15h-100l18 233h233v-95h-51l-5 33h-113l-8 -112h39q84 0 118 -31t34 -98v-17z" />
    <glyph glyph-name="six.inferior" unicode="&#x2086;" horiz-adv-x="352" 
d="M322 132q0 -78 -42.5 -109.5t-102.5 -31.5q-72 0 -110.5 36t-38.5 132v127q0 86 34 126.5t123 40.5q68 0 118 -14v-88h-51l-6 40q-32 2 -54 2q-56 0 -71.5 -23t-15.5 -79v-21q35 10 79 10q65 0 101.5 -26t36.5 -94v-28zM244 132v25q0 41 -15.5 55t-52.5 14q-38 0 -71 -8
v-65q0 -57 17.5 -80t55.5 -23q31 0 48.5 21t17.5 61z" />
    <glyph glyph-name="seven.inferior" unicode="&#x2087;" horiz-adv-x="353" 
d="M311 375l-166 -375h-83l175 384h-139l-5 -33h-51v95h269v-71z" />
    <glyph glyph-name="eight.inferior" unicode="&#x2088;" horiz-adv-x="356" 
d="M327 127q0 -37 -9 -63t-22 -40t-35 -21.5t-40 -9.5t-44 -2h-2q-26 0 -44 2t-40 9.5t-35 21.5t-22 40t-9 63v5q0 66 45 99q-43 30 -43 94v7q0 69 40 95t108 26h2q69 0 109 -26t40 -95v-7q0 -63 -44 -94q45 -31 45 -99v-5zM250 127v5q0 39 -10.5 55t-37.5 16h-51
q-28 0 -38.5 -16t-10.5 -55v-5q0 -47 17.5 -62t55.5 -15h2q38 0 55.5 15t17.5 62zM249 324v6q0 38 -17.5 51.5t-54.5 13.5h-2q-37 0 -55 -13.5t-18 -51.5v-6q0 -65 49 -65h51q47 0 47 65z" />
    <glyph glyph-name="nine.inferior" unicode="&#x2089;" horiz-adv-x="352" 
d="M322 160q0 -86 -34 -127t-123 -41q-56 0 -119 14v89h52l6 -41q32 -2 54 -2q55 0 71 23.5t16 78.5v22q-35 -10 -79 -10q-66 0 -102 25.5t-36 93.5v28q0 78 42 109t103 31q73 0 111 -35t38 -132v-126zM245 228v65q0 57 -17.5 79.5t-55.5 22.5q-66 0 -66 -82v-25
q0 -40 15.5 -54.5t51.5 -14.5q35 0 72 9z" />
    <glyph glyph-name="parenleft.inferior" unicode="&#x208d;" horiz-adv-x="219" 
d="M193 -78h-75q-74 116 -74 261v5q0 144 74 262h75q-71 -120 -71 -262v-5q0 -141 71 -261z" />
    <glyph glyph-name="parenright.inferior" unicode="&#x208e;" horiz-adv-x="219" 
d="M177 183q0 -144 -75 -261h-75q71 120 71 261v5q0 142 -71 262h75q75 -120 75 -262v-5z" />
    <glyph glyph-name="colonmonetary" unicode="&#x20a1;" horiz-adv-x="352" 
d="M332 9q-15 -6 -39 -11v-97h-64v89h-16q-16 0 -36 2v-91h-64v114q-76 48 -76 199v123q0 149 76 198v115h64v-92q20 2 36 2h16v90h64v-98q29 -5 39 -11v-108h-63l-10 52q-11 1 -36 1q-55 0 -79 -30t-24 -119v-123q0 -89 24 -119.5t79 -30.5q39 0 109 9v-64z" />
    <glyph glyph-name="franc" unicode="&#x20a3;" horiz-adv-x="434" 
d="M389 346h-241v-103h147v-80h-147v-163h-85v163h-42v80h42v424l-42 5v71h383v-134h-65l-10 57h-181v-240h241v-80z" />
    <glyph glyph-name="lira" unicode="&#x20a4;" horiz-adv-x="464" 
d="M421 0h-360v69q36 41 36 126v45h-62v69h62v79h-62v69h62v55q0 131 36.5 186t142.5 55q75 0 145 -21v-123h-65l-11 64q-16 2 -60 2q-67 0 -84.5 -30.5t-17.5 -132.5v-55h183v-69h-183v-79h183v-69h-183v-45q0 -70 -33 -121h271v-74z" />
    <glyph glyph-name="peseta" unicode="&#x20a7;" horiz-adv-x="497" 
d="M493 485h-44q-8 -109 -68 -150.5t-169 -41.5h-59v-217l49 -5v-71h-176v71l42 5v409h-48v75h48v107l-42 5v71h186q108 0 167.5 -39t68.5 -144h45v-75zM365 512v17q-1 82 -35 109.5t-118 27.5h-59v-295h59q83 0 118 29t35 112z" />
    <glyph glyph-name="Euro" unicode="&#x20ac;" horiz-adv-x="496" 
d="M455 8q-62 -18 -135 -18q-35 0 -61 4.5t-56.5 20.5t-51 44t-36.5 78.5t-20 120.5h-59v67h55q-2 47 0 95h-55v67h58q4 69 19.5 119.5t36 78t51.5 43.5t57.5 20.5t61.5 4.5q77 0 136 -19v-120h-65l-11 59q-34 2 -52 2q-34 0 -54.5 -5t-42 -22.5t-33.5 -57t-16 -103.5h243
l-13 -67h-235q-2 -53 1 -95h211l-13 -67h-193q5 -65 17 -105.5t33.5 -58t41.5 -22.5t53 -5q32 0 127 11v-70z" />
    <glyph glyph-name="litre" unicode="&#x2113;" horiz-adv-x="420" 
d="M385 42q-65 -60 -130 -60q-125 0 -125 149v108q-38 -36 -58 -55l-37 46q17 16 48 47t47 46v275q0 91 29.5 134t96.5 43q62 0 90.5 -36t28.5 -92q0 -83 -41 -159.5t-121 -164.5v-179q0 -52 12 -72t45 -20q35 0 76 36zM311 647q0 64 -46 64q-34 0 -43 -24.5t-9 -88.5v-184
q98 121 98 233z" />
    <glyph glyph-name="afii61352" unicode="&#x2116;" horiz-adv-x="906" 
d="M876 177h-319v69h319v-69zM876 515q0 -103 -35 -162.5t-124 -59.5t-124.5 59.5t-35.5 162.5v16q0 103 35.5 162.5t124.5 59.5t124 -59.5t35 -162.5v-16zM803 515v16q0 80 -18 118.5t-68 38.5t-68 -38.5t-18 -118.5v-16q0 -80 18 -118.5t68 -38.5t68 38.5t18 118.5z
M373 743h164v-71l-42 -5v-667h-116l-193 541q-31 84 -40 113h-2q8 -80 8 -147v-431l42 -5v-71h-164v71l42 5v591l-42 5v71h162l188 -518q5 -13 19.5 -52.5t21.5 -61.5h2q-8 80 -8 152v404l-42 5v71z" />
    <glyph glyph-name="trademark" unicode="&#x2122;" horiz-adv-x="690" 
d="M546 412l25 3v165q0 26 4 76h-1q-14 -39 -24 -61l-42 -90h-53l-41 90q-20 44 -24 61h-1q3 -37 3 -76v-165l25 -3v-52h-114v52l25 3v272l-25 3v53h105l57 -133q6 -13 16 -46h1q10 33 16 46l58 133h104v-53l-24 -3v-272l24 -3v-52h-114v52zM277 660h-42l-6 29h-44v-274
l24 -3v-52h-114v52l24 3v274h-44l-6 -29h-42v83h250v-83z" />
    <glyph glyph-name="Omega" unicode="&#x2126;" horiz-adv-x="514" 
d="M476 350q0 -188 -117 -250v-29h116v-71h-189v142q105 34 105 208v117q0 109 -33.5 158.5t-100.5 49.5t-100.5 -49.5t-33.5 -158.5v-117q0 -174 104 -208v-142h-189v71h116v29q-117 63 -117 250v117q0 134 53.5 210t166.5 76q112 0 165.5 -76.5t53.5 -209.5v-117z" />
    <glyph glyph-name="estimated" unicode="&#x212e;" horiz-adv-x="618" 
d="M583 282h-429v-193q66 -63 152 -63q76 0 123 33t87 94l31 -19q-44 -68 -99 -104.5t-142 -36.5q-119 0 -195 84.5t-76 205.5q0 123 75 206.5t200 83.5q124 0 198.5 -84.5t74.5 -206.5zM463 315v163q-68 62 -153 62q-96 0 -156 -62v-163h309z" />
    <glyph glyph-name="onethird" unicode="&#x2153;" horiz-adv-x="826" 
d="M789 120q0 -70 -37 -99.5t-113 -29.5q-66 0 -117 17v89h52l6 -43q32 -2 52 -2q43 0 61.5 14t18.5 56v15q0 33 -12.5 48.5t-49.5 15.5h-109v57h109q37 0 49.5 16t12.5 48v8q0 38 -17 50.5t-64 12.5q-19 0 -51 -2l-6 -40h-51v88q49 14 116 14q77 0 113.5 -27t36.5 -93v-8
q0 -67 -49 -96q49 -27 49 -95v-14zM610 743l-352 -743h-78l352 743h78zM283 300h-244v57l84 3v309l-84 -30v68l104 40h57v-387l83 -3v-57z" />
    <glyph glyph-name="twothirds" unicode="&#x2154;" horiz-adv-x="860" 
d="M823 120q0 -70 -37 -99.5t-114 -29.5q-65 0 -116 17v89h51l6 -43q32 -2 53 -2q43 0 61 14t18 56v15q0 33 -12 48.5t-50 15.5h-108v57h109q37 0 49 16t12 48v8q0 38 -16.5 50.5t-63.5 12.5q-19 0 -51 -2l-6 -40h-51v88q46 14 115 14q77 0 114 -27t37 -93v-8q0 -67 -49 -96
q49 -27 49 -95v-14zM636 743l-351 -743h-78l351 743h78zM300 301h-263v57q0 72 24.5 110t92.5 81q48 31 61.5 48.5t13.5 43.5q0 30 -18 41.5t-63 11.5q-16 0 -50 -2l-6 -40h-52v88q56 14 119 14q76 0 111.5 -26.5t35.5 -83.5q0 -41 -21.5 -71t-80.5 -70q-59 -39 -75.5 -62.5
t-16.5 -69.5v-8h131l6 37h51v-99z" />
    <glyph glyph-name="oneeighth" unicode="&#x215b;" horiz-adv-x="835" 
d="M798 127q0 -37 -9 -63t-22 -40t-35 -21.5t-39.5 -9.5t-43.5 -2h-3q-26 0 -43.5 2t-39.5 9.5t-35 21.5t-22 40t-9 63v5q0 67 44 99q-43 30 -43 94v7q0 69 40 95t108 26h3q68 0 108 -26t40 -95v-7q0 -63 -44 -94q45 -31 45 -99v-5zM721 127v5q0 39 -10.5 55t-37.5 16h-51
q-28 0 -38.5 -16t-10.5 -55v-5q0 -47 17.5 -62t55.5 -15h3q37 0 54.5 15t17.5 62zM721 324v6q0 38 -18 51.5t-54 13.5h-3q-36 0 -54 -13.5t-18 -51.5v-6q0 -32 10.5 -48.5t37.5 -16.5h51q48 0 48 65zM610 743l-352 -743h-78l352 743h78zM283 300h-244v57l84 3v309l-84 -30
v68l104 40h57v-387l83 -3v-57z" />
    <glyph glyph-name="threeeighths" unicode="&#x215c;" horiz-adv-x="853" 
d="M815 127q0 -37 -9 -63t-22 -40t-35 -21.5t-40 -9.5t-44 -2h-2q-26 0 -44 2t-40 9.5t-35 21.5t-22 40t-9 63v5q0 68 45 99q-44 31 -44 94v7q0 69 40 95t109 26h2q69 0 109 -26t40 -95v-7q0 -62 -45 -94q46 -31 46 -99v-5zM738 127v5q0 39 -11 55t-38 16h-50
q-28 0 -38.5 -16t-10.5 -55v-5q0 -47 17.5 -62t55.5 -15h2q38 0 55.5 15t17.5 62zM737 324v6q0 38 -18 51.5t-54 13.5h-2q-37 0 -55 -13.5t-18 -51.5v-6q0 -65 49 -65h50q48 0 48 65zM623 743l-352 -743h-78l352 743h78zM302 421q0 -70 -37 -99.5t-114 -29.5q-65 0 -116 17
v89h51l6 -43q32 -2 53 -2q43 0 61 13.5t18 56.5v14q0 33 -12 48.5t-50 15.5h-108v58h109q37 0 49 15.5t12 48.5v8q0 37 -17 50t-63 13q-19 0 -51 -2l-6 -40h-51v88q45 14 115 14q77 0 114 -27t37 -93v-8q0 -69 -49 -96q49 -27 49 -95v-14z" />
    <glyph glyph-name="fiveeighths" unicode="&#x215d;" horiz-adv-x="851" 
d="M815 127q0 -37 -9 -63t-22 -40t-35 -21.5t-40 -9.5t-44 -2h-2q-26 0 -44 2t-40 9.5t-35 21.5t-22 40t-9 63v5q0 68 45 99q-44 31 -44 94v7q0 69 40 95t109 26h2q68 0 108 -26t40 -95v-7q0 -63 -44 -94q46 -32 46 -99v-5zM738 127v5q0 39 -11 55t-38 16h-51q-27 0 -38 -16
t-11 -55v-5q0 -47 17.5 -62t56.5 -15h2q38 0 55.5 15t17.5 62zM737 324v6q0 38 -18 51.5t-54 13.5h-2q-37 0 -55 -13.5t-18 -51.5v-6q0 -65 48 -65h51q48 0 48 65zM621 743l-351 -743h-78l351 743h78zM306 426q0 -72 -39 -103.5t-114 -31.5q-61 0 -117 15v91h51l6 -43
q32 -2 50 -2q48 0 66.5 15.5t18.5 58.5v17q0 40 -17.5 55t-68.5 15h-101l18 233h234v-95h-51l-5 33h-114l-8 -112h39q84 0 118 -31t34 -98v-17z" />
    <glyph glyph-name="seveneighths" unicode="&#x215e;" horiz-adv-x="776" 
d="M738 127q0 -37 -9 -63t-22 -40t-35 -21.5t-40 -9.5t-44 -2h-2q-26 0 -44 2t-40 9.5t-35 21.5t-22 40t-9 63v5q0 66 45 99q-43 30 -43 94v7q0 69 40 95t108 26h2q69 0 109 -26t40 -95v-7q0 -63 -44 -94q45 -31 45 -99v-5zM661 127v5q0 39 -10.5 55t-37.5 16h-51
q-28 0 -38.5 -16t-10.5 -55v-5q0 -47 17.5 -62t55.5 -15h2q38 0 55.5 15t17.5 62zM660 324v6q0 38 -17.5 51.5t-54.5 13.5h-2q-37 0 -55 -13.5t-18 -51.5v-6q0 -65 49 -65h51q47 0 47 65zM546 743l-352 -743h-78l352 743h78zM304 675l-166 -375h-83l175 384h-139l-5 -33h-51
v95h269v-71z" />
    <glyph glyph-name="partialdiff" unicode="&#x2202;" horiz-adv-x="477" 
d="M435 508q0 -104 -23 -252q-22 -144 -70.5 -205t-144.5 -61q-74 0 -114.5 40t-40.5 122q0 38 11 119q27 219 201 219q58 0 99 -31q1 12 1 51q0 42 -6 74t-22 62t-47.5 46.5t-78.5 16.5q-38 0 -81 -8v67q39 9 89 9q118 0 172.5 -71.5t54.5 -197.5zM337 328q0 45 -20 66
t-63 21q-103 0 -119 -156q-12 -102 -12 -107q0 -46 20 -66.5t63 -20.5q56 0 83 42.5t42 149.5q6 40 6 71z" />
    <glyph glyph-name="Delta" unicode="&#x2206;" horiz-adv-x="507" 
d="M489 0h-472l176 743h120zM382 79l-104 454q-4 16 -24 141h-2q-2 -14 -6 -41.5t-8 -51.5t-9 -48l-104 -454h257z" />
    <glyph glyph-name="product" unicode="&#x220f;" horiz-adv-x="584" 
d="M553 663h-71v-706h-84v706h-212v-706h-85v706h-71v80h523v-80z" />
    <glyph glyph-name="summation" unicode="&#x2211;" horiz-adv-x="443" 
d="M393 -43h-342v80l168 307l-168 320v79h342v-79h-246l155 -296v-52l-155 -279h246v-80z" />
    <glyph glyph-name="minus" unicode="&#x2212;" horiz-adv-x="513" 
d="M441 356h-369v70h369v-70z" />
    <glyph glyph-name="uni2215" unicode="&#x2215;" horiz-adv-x="380" 
d="M405 743l-352 -743h-78l352 743h78z" />
    <glyph glyph-name="uni2219" unicode="&#x2219;" horiz-adv-x="179" 
d="M131 260h-83v136h83v-136z" />
    <glyph glyph-name="radical" unicode="&#x221a;" horiz-adv-x="686" 
d="M654 873l-264 -947h-109l-133 482h-115v71h173l130 -489l238 883h80z" />
    <glyph glyph-name="infinity" unicode="&#x221e;" horiz-adv-x="641" 
d="M553 361q0 -217 -136 -217h-6q-59 0 -99 48q-31 -49 -89 -49h-7q-136 0 -136 217v24q0 217 136 217h7q57 0 97 -48q29 50 91 50h6q136 0 136 -218v-24zM480 361v24q0 31 -1.5 52t-7.5 45t-19.5 36t-34.5 12h-6q-11 0 -19.5 -4.5t-14.5 -16t-9.5 -21.5t-7 -32.5t-5 -37.5
t-4.5 -47q-8 -83 -15 -117q33 -39 75 -39h6q21 0 34.5 12.5t19 36t7.5 45t2 52.5zM298 489q-33 41 -75 41h-7q-21 0 -34.5 -12.5t-19 -36t-7.5 -45t-2 -52.5v-24q0 -31 2 -52.5t7.5 -45t19 -35.5t34.5 -12h7q28 0 39.5 35.5t20.5 128.5q5 64 15 110z" />
    <glyph glyph-name="integral" unicode="&#x222b;" horiz-adv-x="388" 
d="M349 693q-30 3 -66 3q-31 0 -39 -14t-8 -63v-679q0 -75 -23.5 -110.5t-90.5 -35.5q-50 0 -83 14v57q30 -3 66 -3q32 0 40 14t8 64v679q0 74 23.5 109.5t90.5 35.5q49 0 82 -14v-57z" />
    <glyph glyph-name="approxequal" unicode="&#x2248;" horiz-adv-x="513" 
d="M450 546q0 -56 -20.5 -87.5t-73.5 -31.5q-62 0 -102 49l-36 44q-25 32 -46 32t-27.5 -12.5t-6.5 -40.5v-68h-68v68q0 119 102 119q52 0 94 -50l35 -43q26 -32 51 -32q19 0 24.5 12t5.5 40v68h68v-67zM450 275q0 -56 -20.5 -87.5t-73.5 -31.5q-62 0 -102 49l-36 44
q-25 32 -46 32t-27.5 -12.5t-6.5 -40.5v-68h-68v68q0 119 102 119q52 0 94 -50l35 -43q26 -32 51 -32q19 0 24.5 12t5.5 40v68h68v-67z" />
    <glyph glyph-name="notequal" unicode="&#x2260;" horiz-adv-x="513" 
d="M437 245h-185l-71 -245h-71l71 245h-98v71h120l43 151h-163v71h185l60 205h71l-61 -205h99v-71h-120l-43 -151h163v-71z" />
    <glyph glyph-name="lessequal" unicode="&#x2264;" horiz-adv-x="513" 
d="M455 0h-398v70h398v-70zM392 140h-102l-218 251l218 250h102l-218 -250z" />
    <glyph glyph-name="greaterequal" unicode="&#x2265;" horiz-adv-x="513" 
d="M455 0h-398v70h398v-70zM440 391l-218 -251h-101l217 251l-217 250h101z" />
    <glyph glyph-name="lozenge" unicode="&#x25ca;" horiz-adv-x="513" 
d="M470 358l-214 -295l-213 294l215 301zM383 358l-125 175l-127 -176l125 -172z" />
    <glyph glyph-name="A.sc" unicode="&#xe000;" horiz-adv-x="453" 
d="M167 0h-145v61l31 4l98 421l-31 3v63h164l114 -487l32 -4v-61h-144v60l30 3l-24 108h-131l-24 -108l30 -3v-60zM278 240l-34 150q-5 21 -10.5 58.5t-5.5 39.5h-4q0 -2 -5.5 -39t-10.5 -59l-34 -150h104z" />
    <glyph glyph-name="AE.sc" unicode="&#xe001;" horiz-adv-x="589" 
d="M553 552v-109h-56l-8 40h-127v-163h182v-69h-182v-182h127l8 41h56v-110h-302v64l31 3v103h-121l-38 -170h-100v61l30 4l99 421l-32 3v63h433zM282 485h-55q-13 -70 -16 -81l-37 -166h108v247z" />
    <glyph glyph-name="Aacute.sc" unicode="&#xe002;" horiz-adv-x="453" 
d="M167 0h-145v61l31 4l98 421l-31 3v63h164l114 -487l32 -4v-61h-144v60l30 3l-24 108h-131l-24 -108l30 -3v-60zM278 240l-34 150q-5 21 -10.5 58.5t-5.5 39.5h-4q0 -2 -5.5 -39t-10.5 -59l-34 -150h104zM360 760l-111 -153h-79l96 153h94z" />
    <glyph glyph-name="Acircumflex.sc" unicode="&#xe003;" horiz-adv-x="453" 
d="M167 0h-145v61l31 4l98 421l-31 3v63h164l114 -487l32 -4v-61h-144v60l30 3l-24 108h-131l-24 -108l30 -3v-60zM278 240l-34 150q-5 21 -10.5 58.5t-5.5 39.5h-4q0 -2 -5.5 -39t-10.5 -59l-34 -150h104zM383 607h-77l-80 106l-79 -106h-78l101 153h113z" />
    <glyph glyph-name="Adieresis.sc" unicode="&#xe004;" horiz-adv-x="453" 
d="M167 0h-145v61l31 4l98 421l-31 3v63h164l114 -487l32 -4v-61h-144v60l30 3l-24 108h-131l-24 -108l30 -3v-60zM278 240l-34 150q-5 21 -10.5 58.5t-5.5 39.5h-4q0 -2 -5.5 -39t-10.5 -59l-34 -150h104zM356 630h-80v112h80v-112zM177 630v112h-80v-112h80z" />
    <glyph glyph-name="Agrave.sc" unicode="&#xe005;" horiz-adv-x="453" 
d="M167 0h-145v61l31 4l98 421l-31 3v63h164l114 -487l32 -4v-61h-144v60l30 3l-24 108h-131l-24 -108l30 -3v-60zM278 240l-34 150q-5 21 -10.5 58.5t-5.5 39.5h-4q0 -2 -5.5 -39t-10.5 -59l-34 -150h104zM274 607h-80l-111 153h95z" />
    <glyph glyph-name="Aring.sc" unicode="&#xe006;" horiz-adv-x="453" 
d="M167 0h-145v61l31 4l98 421l-31 3v63h164l114 -487l32 -4v-61h-144v60l30 3l-24 108h-131l-24 -108l30 -3v-60zM278 240l-34 150q-5 21 -10.5 58.5t-5.5 39.5h-4q0 -2 -5.5 -39t-10.5 -59l-34 -150h104zM325 711q0 -57 -28 -83.5t-76 -26.5t-76.5 27t-28.5 83
q0 57 28.5 84t76.5 27t76 -27t28 -84zM266 711q0 58 -45 58t-45 -58q0 -57 45 -57t45 57z" />
    <glyph glyph-name="Atilde.sc" unicode="&#xe007;" horiz-adv-x="453" 
d="M167 0h-145v61l31 4l98 421l-31 3v63h164l114 -487l32 -4v-61h-144v60l30 3l-24 108h-131l-24 -108l30 -3v-60zM278 240l-34 150q-5 21 -10.5 58.5t-5.5 39.5h-4q0 -2 -5.5 -39t-10.5 -59l-34 -150h104zM388 714q0 -110 -87 -110q-56 0 -92 46l-22 27q-24 30 -45 30
q-27 0 -27 -49v-49h-61v49q0 110 88 110q53 0 92 -48l21 -26q23 -28 45 -28q27 0 27 48v50h61v-50z" />
    <glyph glyph-name="B.sc" unicode="&#xe008;" horiz-adv-x="412" 
d="M381 155q0 -90 -48 -123t-140 -33q-105 0 -162 1v62l31 4v419l-31 4v63q56 1 163 1q92 0 138 -30t46 -113v-9q0 -85 -59 -117q62 -30 62 -118v-11zM302 155v11q0 44 -18.5 66t-65.5 22h-76v-188h53q56 0 81.5 18t25.5 71zM300 399v10q0 48 -24 62.5t-79 14.5h-55v-169h76
q47 0 64.5 20.5t17.5 61.5z" />
    <glyph glyph-name="C.sc" unicode="&#xe009;" horiz-adv-x="360" 
d="M324 5q-50 -14 -107 -14q-43 0 -73 8.5t-56.5 31.5t-40 69t-13.5 115v121q0 69 13.5 115t40 69t56.5 31.5t73 8.5q44 0 107 -14v-103h-56l-8 44q-26 2 -39 2q-57 0 -82 -30.5t-25 -122.5v-121q0 -91 25 -122t82 -31q13 0 39 2l8 46h56v-105z" />
    <glyph glyph-name="Ccedilla.sc" unicode="&#xe00a;" horiz-adv-x="360" 
d="M324 5q-50 -14 -107 -14q-43 0 -73 8.5t-56.5 31.5t-40 69t-13.5 115v121q0 69 13.5 115t40 69t56.5 31.5t73 8.5q44 0 107 -14v-103h-56l-8 44q-26 2 -39 2q-57 0 -82 -30.5t-25 -122.5v-121q0 -91 25 -122t82 -31q13 0 39 2l8 46h56v-105zM253 -62l-105 -144h-77
l87 144h95z" />
    <glyph glyph-name="D.sc" unicode="&#xe00b;" horiz-adv-x="426" 
d="M392 219q0 -106 -44 -163.5t-158 -57.5q-107 0 -159 2v63l31 5v416l-31 4v64q52 1 159 1q114 0 158 -55t44 -162v-117zM311 219v117q0 83 -26 114t-93 31h-50v-412h50q68 0 93.5 33.5t25.5 116.5z" />
    <glyph glyph-name="Eth.sc" unicode="&#xe00c;" horiz-adv-x="426" 
d="M391 219q0 -107 -44.5 -163.5t-156.5 -56.5q-108 0 -160 1v63l31 5v180h-40v72h40v164l-31 4v64q52 1 160 1q111 0 156 -55.5t45 -161.5v-117zM310 219v117q0 82 -26.5 113.5t-95.5 31.5h-47v-161h77v-72h-77v-179h50q67 0 93 33.5t26 116.5z" />
    <glyph glyph-name="E.sc" unicode="&#xe00d;" horiz-adv-x="370" 
d="M333 0h-302v61l31 4v421l-31 4v62h302v-109h-56l-7 40h-128v-163h180v-69h-180v-182h128l7 41h56v-110z" />
    <glyph glyph-name="Eacute.sc" unicode="&#xe00e;" horiz-adv-x="370" 
d="M333 0h-302v61l31 4v421l-31 4v62h302v-109h-56l-7 40h-128v-163h180v-69h-180v-182h128l7 41h56v-110zM324 760l-111 -153h-79l96 153h94z" />
    <glyph glyph-name="Ecircumflex.sc" unicode="&#xe00f;" horiz-adv-x="370" 
d="M333 0h-302v61l31 4v421l-31 4v62h302v-109h-56l-7 40h-128v-163h180v-69h-180v-182h128l7 41h56v-110zM342 607h-77l-80 106l-79 -106h-78l101 153h113z" />
    <glyph glyph-name="Edieresis.sc" unicode="&#xe010;" horiz-adv-x="370" 
d="M333 0h-302v61l31 4v421l-31 4v62h302v-109h-56l-7 40h-128v-163h180v-69h-180v-182h128l7 41h56v-110zM322 630h-80v112h80v-112zM143 630v112h-80v-112h80z" />
    <glyph glyph-name="Egrave.sc" unicode="&#xe011;" horiz-adv-x="370" 
d="M333 0h-302v61l31 4v421l-31 4v62h302v-109h-56l-7 40h-128v-163h180v-69h-180v-182h128l7 41h56v-110zM242 607h-80l-111 153h95z" />
    <glyph glyph-name="F.sc" unicode="&#xe012;" horiz-adv-x="362" 
d="M324 251h-182v-186l31 -4v-61h-142v61l31 4v421l-31 4v62h303v-109h-57l-7 39h-128v-162h182v-69z" />
    <glyph glyph-name="G.sc" unicode="&#xe013;" horiz-adv-x="387" 
d="M351 7q-67 -16 -136 -16q-85 0 -133 47t-48 174v128q0 69 15 115t43.5 67.5t58 29.5t69.5 8q82 0 129 -17v-100h-56l-8 42q-48 3 -54 3q-31 0 -49.5 -4t-35.5 -18.5t-24.5 -45t-7.5 -80.5v-128q0 -91 25 -119.5t84 -28.5q33 0 49 2v158l-56 5v58h135v-280z" />
    <glyph glyph-name="H.sc" unicode="&#xe014;" horiz-adv-x="474" 
d="M297 552h146v-64l-31 -4v-417l31 -3v-64h-146v64l31 3v186h-182v-186l31 -3v-64h-146v64l31 3v417l-31 4v64h146v-64l-31 -3v-159h182v159l-31 3v64z" />
    <glyph glyph-name="I.sc" unicode="&#xe015;" horiz-adv-x="206" 
d="M174 0h-143v61l32 4v421l-32 4v62h143v-62l-31 -4v-421l31 -4v-61z" />
    <glyph glyph-name="Iacute.sc" unicode="&#xe016;" horiz-adv-x="206" 
d="M174 0h-143v61l32 4v421l-32 4v62h143v-62l-31 -4v-421l31 -4v-61zM239 760l-111 -153h-79l96 153h94z" />
    <glyph glyph-name="Icircumflex.sc" unicode="&#xe017;" horiz-adv-x="206" 
d="M174 0h-143v61l32 4v421l-32 4v62h143v-62l-31 -4v-421l31 -4v-61zM260 607h-77l-80 106l-79 -106h-78l101 153h113z" />
    <glyph glyph-name="Idieresis.sc" unicode="&#xe018;" horiz-adv-x="206" 
d="M174 0h-143v61l32 4v421l-32 4v62h143v-62l-31 -4v-421l31 -4v-61zM232 630h-80v112h80v-112zM53 630v112h-80v-112h80z" />
    <glyph glyph-name="Igrave.sc" unicode="&#xe019;" horiz-adv-x="206" 
d="M174 0h-143v61l32 4v421l-32 4v62h143v-62l-31 -4v-421l31 -4v-61zM162 607h-80l-111 153h95z" />
    <glyph glyph-name="J.sc" unicode="&#xe01a;" horiz-adv-x="205" 
d="M174 490l-31 -4v-540q0 -57 -23.5 -81t-76.5 -24q-32 0 -55 7v57h42q21 0 27 8.5t6 32.5v540l-31 4v62h142v-62z" />
    <glyph glyph-name="K.sc" unicode="&#xe01b;" horiz-adv-x="418" 
d="M173 0h-142v61l31 4v421l-31 4v62h142v-64l-31 -3v-190l158 257h90v-62l-35 -4l-131 -206l132 -216l34 -3v-61h-96l-152 261v-194l31 -3v-64z" />
    <glyph glyph-name="L.sc" unicode="&#xe01c;" horiz-adv-x="350" 
d="M322 0h-291v61l31 4v421l-31 4v62h141v-62l-30 -4v-416h116l7 42h57v-112z" />
    <glyph glyph-name="Lslash.sc" unicode="&#xe01d;" horiz-adv-x="350" 
d="M322 0h-291v61l31 4v114l-37 -37v96l37 37v211l-31 4v62h141v-62l-31 -4v-128l83 81v-96l-83 -81v-192h116l7 42h58v-112z" />
    <glyph glyph-name="M.sc" unicode="&#xe01e;" horiz-adv-x="522" 
d="M170 0h-139v61l31 4v421l-31 4v62h126l78 -200q13 -32 24 -73h1q4 10 12.5 35.5t13.5 38.5l77 199h127v-62l-30 -4v-421l30 -4v-61h-140v64l31 3v267q0 41 4 117h-1q-24 -75 -31 -93l-54 -140h-78l-54 140q-5 13 -10 29t-11.5 35t-9.5 29h-1q4 -76 4 -117v-267l31 -3v-64
z" />
    <glyph glyph-name="N.sc" unicode="&#xe01f;" horiz-adv-x="468" 
d="M299 552h138v-62l-32 -4v-486h-99l-143 368q-16 39 -30 83h-1q4 -70 4 -107v-277l31 -3v-64h-136v61l31 4v421l-31 4v62h131l141 -353q19 -47 31 -85h1q-5 67 -5 111v260l-31 3v64z" />
    <glyph glyph-name="Ntilde.sc" unicode="&#xe020;" horiz-adv-x="468" 
d="M299 552h138v-62l-32 -4v-486h-99l-143 368q-16 39 -30 83h-1q4 -70 4 -107v-277l31 -3v-64h-136v61l31 4v421l-31 4v62h131l141 -353q19 -47 31 -85h1q-5 67 -5 111v260l-31 3v64zM400 712q0 -110 -87 -110q-56 0 -92 46l-22 27q-24 30 -45 30q-27 0 -27 -49v-49h-61v49
q0 110 88 110q53 0 92 -48l21 -26q23 -28 45 -28q27 0 27 48v50h61v-50z" />
    <glyph glyph-name="O.sc" unicode="&#xe021;" horiz-adv-x="417" 
d="M383 223q0 -232 -175 -232q-174 0 -174 232v106q0 231 174 231q175 0 175 -231v-106zM303 223v105q0 85 -23 122t-72 37t-71.5 -37.5t-22.5 -121.5v-105q0 -83 23 -121.5t71 -38.5q49 0 72 37.5t23 122.5z" />
    <glyph glyph-name="OE.sc" unicode="&#xe022;" horiz-adv-x="592" 
d="M555 0h-251q-68 -8 -88 -8q-182 0 -182 231v106q0 115 43 173t139 58q20 0 88 -8h251v-109h-56l-7 40h-128v-163h182v-69h-182v-182h128l7 41h56v-110zM284 69v412q-36 6 -63 6q-57 0 -81.5 -37t-24.5 -122v-105q0 -85 23.5 -122.5t78.5 -37.5q19 0 67 6z" />
    <glyph glyph-name="Oacute.sc" unicode="&#xe023;" horiz-adv-x="417" 
d="M383 223q0 -232 -175 -232q-174 0 -174 232v106q0 231 174 231q175 0 175 -231v-106zM303 223v105q0 85 -23 122t-72 37t-71.5 -37.5t-22.5 -121.5v-105q0 -83 23 -121.5t71 -38.5q49 0 72 37.5t23 122.5zM348 760l-111 -153h-79l96 153h94z" />
    <glyph glyph-name="Ocircumflex.sc" unicode="&#xe024;" horiz-adv-x="417" 
d="M383 223q0 -232 -175 -232q-174 0 -174 232v106q0 231 174 231q175 0 175 -231v-106zM303 223v105q0 85 -23 122t-72 37t-71.5 -37.5t-22.5 -121.5v-105q0 -83 23 -121.5t71 -38.5q49 0 72 37.5t23 122.5zM363 607h-77l-80 106l-79 -106h-78l101 153h113z" />
    <glyph glyph-name="Odieresis.sc" unicode="&#xe025;" horiz-adv-x="417" 
d="M383 223q0 -232 -175 -232q-174 0 -174 232v106q0 231 174 231q175 0 175 -231v-106zM303 223v105q0 85 -23 122t-72 37t-71.5 -37.5t-22.5 -121.5v-105q0 -83 23 -121.5t71 -38.5q49 0 72 37.5t23 122.5zM334 630h-80v112h80v-112zM155 630v112h-80v-112h80z" />
    <glyph glyph-name="Ograve.sc" unicode="&#xe026;" horiz-adv-x="417" 
d="M383 223q0 -232 -175 -232q-174 0 -174 232v106q0 231 174 231q175 0 175 -231v-106zM303 223v105q0 85 -23 122t-72 37t-71.5 -37.5t-22.5 -121.5v-105q0 -83 23 -121.5t71 -38.5q49 0 72 37.5t23 122.5zM270 607h-80l-111 153h95z" />
    <glyph glyph-name="Oslash.sc" unicode="&#xe027;" horiz-adv-x="417" 
d="M383 223q0 -232 -175 -232q-66 0 -108 34l-16 -28h-65l44 76q-29 55 -29 150v106q0 231 174 231q71 0 112 -38l19 33h65l-48 -83q27 -55 27 -143v-106zM114 223q0 -31 3 -55l162 283q-22 36 -71 36t-71.5 -37.5t-22.5 -121.5v-105zM303 223v105q0 19 -2 47l-161 -280
q23 -32 68 -32q49 0 72 37.5t23 122.5z" />
    <glyph glyph-name="Otilde.sc" unicode="&#xe028;" horiz-adv-x="417" 
d="M383 223q0 -232 -175 -232q-174 0 -174 232v106q0 231 174 231q175 0 175 -231v-106zM303 223v105q0 85 -23 122t-72 37t-71.5 -37.5t-22.5 -121.5v-105q0 -83 23 -121.5t71 -38.5q49 0 72 37.5t23 122.5zM380 712q0 -110 -87 -110q-56 0 -92 46l-22 27q-24 30 -45 30
q-27 0 -27 -49v-49h-61v49q0 110 88 110q53 0 92 -48l21 -26q23 -28 45 -28q27 0 27 48v50h61v-50z" />
    <glyph glyph-name="P.sc" unicode="&#xe029;" horiz-adv-x="396" 
d="M183 0h-152v61l31 4v421l-31 4v62q50 1 151 1q92 0 140.5 -34.5t49.5 -129.5v-12q0 -95 -48.5 -130.5t-137.5 -35.5h-44v-145l41 -3v-63zM292 377v12q0 57 -24 75.5t-83 18.5h-43v-203h43q58 0 82.5 20.5t24.5 76.5z" />
    <glyph glyph-name="Thorn.sc" unicode="&#xe02a;" horiz-adv-x="396" 
d="M172 0h-141v61l31 4v421l-31 3v63h141v-64l-31 -3v-30q14 1 42 1q91 0 139.5 -34.5t48.5 -129.5v-12q0 -95 -48.5 -130.5t-137.5 -35.5h-44v-47l31 -3v-64zM291 280v12q0 57 -24 75.5t-83 18.5q-7 0 -21 -0.5t-22 -0.5v-201h43q59 0 83 20t24 76z" />
    <glyph glyph-name="Q.sc" unicode="&#xe02b;" horiz-adv-x="417" 
d="M383 223q0 -205 -138 -228v-50q0 -19 6.5 -24t31.5 -5h47v-52q-33 -9 -74 -9q-44 0 -65.5 19t-21.5 69v52q-135 24 -135 228v106q0 231 174 231q175 0 175 -231v-106zM303 223v105q0 85 -23 122t-72 37t-71.5 -37.5t-22.5 -121.5v-105q0 -83 23 -121.5t71 -38.5
q49 0 72 37.5t23 122.5z" />
    <glyph glyph-name="R.sc" unicode="&#xe02c;" horiz-adv-x="427" 
d="M173 0h-142v61l31 4v421l-31 4v62q48 1 147 1q92 0 142.5 -35.5t50.5 -128.5v-7q0 -114 -78 -151l74 -166l36 -4v-61h-95l-93 213q-9 -1 -32 -1h-41v-145l31 -3v-64zM292 382v7q0 57 -24.5 75.5t-86.5 18.5h-39v-203h42q60 0 84 22.5t24 79.5z" />
    <glyph glyph-name="S.sc" unicode="&#xe02d;" horiz-adv-x="350" 
d="M322 145q0 -154 -157 -154q-76 0 -130 16v103h57l6 -48q42 -2 59 -2q45 0 64 19t19 66q0 28 -11.5 46.5t-43.5 39.5l-68 44q-48 31 -69 66t-21 86q0 69 37.5 101t114.5 32q79 0 130 -17v-99h-57l-7 45q-17 1 -55 1q-43 0 -62.5 -14.5t-19.5 -50.5q0 -30 11 -48t43 -38
l67 -42q93 -58 93 -152z" />
    <glyph glyph-name="Scaron.sc" unicode="&#xe02e;" horiz-adv-x="350" 
d="M322 145q0 -154 -157 -154q-76 0 -130 16v103h57l6 -48q42 -2 59 -2q45 0 64 19t19 66q0 28 -11.5 46.5t-43.5 39.5l-68 44q-48 31 -69 66t-21 86q0 69 37.5 101t114.5 32q79 0 130 -17v-99h-57l-7 45q-17 1 -55 1q-43 0 -62.5 -14.5t-19.5 -50.5q0 -30 11 -48t43 -38
l67 -42q93 -58 93 -152zM339 760l-100 -153h-113l-101 153h78l79 -106l80 106h77z" />
    <glyph glyph-name="T.sc" unicode="&#xe02f;" horiz-adv-x="393" 
d="M365 443h-56l-7 40h-65v-419l30 -4v-60h-142v60l31 4v419h-66l-6 -40h-57v109h338v-109z" />
    <glyph glyph-name="U.sc" unicode="&#xe030;" horiz-adv-x="457" 
d="M284 552h142v-62l-31 -4v-280q0 -215 -166 -215q-167 0 -167 215v280l-31 4v62h142v-64l-31 -3v-268q0 -87 17.5 -121t69.5 -34q51 0 68.5 34.5t17.5 120.5v268l-31 3v64z" />
    <glyph glyph-name="Uacute.sc" unicode="&#xe031;" horiz-adv-x="457" 
d="M284 552h142v-62l-31 -4v-280q0 -215 -166 -215q-167 0 -167 215v280l-31 4v62h142v-64l-31 -3v-268q0 -87 17.5 -121t69.5 -34q51 0 68.5 34.5t17.5 120.5v268l-31 3v64zM376 760l-111 -153h-79l96 153h94z" />
    <glyph glyph-name="Ucircumflex.sc" unicode="&#xe032;" horiz-adv-x="457" 
d="M284 552h142v-62l-31 -4v-280q0 -215 -166 -215q-167 0 -167 215v280l-31 4v62h142v-64l-31 -3v-268q0 -87 17.5 -121t69.5 -34q51 0 68.5 34.5t17.5 120.5v268l-31 3v64zM384 607h-77l-80 106l-79 -106h-78l101 153h113z" />
    <glyph glyph-name="Udieresis.sc" unicode="&#xe033;" horiz-adv-x="457" 
d="M284 552h142v-62l-31 -4v-280q0 -215 -166 -215q-167 0 -167 215v280l-31 4v62h142v-64l-31 -3v-268q0 -87 17.5 -121t69.5 -34q51 0 68.5 34.5t17.5 120.5v268l-31 3v64zM357 630h-80v112h80v-112zM178 630v112h-80v-112h80z" />
    <glyph glyph-name="Ugrave.sc" unicode="&#xe034;" horiz-adv-x="457" 
d="M284 552h142v-62l-31 -4v-280q0 -215 -166 -215q-167 0 -167 215v280l-31 4v62h142v-64l-31 -3v-268q0 -87 17.5 -121t69.5 -34q51 0 68.5 34.5t17.5 120.5v268l-31 3v64zM285 607h-80l-111 153h95z" />
    <glyph glyph-name="V.sc" unicode="&#xe035;" horiz-adv-x="449" 
d="M282 552h145v-62l-31 -4l-114 -486h-116l-114 486l-31 4v62h145v-64l-31 -3l71 -319q8 -33 17 -104h2q16 93 18 104l70 319l-31 3v64z" />
    <glyph glyph-name="W.sc" unicode="&#xe036;" horiz-adv-x="583" 
d="M418 552h141v-62l-31 -4l-63 -486h-112l-49 260q-9 46 -12 81h-3q-10 -72 -12 -81l-48 -260h-113l-64 486l-31 4v62h143v-64l-31 -3l34 -295q6 -49 9 -108h5q6 65 15 106l43 214h104l44 -215q6 -28 15 -106h4q5 70 9 109l34 295l-31 3v64z" />
    <glyph glyph-name="X.sc" unicode="&#xe037;" horiz-adv-x="419" 
d="M307 0l-102 198l-96 -198h-88v61l34 4l108 215l-105 206l-34 4v62h91l100 -196l93 196h87v-62l-34 -4l-107 -208l109 -213l35 -4v-61h-91z" />
    <glyph glyph-name="Y.sc" unicode="&#xe038;" horiz-adv-x="395" 
d="M233 552h141v-62l-31 -4l-106 -270v-150l31 -4v-62h-141v62l31 4v150l-107 270l-30 4v62h142v-61l-30 -3l38 -105q8 -23 26 -82h1q3 8 12 38.5t14 43.5l38 105l-29 3v61z" />
    <glyph glyph-name="Yacute.sc" unicode="&#xe039;" horiz-adv-x="395" 
d="M233 552h141v-62l-31 -4l-106 -270v-150l31 -4v-62h-141v62l31 4v150l-107 270l-30 4v62h142v-61l-30 -3l38 -105q8 -23 26 -82h1q3 8 12 38.5t14 43.5l38 105l-29 3v61zM332 760l-111 -153h-79l96 153h94z" />
    <glyph glyph-name="Ydieresis.sc" unicode="&#xe03a;" horiz-adv-x="395" 
d="M233 552h141v-62l-31 -4l-106 -270v-150l31 -4v-62h-141v62l31 4v150l-107 270l-30 4v62h142v-61l-30 -3l38 -105q8 -23 26 -82h1q3 8 12 38.5t14 43.5l38 105l-29 3v61zM329 630h-80v112h80v-112zM150 630v112h-80v-112h80z" />
    <glyph glyph-name="Z.sc" unicode="&#xe03b;" horiz-adv-x="373" 
d="M342 0h-311v80l218 403h-147l-8 -40h-55v109h296v-82l-217 -402h161l7 44h56v-112z" />
    <glyph glyph-name="Zcaron.sc" unicode="&#xe03c;" horiz-adv-x="373" 
d="M342 0h-311v80l218 403h-147l-8 -40h-55v109h296v-82l-217 -402h161l7 44h56v-112zM348 760l-100 -153h-113l-101 153h78l79 -106l80 106h77z" />
    <glyph glyph-name="Breve.sc" unicode="&#xe082;" horiz-adv-x="336" 
d="M299 760q-2 -36 -7.5 -61t-19 -48t-39.5 -34.5t-65 -11.5q-74 0 -101 40.5t-30 114.5h63q2 -57 16.5 -77.5t51.5 -20.5t51 20t17 78h63z" />
    <glyph glyph-name="Caron.sc" unicode="&#xe083;" horiz-adv-x="336" 
d="M325 760l-101 -153h-112l-101 153h77l80 -106l80 106h77z" />
    <glyph glyph-name="Circumflex.sc" unicode="&#xe084;" horiz-adv-x="336" 
d="M325 607h-77l-80 106l-80 -106h-77l101 153h112z" />
    <glyph glyph-name="Dotaccent.sc" unicode="&#xe085;" horiz-adv-x="336" 
d="M210 653h-84v113h84v-113z" />
    <glyph glyph-name="Hungarumlaut.sc" unicode="&#xe086;" horiz-adv-x="336" 
d="M401 758l-111 -153h-79l95 153h95zM240 758l-111 -153h-79l96 153h94z" />
    <glyph glyph-name="Ogonek.sc" unicode="&#xe087;" horiz-adv-x="336" 
d="M263 -205q-32 -9 -70 -9q-52 0 -79.5 25.5t-27.5 67.5q0 33 20 64t76 83h85q-70 -62 -89.5 -90.5t-19.5 -50.5t10.5 -33t38.5 -11q11 0 56 3v-49z" />
    <glyph glyph-name="Ring.sc" unicode="&#xe088;" horiz-adv-x="336" 
d="M273 711q0 -57 -28 -83.5t-76 -26.5q-49 0 -77.5 27t-28.5 83q0 57 28.5 84t77.5 27q48 0 76 -27t28 -84zM214 711q0 58 -45 58q-22 0 -34 -12.5t-12 -45.5t12 -45t34 -12q45 0 45 57z" />
    <glyph glyph-name="Tilde.sc" unicode="&#xe089;" horiz-adv-x="336" 
d="M337 714q0 -110 -87 -110q-56 0 -92 46l-22 27q-24 30 -45 30q-27 0 -27 -49v-49h-61v49q0 110 88 110q53 0 92 -48l21 -26q23 -28 45 -28q27 0 27 48v50h61v-50z" />
    <glyph glyph-name="exclam.sc" unicode="&#xe08b;" horiz-adv-x="179" 
d="M130 0h-81v105h81v-105zM132 570l-6 -418h-73l-7 418h86z" />
    <glyph glyph-name="ampersand.sc" unicode="&#xe08c;" horiz-adv-x="483" 
d="M195 -8q-70 0 -115 34.5t-45 109.5v8q0 84 86 150l-2 3q-35 45 -49 75t-14 71v7q0 127 147 127q80 0 137 -17v-103h-61l-7 50h-66q-67 0 -67 -58v-6q0 -30 9.5 -51.5t33.5 -52.5l149 -190q12 35 17 126l-32 4v54h135v-54l-33 -5q0 -114 -40 -185l58 -73v-16h-84l-24 31
q-54 -39 -133 -39zM119 144v-8q0 -40 23.5 -59.5t58.5 -19.5q53 0 86 25l-122 156q-46 -36 -46 -94z" />
    <glyph glyph-name="question.sc" unicode="&#xe08d;" horiz-adv-x="303" 
d="M157 0h-75v105h75v-105zM265 452q0 -60 -52 -132q-38 -52 -49 -77t-11 -60v-32h-68v32q0 45 10 77.5t39 70.5q31 41 40 64t9 51v7q0 31 -15 43t-51 12q-6 0 -15 -0.5t-11 -0.5l-8 -43h-55v96q55 17 109 17q128 0 128 -117v-8z" />
    <glyph glyph-name="Grave.sc" unicode="&#xe08e;" horiz-adv-x="336" 
d="M218 607h-79l-111 153h95z" />
    <glyph glyph-name="exclamdown.sc" unicode="&#xe08f;" horiz-adv-x="179" 
d="M132 -18h-86l7 418h73zM130 552v-106h-81v106h81z" />
    <glyph glyph-name="Dieresis.sc" unicode="&#xe090;" horiz-adv-x="336" 
d="M298 635h-80v112h80v-112zM119 635v112h-80v-112h80z" />
    <glyph glyph-name="Macron.sc" unicode="&#xe091;" horiz-adv-x="336" 
d="M303 653h-270v66h270v-66z" />
    <glyph glyph-name="Acute.sc" unicode="&#xe092;" horiz-adv-x="336" 
d="M295 760l-111 -153h-79l95 153h95z" />
    <glyph glyph-name="Cedilla.sc" unicode="&#xe093;" horiz-adv-x="336" 
d="M229 -62l-105 -144h-77l86 144h96z" />
    <glyph glyph-name="questiondown.sc" unicode="&#xe094;" horiz-adv-x="303" 
d="M136 552h75v-105h-75v105zM28 100q0 60 52 132q38 52 49 77t11 60v32h68v-32q0 -45 -10 -77.5t-39 -70.5q-31 -41 -40 -64t-9 -51v-7q0 -31 15 -43t51 -12q6 0 15 0.5t11 0.5l8 43h55v-96q-55 -17 -109 -17q-128 0 -128 117v8z" />
    <glyph glyph-name="zero.fitted" unicode="&#xe097;" horiz-adv-x="487" 
d="M444 266q0 -136 -47 -206t-153 -70q-107 0 -154 70t-47 206v210q0 136 47 206.5t154 70.5q106 0 153 -70.5t47 -206.5v-210zM359 266v210q0 108 -28 155t-88 47t-87.5 -47t-27.5 -155v-210q0 -108 27.5 -155.5t87.5 -47.5t88 47t28 156z" />
    <glyph glyph-name="two.fitted" unicode="&#xe098;" horiz-adv-x="487" 
d="M418 0h-357v96q0 76 19.5 129.5t51.5 89t98 88.5q71 57 91 89.5t20 81.5q0 61 -28.5 83t-100.5 22q-9 0 -21 -0.5t-28 -1.5t-25 -1l-10 -67h-64v122q73 22 158 22q104 0 154 -43.5t50 -135.5q0 -62 -28 -112t-114 -118q-88 -69 -114.5 -115.5t-26.5 -132.5v-19h200l11 62
h64v-139z" />
    <glyph glyph-name="three.fitted" unicode="&#xe099;" horiz-adv-x="487" 
d="M425 193q0 -113 -52.5 -158t-158.5 -45q-79 0 -152 23v125h64l10 -72q35 -3 75 -3q71 0 100 25.5t29 105.5v32q0 63 -18.5 93t-75.5 30h-157v71h157q57 0 75.5 29.5t18.5 91.5v18q0 72 -27.5 96t-102.5 24q-39 0 -72 -3l-10 -67h-65v122q17 6 63 14t88 8q109 0 160 -42.5
t51 -151.5v-18q0 -111 -72 -156q72 -44 72 -159v-33z" />
    <glyph glyph-name="four.fitted" unicode="&#xe09a;" horiz-adv-x="487" 
d="M457 198h-83v-122l42 -5v-71h-169v71l42 5v122h-259v91l247 454h97v-470h83v-75zM289 273v330l-181 -330h181z" />
    <glyph glyph-name="five.fitted" unicode="&#xe09b;" horiz-adv-x="487" 
d="M428 197q0 -114 -54 -160.5t-163 -46.5q-69 0 -153 21v127h64l10 -72q37 -3 75 -3q76 0 106 27.5t30 106.5v41q0 78 -27.5 107.5t-113.5 29.5h-132l24 368h314v-134h-64l-10 57h-166l-14 -218h54q124 0 172 -52.5t48 -157.5v-41z" />
    <glyph glyph-name="six.fitted" unicode="&#xe09c;" horiz-adv-x="487" 
d="M442 212q0 -56 -13 -97.5t-33 -64.5t-47.5 -37.5t-51 -18.5t-50.5 -4q-34 0 -59.5 4.5t-54 19.5t-47 41.5t-30.5 74t-12 113.5v250q0 131 47 195.5t173 64.5q84 0 153 -22v-122h-65l-10 67q-34 3 -74 3q-39 0 -65 -8.5t-40.5 -22t-22 -39.5t-9.5 -50.5t-2 -65.5v-49
q62 17 124 17q90 0 139.5 -41.5t49.5 -144.5v-63zM357 212v56q0 72 -24.5 98t-87.5 26q-56 0 -116 -16v-136q0 -94 28 -135.5t90 -41.5q54 0 82 39t28 110z" />
    <glyph glyph-name="seven.fitted" unicode="&#xe09d;" horiz-adv-x="487" 
d="M428 650l-236 -650h-92l250 666h-217l-10 -57h-64v134h369v-93z" />
    <glyph glyph-name="eight.fitted" unicode="&#xe09e;" horiz-adv-x="487" 
d="M448 211q0 -59 -12.5 -101.5t-30 -65.5t-47 -35.5t-54 -15.5t-59.5 -3h-3q-35 0 -59.5 3t-54 15.5t-47 35.5t-30 65.5t-12.5 101.5v10q0 65 16.5 103t53.5 64q-68 47 -68 154v13q0 198 201 198h3q201 0 201 -198v-13q0 -107 -68 -154q37 -26 53.5 -64t16.5 -103v-10z
M363 211v10q0 70 -19 100t-65 30h-71q-46 0 -65 -30t-19 -100v-10q0 -89 28 -118t90 -29h3q62 0 90 29t28 118zM362 542v13q0 72 -28.5 98t-88.5 26h-3q-60 0 -88.5 -26t-28.5 -98v-13q0 -59 19 -89t64 -30h71q45 0 64 30t19 89z" />
    <glyph glyph-name="nine.fitted" unicode="&#xe09f;" horiz-adv-x="487" 
d="M442 250q0 -131 -47 -195.5t-173 -64.5q-84 0 -153 22v124h64l11 -69q33 -3 74 -3q39 0 65 8.5t40.5 22t22 39.5t9.5 50.5t2 65.5v49q-60 -17 -124 -17q-90 0 -139.5 41.5t-49.5 144.5v63q0 69 19 116t51 68.5t61.5 29.5t63.5 8t59.5 -4.5t54 -19.5t47 -41.5t30.5 -74
t12 -113.5v-250zM357 367v136q0 94 -28 135.5t-90 41.5q-54 0 -82 -39t-28 -110v-56q0 -72 24.5 -98t87.5 -26q56 0 116 16z" />
    <glyph glyph-name="zero.taboldstyle" unicode="&#xe100;" horiz-adv-x="487" 
d="M444 246q0 -124 -47 -190t-154 -66q-106 0 -153 66t-47 190v64q0 124 47 190t153 66q107 0 154 -66t47 -190v-64zM359 246v64q0 97 -28 139.5t-88 42.5t-87.5 -42.5t-27.5 -139.5v-64q0 -97 28 -139.5t87 -42.5q60 0 88 42.5t28 139.5z" />
    <glyph glyph-name="one.taboldstyle" unicode="&#xe101;" horiz-adv-x="487" 
d="M402 0h-317v71l118 6v389l-118 -52v86l138 63h65v-486l114 -6v-71z" />
    <glyph glyph-name="two.taboldstyle" unicode="&#xe102;" horiz-adv-x="487" 
d="M426 0h-368v78l127 108q96 82 127 128t31 100q0 41 -30 60t-100 19q-30 0 -72 -3l-11 -67h-64v122q93 21 157 21q111 0 158 -40t47 -112q0 -67 -37 -123t-147 -151l-72 -62h254v-78z" />
    <glyph glyph-name="three.taboldstyle" unicode="&#xe103;" horiz-adv-x="487" 
d="M425 7q0 -113 -52.5 -158t-158.5 -45q-79 0 -152 23v125h64l10 -72q35 -3 75 -3q71 0 100 25.5t29 105.5v32q0 63 -18.5 93t-75.5 30h-157v71h157q57 0 75.5 29.5t18.5 91.5v18q0 72 -27.5 96t-102.5 24q-39 0 -72 -3l-10 -67h-65v122q17 6 63 14t88 8q109 0 160 -42.5
t51 -151.5v-18q0 -111 -72 -156q72 -44 72 -159v-33z" />
    <glyph glyph-name="four.taboldstyle" unicode="&#xe104;" horiz-adv-x="487" 
d="M457 12h-83v-122l42 -5v-71h-169v71l42 5v122h-259v91l248 454h96v-470h83v-75zM290 87v330l-182 -330h182z" />
    <glyph glyph-name="five.taboldstyle" unicode="&#xe105;" horiz-adv-x="487" 
d="M428 11q0 -114 -53.5 -160.5t-162.5 -46.5q-65 0 -154 21v127h64l11 -72q36 -3 75 -3q75 0 105 27.5t30 106.5v41q0 78 -27.5 107.5t-113.5 29.5h-131l24 368h314v-134h-65l-10 57h-166l-14 -218h54q125 0 172.5 -52.5t47.5 -157.5v-41z" />
    <glyph glyph-name="six.taboldstyle" unicode="&#xe106;" horiz-adv-x="487" 
d="M442 212q0 -56 -13 -97.5t-33 -64.5t-47.5 -37.5t-51 -18.5t-49.5 -4q-34 0 -59.5 4.5t-54 19.5t-47 41.5t-30.5 74t-12 113.5v250q0 131 47 195.5t173 64.5q83 0 152 -22v-122h-64l-10 67q-34 3 -74 3q-39 0 -65 -8.5t-40.5 -22t-22 -39.5t-9.5 -50.5t-2 -65.5v-49
q60 17 123 17q90 0 139.5 -41.5t49.5 -144.5v-63zM357 212v56q0 72 -24.5 98t-86.5 26q-58 0 -116 -16v-136q0 -94 28 -135.5t90 -41.5q53 0 81 39t28 110z" />
    <glyph glyph-name="seven.taboldstyle" unicode="&#xe107;" horiz-adv-x="487" 
d="M428 464l-236 -650h-92l250 666h-217l-10 -57h-64v134h369v-93z" />
    <glyph glyph-name="eight.taboldstyle" unicode="&#xe108;" horiz-adv-x="487" 
d="M448 211q0 -59 -12.5 -101.5t-30 -65.5t-47 -35.5t-54 -15.5t-59.5 -3h-3q-35 0 -59.5 3t-54 15.5t-47 35.5t-30 65.5t-12.5 101.5v10q0 65 16.5 103t53.5 64q-68 47 -68 154v13q0 198 201 198h3q201 0 201 -198v-13q0 -107 -68 -154q37 -26 53.5 -64t16.5 -103v-10z
M363 211v10q0 70 -19 100t-65 30h-71q-46 0 -65 -30t-19 -100v-10q0 -89 28 -118t90 -29h3q62 0 90 29t28 118zM362 542v13q0 72 -28.5 98t-88.5 26h-3q-60 0 -88.5 -26t-28.5 -98v-13q0 -59 19 -89t64 -30h71q45 0 64 30t19 89z" />
    <glyph glyph-name="nine.taboldstyle" unicode="&#xe109;" horiz-adv-x="487" 
d="M442 63q0 -131 -46.5 -195t-173.5 -64q-75 0 -152 21v124h64l10 -69q69 -3 74 -3q48 0 77 11.5t42 39t16.5 56t3.5 79.5v50q-54 -17 -123 -17q-89 0 -139 41.5t-50 143.5v63q0 69 19 116t50.5 69t61.5 30t64 8t59.5 -4.5t54 -20t46.5 -42t30 -74t12 -112.5v-251zM357 180
v136q0 94 -27.5 135.5t-89.5 41.5q-54 0 -82 -39t-28 -110v-56q0 -71 24.5 -97t86.5 -26q61 0 116 15z" />
    <glyph glyph-name="zero.denominator" unicode="&#xe10a;" horiz-adv-x="362" 
d="M331 180q0 -189 -150 -189t-150 189v85q0 188 150 188t150 -188v-85zM253 180v85q0 69 -18 96.5t-54 27.5q-37 0 -54.5 -27.5t-17.5 -96.5v-85q0 -69 17.5 -96.5t54.5 -27.5q36 0 54 27.5t18 96.5z" />
    <glyph glyph-name="one.denominator" unicode="&#xe10b;" horiz-adv-x="332" 
d="M288 0h-244v57l84 3v309l-84 -30v68l104 40h57v-387l83 -3v-57z" />
    <glyph glyph-name="two.denominator" unicode="&#xe10c;" horiz-adv-x="348" 
d="M303 0h-263v57q0 73 24.5 111t92.5 81q48 31 61.5 48t13.5 44q0 30 -18 41t-63 11q-16 0 -50 -2l-6 -40h-52v88q56 14 119 14q76 0 111.5 -26.5t35.5 -83.5q0 -40 -21.5 -71t-80.5 -70q-59 -38 -75.5 -62t-16.5 -70v-8h131l6 37h51v-99z" />
    <glyph glyph-name="three.denominator" unicode="&#xe10d;" horiz-adv-x="346" 
d="M306 120q0 -70 -37 -99.5t-113 -29.5q-65 0 -116 17v89h51l6 -43q32 -2 53 -2q43 0 61 14t18 56v15q0 33 -12 48.5t-50 15.5h-108v57h108q37 0 49.5 16t12.5 48v8q0 38 -16.5 50.5t-63.5 12.5q-19 0 -51 -2l-6 -40h-51v88q46 14 115 14q77 0 113.5 -27t36.5 -93v-8
q0 -67 -49 -96q49 -26 49 -95v-14z" />
    <glyph glyph-name="four.denominator" unicode="&#xe10e;" horiz-adv-x="357" 
d="M335 111h-56v-59l28 -3v-49h-133v49l28 3v59h-180v65l183 270h74v-276h56v-59zM204 170v174l-116 -174h116z" />
    <glyph glyph-name="five.denominator" unicode="&#xe10f;" horiz-adv-x="348" 
d="M310 126q0 -72 -39.5 -103.5t-114.5 -31.5q-46 0 -116 15v91h50l6 -43q32 -2 51 -2q47 0 66 15.5t19 58.5v17q0 40 -17.5 55t-69.5 15h-100l18 233h233v-95h-51l-5 33h-113l-8 -112h39q84 0 118 -31t34 -98v-17z" />
    <glyph glyph-name="six.denominator" unicode="&#xe110;" horiz-adv-x="358" 
d="M325 132q0 -78 -42 -109.5t-102 -31.5q-72 0 -110.5 36t-38.5 132v127q0 86 34 126.5t123 40.5q68 0 118 -14v-88h-51l-6 40q-34 2 -54 2q-56 0 -71.5 -23t-15.5 -79v-21q35 10 79 10q65 0 101 -26t36 -94v-28zM248 132v25q0 41 -15.5 55t-52.5 14q-38 0 -71 -8v-65
q0 -57 17.5 -80t54.5 -23q31 0 49 21t18 61z" />
    <glyph glyph-name="seven.denominator" unicode="&#xe111;" horiz-adv-x="345" 
d="M309 375l-165 -375h-83l174 384h-138l-5 -33h-52v95h269v-71z" />
    <glyph glyph-name="eight.denominator" unicode="&#xe112;" horiz-adv-x="363" 
d="M332 127q0 -37 -9 -63t-22 -40t-35 -21.5t-39.5 -9.5t-43.5 -2h-3q-26 0 -43.5 2t-39.5 9.5t-35 21.5t-22 40t-9 63v5q0 67 44 99q-43 30 -43 94v7q0 69 40 95t108 26h3q68 0 108 -26t40 -95v-7q0 -63 -44 -94q45 -31 45 -99v-5zM255 127v5q0 39 -10.5 55t-37.5 16h-51
q-28 0 -38.5 -16t-10.5 -55v-5q0 -47 17.5 -62t55.5 -15h3q37 0 54.5 15t17.5 62zM255 324v6q0 38 -18 51.5t-54 13.5h-3q-36 0 -54 -13.5t-18 -51.5v-6q0 -32 10.5 -48.5t37.5 -16.5h51q48 0 48 65z" />
    <glyph glyph-name="nine.denominator" unicode="&#xe113;" horiz-adv-x="358" 
d="M325 160q0 -86 -33.5 -127t-122.5 -41q-56 0 -119 14v89h51l6 -41q34 -2 55 -2q55 0 71 23.5t16 78.5v22q-35 -10 -79 -10q-66 0 -102 25.5t-36 93.5v28q0 78 42 109t103 31q72 0 110 -35t38 -132v-126zM249 228v65q0 56 -17.5 79t-55.5 23q-67 0 -67 -82v-25
q0 -40 16 -54.5t52 -14.5q33 0 72 9z" />
    <glyph glyph-name="parenleft.denominator" unicode="&#xe117;" horiz-adv-x="219" 
d="M193 -78h-75q-74 116 -74 261v5q0 144 74 262h75q-71 -120 -71 -262v-5q0 -141 71 -261z" />
    <glyph glyph-name="parenright.denominator" unicode="&#xe118;" horiz-adv-x="219" 
d="M177 183q0 -144 -75 -261h-75q71 120 71 261v5q0 142 -71 262h75q75 -120 75 -262v-5z" />
    <glyph glyph-name="cent.denominator" unicode="&#xe119;" horiz-adv-x="297" 
d="M269 3q-34 -10 -72 -11v-74h-67v79q-105 25 -105 186v78q0 162 105 186v76h67v-71q38 -1 72 -11v-93h-56l-7 36h-22q-46 0 -65 -26.5t-19 -96.5v-78q0 -70 19.5 -96.5t68.5 -26.5q13 0 29 1t31.5 2.5t20.5 1.5v-62z" />
    <glyph glyph-name="comma.denominator" unicode="&#xe11a;" horiz-adv-x="170" 
d="M140 89l-60 -145h-61l42 145h79z" />
    <glyph glyph-name="dollar.denominator" unicode="&#xe11b;" horiz-adv-x="321" 
d="M289 120q0 -103 -97 -122v-79h-69v74q-53 3 -91 14v97h59l8 -44q6 0 19.5 -0.5t20.5 -0.5q39 0 55.5 14.5t16.5 44.5q0 22 -10.5 36t-37.5 30l-57 33q-42 24 -62 51.5t-20 71.5q0 95 99 110v76h69v-73q45 -3 86 -13v-94h-59l-7 40q-14 2 -41 2q-70 0 -70 -48
q0 -20 10.5 -33.5t36.5 -28.5l56 -31q85 -46 85 -127z" />
    <glyph glyph-name="hyphen.denominator" unicode="&#xe11c;" horiz-adv-x="187" 
d="M157 159h-128v59h128v-59z" />
    <glyph glyph-name="period.denominator" unicode="&#xe11d;" horiz-adv-x="140" 
d="M106 0h-72v89h72v-89z" />
    <glyph glyph-name="zero.numerator" unicode="&#xe11e;" horiz-adv-x="356" 
d="M327 480q0 -90 -34 -139.5t-115 -49.5q-150 0 -150 189v84q0 189 150 189q82 0 115.5 -49t33.5 -140v-84zM250 480v84q0 70 -17 98t-55 28q-39 0 -55.5 -28.5t-16.5 -97.5v-84q0 -70 16 -97t56 -27q38 0 55 27.5t17 96.5z" />
    <glyph glyph-name="one.numerator" unicode="&#xe11f;" horiz-adv-x="338" 
d="M294 300h-244v57l83 3v309l-83 -30v68l103 40h57v-387l84 -3v-57z" />
    <glyph glyph-name="two.numerator" unicode="&#xe120;" horiz-adv-x="352" 
d="M304 301h-264v57q0 72 25 109.5t92 81.5q48 31 61.5 48.5t13.5 43.5q0 30 -17.5 41.5t-62.5 11.5q-15 0 -51 -2l-6 -40h-51v88q56 14 119 14q76 0 111.5 -26.5t35.5 -83.5q0 -41 -21.5 -71t-81.5 -70q-59 -39 -75 -62.5t-16 -69.5v-8h130l6 37h52v-99z" />
    <glyph glyph-name="three.numerator" unicode="&#xe121;" horiz-adv-x="352" 
d="M308 421q0 -70 -37 -99.5t-114 -29.5q-65 0 -116 17v89h51l6 -43q32 -2 53 -2q43 0 61 13.5t18 56.5v14q0 33 -12 48.5t-50 15.5h-108v58h109q37 0 49 15.5t12 48.5v8q0 37 -17 50t-63 13q-19 0 -51 -2l-6 -40h-51v88q46 14 115 14q77 0 114 -27t37 -93v-8q0 -69 -49 -96
q49 -27 49 -95v-14z" />
    <glyph glyph-name="four.numerator" unicode="&#xe122;" horiz-adv-x="356" 
d="M333 411h-56v-59l28 -3v-49h-133v49l28 3v59h-180v65l184 270h73v-276h56v-59zM202 470v174l-116 -174h116z" />
    <glyph glyph-name="five.numerator" unicode="&#xe123;" horiz-adv-x="350" 
d="M310 426q0 -72 -39.5 -103.5t-114.5 -31.5q-46 0 -116 15v91h50l6 -43q32 -2 51 -2q47 0 66 15.5t19 58.5v17q0 40 -17.5 55t-69.5 15h-100l18 233h233v-95h-51l-5 33h-113l-8 -112h39q84 0 118 -31t34 -98v-17z" />
    <glyph glyph-name="six.numerator" unicode="&#xe124;" horiz-adv-x="352" 
d="M322 432q0 -78 -42.5 -109.5t-102.5 -31.5q-72 0 -110.5 36t-38.5 132v127q0 86 34 126.5t123 40.5q68 0 118 -14v-88h-51l-6 40q-32 2 -54 2q-56 0 -71.5 -23t-15.5 -79v-21q35 10 79 10q65 0 101.5 -26t36.5 -94v-28zM244 432v25q0 41 -15.5 55t-52.5 14q-38 0 -71 -8
v-65q0 -57 17.5 -80t55.5 -23q31 0 48.5 21t17.5 61z" />
    <glyph glyph-name="seven.numerator" unicode="&#xe125;" horiz-adv-x="353" 
d="M311 675l-166 -375h-83l175 384h-139l-5 -33h-51v95h269v-71z" />
    <glyph glyph-name="eight.numerator" unicode="&#xe126;" horiz-adv-x="356" 
d="M327 427q0 -37 -9 -63t-22 -40t-35 -21.5t-40 -9.5t-44 -2h-2q-26 0 -44 2t-40 9.5t-35 21.5t-22 40t-9 63v5q0 66 45 99q-43 30 -43 94v7q0 69 40 95t108 26h2q69 0 109 -26t40 -95v-7q0 -63 -44 -94q45 -31 45 -99v-5zM250 427v5q0 39 -10.5 55t-37.5 16h-51
q-28 0 -38.5 -16t-10.5 -55v-5q0 -47 17.5 -62t55.5 -15h2q38 0 55.5 15t17.5 62zM249 624v6q0 38 -17.5 51.5t-54.5 13.5h-2q-37 0 -55 -13.5t-18 -51.5v-6q0 -65 49 -65h51q47 0 47 65z" />
    <glyph glyph-name="nine.numerator" unicode="&#xe127;" horiz-adv-x="352" 
d="M322 460q0 -86 -34 -127t-123 -41q-56 0 -119 14v89h52l6 -41q32 -2 54 -2q55 0 71 23.5t16 78.5v22q-35 -10 -79 -10q-66 0 -102 25.5t-36 93.5v28q0 78 42 109t103 31q73 0 111 -35t38 -132v-126zM245 528v65q0 57 -17.5 79.5t-55.5 22.5q-66 0 -66 -82v-25
q0 -40 15.5 -54.5t51.5 -14.5q35 0 72 9z" />
    <glyph glyph-name="parenleft.numerator" unicode="&#xe12b;" horiz-adv-x="219" 
d="M193 226h-75q-74 116 -74 261v4q0 146 74 262h75q-71 -118 -71 -262v-4q0 -143 71 -261z" />
    <glyph glyph-name="parenright.numerator" unicode="&#xe12c;" horiz-adv-x="219" 
d="M177 487q0 -144 -75 -261h-75q71 118 71 261v4q0 144 -71 262h75q75 -117 75 -262v-4z" />
    <glyph glyph-name="cent.numerator" unicode="&#xe12d;" horiz-adv-x="297" 
d="M269 307q-29 -10 -72 -12v-74h-67v79q-105 25 -105 187v77q0 163 105 187v76h67v-72q42 -2 72 -10v-94h-56l-7 36q-2 0 -9 0.5t-13 0.5q-46 0 -65 -26.5t-19 -97.5v-77q0 -70 19.5 -96.5t68.5 -26.5q38 0 81 5v-62z" />
    <glyph glyph-name="comma.numerator" unicode="&#xe130;" horiz-adv-x="170" 
d="M140 393l-60 -145h-61l42 145h79z" />
    <glyph glyph-name="dollar.numerator" unicode="&#xe131;" horiz-adv-x="321" 
d="M289 423q0 -104 -97 -123v-79h-69v75q-51 1 -91 13v98h59l8 -45q6 0 19.5 -0.5t20.5 -0.5q72 0 72 59q0 21 -10.5 34.5t-37.5 30.5l-57 35q-43 26 -62.5 52.5t-19.5 70.5q0 93 99 110v75h69v-73q53 -3 86 -13v-94h-59l-7 40q-21 3 -41 3q-70 0 -70 -49q0 -20 10.5 -33.5
t36.5 -27.5l56 -32q44 -25 64.5 -54.5t20.5 -71.5z" />
    <glyph glyph-name="hyphen.numerator" unicode="&#xe132;" horiz-adv-x="187" 
d="M157 462h-128v59h128v-59z" />
    <glyph glyph-name="period.numerator" unicode="&#xe133;" horiz-adv-x="140" 
d="M106 304h-72v89h72v-89z" />
    <glyph glyph-name="guillemotleft.cap" unicode="&#xe134;" horiz-adv-x="367" 
d="M343 130h-75l-102 206l102 206h75l-99 -206zM203 130l-99 206l99 206h-75l-102 -206l102 -206h75z" />
    <glyph glyph-name="guillemotright.cap" unicode="&#xe135;" horiz-adv-x="367" 
d="M342 336l-102 -206h-75l99 206l-99 206h75zM202 336l-102 206h-75l99 -206l-99 -206h75z" />
    <glyph glyph-name="guilsinglleft.cap" unicode="&#xe136;" horiz-adv-x="227" 
d="M202 130h-75l-102 206l102 206h75l-99 -206z" />
    <glyph glyph-name="guilsinglright.cap" unicode="&#xe137;" horiz-adv-x="227" 
d="M202 336l-102 -206h-75l99 206l-99 206h75z" />
    <glyph glyph-name="at.cap" unicode="&#xe138;" horiz-adv-x="628" 
d="M593 466q0 -145 -65 -228.5t-207 -83.5q-84 0 -119.5 36t-35.5 103q0 5 3 83q7 121 44 165t107 44q59 0 127 -22l-24 -326q109 44 109 229q0 120 -45 177.5t-144 57.5q-108 0 -165 -69t-75 -244q-9 -92 -9 -136q0 -208 195 -208q28 0 60.5 2t52.5 4l21 2v-46
q-3 -1 -21.5 -4t-51.5 -6.5t-61 -3.5q-72 0 -123.5 21.5t-79 59.5t-39.5 82t-12 98q0 64 8 140q19 195 91 278.5t209 83.5q250 0 250 -289zM364 515q-18 3 -42 3q-35 0 -52.5 -27t-23.5 -118q-3 -47 -3 -80q0 -42 16.5 -59t59.5 -17h24z" />
    <glyph glyph-name="braceleft.cap" unicode="&#xe139;" horiz-adv-x="261" 
d="M236 0h-41q-81 0 -106 34.5t-25 97.5v95q0 51 -7.5 71t-34.5 46v53q27 27 34.5 47t7.5 71v95q0 32 4 52.5t16.5 40.5t40 30t70.5 10h41v-70h-41q-34 0 -42.5 -11.5t-8.5 -51.5v-95q0 -54 -12.5 -86t-40.5 -58q28 -28 41 -59t13 -85v-95q0 -40 8 -51t42 -11h41v-70z" />
    <glyph glyph-name="braceright.cap" unicode="&#xe13a;" horiz-adv-x="259" 
d="M236 344q-27 -26 -34.5 -46t-7.5 -71v-95q0 -30 -4 -50t-16.5 -40.5t-40 -31t-70.5 -10.5h-41v70h41q34 0 42 11t8 51v95q0 54 13 85t41 59q-29 26 -41.5 57.5t-12.5 86.5v95q0 40 -8.5 51.5t-41.5 11.5h-41v70h41q81 0 106 -33.5t25 -99.5v-95q0 -51 7.5 -71t34.5 -47
v-53z" />
    <glyph glyph-name="bracketleft.cap" unicode="&#xe13b;" horiz-adv-x="240" 
d="M209 0h-154v743h154v-67h-77v-609h77v-67z" />
    <glyph glyph-name="bracketright.cap" unicode="&#xe13c;" horiz-adv-x="240" 
d="M185 0h-154v67h76v609h-76v67h154v-743z" />
    <glyph glyph-name="emdash.cap" unicode="&#xe13d;" horiz-adv-x="539" 
d="M501 356h-464v73h464v-73z" />
    <glyph glyph-name="endash.cap" unicode="&#xe13e;" horiz-adv-x="369" 
d="M332 356h-295v73h295v-73z" />
    <glyph glyph-name="hyphen.cap" unicode="&#xe13f;" horiz-adv-x="274" 
d="M237 356h-200v72h200v-72z" />
    <glyph glyph-name="parenleft.cap" unicode="&#xe140;" horiz-adv-x="232" 
d="M208 0h-72q-38 65 -66 166t-28 204v6q0 103 27.5 201.5t65.5 165.5h72q-87 -167 -87 -367v-6q0 -203 88 -370z" />
    <glyph glyph-name="parenright.cap" unicode="&#xe141;" horiz-adv-x="232" 
d="M198 370q0 -104 -28.5 -205t-66.5 -165h-72q88 164 88 370v6q0 203 -87 367h72q38 -67 66 -165.5t28 -201.5v-6z" />
    <glyph glyph-name="exclamdown.cap" unicode="&#xe142;" horiz-adv-x="196" 
d="M142 -24h-88l7 572h74zM140 743v-131h-83v131h83z" />
    <glyph glyph-name="questiondown.cap" unicode="&#xe143;" horiz-adv-x="377" 
d="M190 743h83v-135h-83v135zM193 548v-49q0 -50 -13.5 -82.5t-65.5 -102.5q-71 -96 -71 -180v-11q0 -157 168 -157q60 0 131 21v115h-64l-11 -59q-13 -1 -42 -1q-50 0 -72 17t-22 64v11q0 41 15.5 78.5t58.5 95.5q40 53 53 92.5t13 98.5v49h-78z" />
    <glyph glyph-name="i.dot" unicode="&#xe19a;" horiz-adv-x="219" 
d="M193 0h-167v71l42 5v397l-42 5v72h125v-474l42 -5v-71zM153 653h-86v114h86v-114z" />
    <glyph glyph-name="periodcentered.cap" unicode="&#xe22b;" horiz-adv-x="179" 
d="M131 323h-83v136h83v-136z" />
    <glyph glyph-name="Q.alt" unicode="&#xe23c;" horiz-adv-x="510" 
d="M296 -177h-83v170q-178 29 -178 299v159q0 302 220 302t220 -302v-159q0 -270 -179 -299v-170zM255 68q69 0 101.5 54.5t32.5 169.5v159q0 115 -32.5 169.5t-101.5 54.5q-70 0 -102.5 -54t-32.5 -170v-159q0 -116 32.5 -170t102.5 -54z" />
    <glyph glyph-name="a.alt" unicode="&#xe245;" horiz-adv-x="450" 
d="M424 0h-122v25q-52 -35 -116 -35q-78 0 -114 51t-36 155v139q0 126 46.5 175.5t140.5 49.5q90 0 159 -10v-474l42 -5v-71zM299 90v394q-39 4 -76 4q-57 0 -80.5 -30t-23.5 -123v-139q0 -71 19 -101.5t67 -30.5t94 26z" />
    <glyph glyph-name="e.alt" unicode="&#xe249;" horiz-adv-x="426" 
d="M396 245h-280v-15q0 -98 22 -133t98 -35q43 0 71 4l11 62h63v-117q-86 -21 -149 -21q-117 0 -158 59t-41 194v57q0 131 42.5 195.5t138.5 64.5q97 0 139.5 -64.5t42.5 -196.5v-54zM312 313v14q0 39 -3 63t-12 48.5t-30 36t-53 11.5q-26 0 -44.5 -8.5t-28.5 -22
t-15.5 -35.5t-7 -42.5t-1.5 -50.5v-14h195z" />
    <glyph glyph-name="g.alt" unicode="&#xe24b;" horiz-adv-x="445" 
d="M58 -194v64q68 -9 143 -9q61 0 78.5 24t17.5 89v24q-43 -8 -77 -8q-93 0 -139 53.5t-46 175.5v111q0 121 44.5 175.5t145.5 54.5q47 0 107 -10h90v-71l-42 -5v-500q0 -94 -38 -140t-135 -46q-41 0 -87.5 6.5t-61.5 11.5zM297 70v412q-27 5 -71 5q-63 0 -86 -35t-23 -122
v-111q0 -88 23.5 -121.5t82.5 -33.5q44 0 74 6z" />
    <glyph glyph-name="s.alt" unicode="&#xe257;" horiz-adv-x="365" 
d="M335 136q0 -146 -166 -146q-40 0 -80 7t-55 14v63q78 -10 130 -10q51 0 69.5 17t18.5 54q0 34 -16.5 55t-71.5 58l-26 18q-59 40 -83.5 78t-24.5 85q0 131 160 131q83 0 133 -20v-107h-63l-10 51q-36 2 -53 2q-46 0 -65 -12t-19 -44q0 -29 15.5 -50.5t58.5 -51.5l26 -18
q71 -50 96.5 -86t25.5 -88z" />
    <glyph glyph-name="u.alt" unicode="&#xe259;" horiz-adv-x="467" 
d="M413 219q0 -119 -40 -174t-133 -55q-91 0 -131.5 55t-40.5 174v255l-42 5v71h125v-331q0 -87 19 -120.5t70 -33.5t70.5 33.5t19.5 120.5v255l-42 5v71h125v-331z" />
    <glyph glyph-name="scaron.alt" unicode="&#xe265;" horiz-adv-x="365" 
d="M339 760l-100 -153h-113l-101 153h78l79 -106l80 106h77zM335 136q0 -146 -166 -146q-40 0 -80 7t-55 14v63q78 -10 130 -10q51 0 69.5 17t18.5 54q0 34 -16.5 55t-71.5 58l-26 18q-59 40 -83.5 78t-24.5 85q0 131 160 131q83 0 133 -20v-107h-63l-10 51q-36 2 -53 2
q-46 0 -65 -12t-19 -44q0 -29 15.5 -50.5t58.5 -51.5l26 -18q71 -50 96.5 -86t25.5 -88z" />
    <glyph glyph-name="aacute.alt" unicode="&#xe281;" horiz-adv-x="450" 
d="M424 0h-122v25q-52 -35 -116 -35q-78 0 -114 51t-36 155v139q0 126 46.5 175.5t140.5 49.5q90 0 159 -10v-474l42 -5v-71zM299 90v394q-39 4 -76 4q-57 0 -80.5 -30t-23.5 -123v-139q0 -71 19 -101.5t67 -30.5t94 26zM367 760l-111 -153h-79l96 153h94z" />
    <glyph glyph-name="agrave.alt" unicode="&#xe282;" horiz-adv-x="450" 
d="M424 0h-122v25q-52 -35 -116 -35q-78 0 -114 51t-36 155v139q0 126 46.5 175.5t140.5 49.5q90 0 159 -10v-474l42 -5v-71zM299 90v394q-39 4 -76 4q-57 0 -80.5 -30t-23.5 -123v-139q0 -71 19 -101.5t67 -30.5t94 26zM276 607h-80l-111 153h95z" />
    <glyph glyph-name="acircumflex.alt" unicode="&#xe283;" horiz-adv-x="450" 
d="M424 0h-122v25q-52 -35 -116 -35q-78 0 -114 51t-36 155v139q0 126 46.5 175.5t140.5 49.5q90 0 159 -10v-474l42 -5v-71zM299 90v394q-39 4 -76 4q-57 0 -80.5 -30t-23.5 -123v-139q0 -71 19 -101.5t67 -30.5t94 26zM373 607h-77l-80 106l-79 -106h-78l101 153h113z" />
    <glyph glyph-name="adieresis.alt" unicode="&#xe284;" horiz-adv-x="450" 
d="M424 0h-122v25q-52 -35 -116 -35q-78 0 -114 51t-36 155v139q0 126 46.5 175.5t140.5 49.5q90 0 159 -10v-474l42 -5v-71zM299 90v394q-39 4 -76 4q-57 0 -80.5 -30t-23.5 -123v-139q0 -71 19 -101.5t67 -30.5t94 26zM349 635h-80v112h80v-112zM170 635v112h-80v-112h80z
" />
    <glyph glyph-name="atilde.alt" unicode="&#xe285;" horiz-adv-x="450" 
d="M424 0h-122v25q-52 -35 -116 -35q-78 0 -114 51t-36 155v139q0 126 46.5 175.5t140.5 49.5q90 0 159 -10v-474l42 -5v-71zM299 90v394q-39 4 -76 4q-57 0 -80.5 -30t-23.5 -123v-139q0 -71 19 -101.5t67 -30.5t94 26zM398 713q0 -110 -87 -110q-56 0 -92 46l-22 27
q-24 30 -45 30q-27 0 -27 -49v-49h-61v49q0 110 88 110q53 0 92 -48l21 -26q23 -28 45 -28q27 0 27 48v50h61v-50z" />
    <glyph glyph-name="aring.alt" unicode="&#xe286;" horiz-adv-x="443" 
d="M330 700q0 -57 -28 -83.5t-76 -26.5t-76.5 27t-28.5 83q0 57 28.5 84t76.5 27t76 -27t28 -84zM271 700q0 58 -45 58t-45 -58q0 -57 45 -57t45 57zM420 0h-122v25q-52 -35 -116 -35q-78 0 -114 51t-36 155v139q0 126 46.5 175.5t140.5 49.5q90 0 159 -10v-474l42 -5v-71z
M295 90v394q-39 4 -76 4q-57 0 -80.5 -30t-23.5 -123v-139q0 -71 19 -101.5t67 -30.5t94 26z" />
    <glyph glyph-name="eacute.alt" unicode="&#xe288;" horiz-adv-x="426" 
d="M346 760l-111 -153h-79l96 153h94zM396 245h-280v-15q0 -98 22 -133t98 -35q43 0 71 4l11 62h63v-117q-86 -21 -149 -21q-117 0 -158 59t-41 194v57q0 131 42.5 195.5t138.5 64.5q97 0 139.5 -64.5t42.5 -196.5v-54zM312 313v14q0 39 -3 63t-12 48.5t-30 36t-53 11.5
q-26 0 -44.5 -8.5t-28.5 -22t-15.5 -35.5t-7 -42.5t-1.5 -50.5v-14h195z" />
    <glyph glyph-name="egrave.alt" unicode="&#xe289;" horiz-adv-x="426" 
d="M396 245h-280v-15q0 -98 22 -133t98 -35q43 0 71 4l11 62h63v-117q-86 -21 -149 -21q-117 0 -158 59t-41 194v57q0 131 42.5 195.5t138.5 64.5q97 0 139.5 -64.5t42.5 -196.5v-54zM312 313v14q0 39 -3 63t-12 48.5t-30 36t-53 11.5q-26 0 -44.5 -8.5t-28.5 -22
t-15.5 -35.5t-7 -42.5t-1.5 -50.5v-14h195zM277 607h-80l-111 153h95z" />
    <glyph glyph-name="ecircumflex.alt" unicode="&#xe28a;" horiz-adv-x="426" 
d="M396 245h-280v-15q0 -98 22 -133t98 -35q43 0 71 4l11 62h63v-117q-86 -21 -149 -21q-117 0 -158 59t-41 194v57q0 131 42.5 195.5t138.5 64.5q97 0 139.5 -64.5t42.5 -196.5v-54zM312 313v14q0 39 -3 63t-12 48.5t-30 36t-53 11.5q-26 0 -44.5 -8.5t-28.5 -22
t-15.5 -35.5t-7 -42.5t-1.5 -50.5v-14h195zM373 607h-77l-80 106l-79 -106h-78l101 153h113z" />
    <glyph glyph-name="edieresis.alt" unicode="&#xe28b;" horiz-adv-x="426" 
d="M396 245h-280v-15q0 -98 22 -133t98 -35q43 0 71 4l11 62h63v-117q-86 -21 -149 -21q-117 0 -158 59t-41 194v57q0 131 42.5 195.5t138.5 64.5q97 0 139.5 -64.5t42.5 -196.5v-54zM312 313v14q0 39 -3 63t-12 48.5t-30 36t-53 11.5q-26 0 -44.5 -8.5t-28.5 -22
t-15.5 -35.5t-7 -42.5t-1.5 -50.5v-14h195zM343 635h-80v112h80v-112zM164 635v112h-80v-112h80z" />
    <glyph glyph-name="uacute.alt" unicode="&#xe296;" horiz-adv-x="467" 
d="M384 760l-111 -153h-79l96 153h94zM413 219q0 -119 -40 -174t-133 -55q-91 0 -131.5 55t-40.5 174v255l-42 5v71h125v-331q0 -87 19 -120.5t70 -33.5t70.5 33.5t19.5 120.5v255l-42 5v71h125v-331z" />
    <glyph glyph-name="ugrave.alt" unicode="&#xe297;" horiz-adv-x="467" 
d="M302 607h-80l-111 153h95zM413 219q0 -119 -40 -174t-133 -55q-91 0 -131.5 55t-40.5 174v255l-42 5v71h125v-331q0 -87 19 -120.5t70 -33.5t70.5 33.5t19.5 120.5v255l-42 5v71h125v-331z" />
    <glyph glyph-name="ucircumflex.alt" unicode="&#xe298;" horiz-adv-x="467" 
d="M413 219q0 -119 -40 -174t-133 -55q-91 0 -131.5 55t-40.5 174v255l-42 5v71h125v-331q0 -87 19 -120.5t70 -33.5t70.5 33.5t19.5 120.5v255l-42 5v71h125v-331zM398 607h-77l-80 106l-79 -106h-78l101 153h113z" />
    <glyph glyph-name="udieresis.alt" unicode="&#xe299;" horiz-adv-x="467" 
d="M413 219q0 -119 -40 -174t-133 -55q-91 0 -131.5 55t-40.5 174v255l-42 5v71h125v-331q0 -87 19 -120.5t70 -33.5t70.5 33.5t19.5 120.5v255l-42 5v71h125v-331zM372 635h-80v112h80v-112zM193 635v112h-80v-112h80z" />
    <glyph glyph-name="dollar.taboldstyle" unicode="&#xe42f;" horiz-adv-x="432" 
d="M366 139q0 -119 -114 -142v-93h-75v88q-61 3 -104 18v115h61l9 -58q17 -1 55 -1q45 0 65 17t20 55q0 30 -19 53t-67 59l-35 26q-53 39 -75 74t-22 83q0 108 112 128v89h75v-84q60 -4 104 -18v-106h-61l-10 49q-16 1 -53 1q-43 0 -63.5 -13t-20.5 -45q0 -27 14 -48t53 -49
l35 -26q65 -48 90.5 -82.5t25.5 -89.5z" />
    <glyph glyph-name="Euro.taboldstyle" unicode="&#xe430;" horiz-adv-x="447" 
d="M394 4q-44 -14 -111 -14q-85 0 -129 38t-52 147h-43v63h42v68h-42v63h43q6 118 50 158t131 40q67 0 111 -14v-110h-61l-9 43q-11 1 -35 1q-52 0 -75.5 -22.5t-27.5 -95.5h191l-15 -63h-177v-68h162l-14 -63h-147q4 -64 28.5 -85.5t75.5 -21.5q62 0 104 7v-71z" />
    <glyph glyph-name="franc.taboldstyle" unicode="&#xe431;" horiz-adv-x="438" 
d="M366 249h-180v-73h98v-68h-98v-108h-85v108h-39v68h39v302l-30 6v74h304v-121h-61l-8 40h-120v-151h180v-77z" />
    <glyph glyph-name="sterling.taboldstyle" unicode="&#xe432;" horiz-adv-x="444" 
d="M380 0h-299v64q30 34 30 90v98h-47v73h47v57q0 100 33 142.5t117 42.5q53 0 119 -16v-108h-61l-9 42q-24 2 -36 2q-50 0 -65 -20t-15 -85v-57h132v-73h-132v-98q0 -45 -21 -78h207v-76z" />
    <glyph glyph-name="yen.taboldstyle" unicode="&#xe433;" horiz-adv-x="457" 
d="M424 169h-155v-169h-82v169h-154v62h148l-29 72h-119v63h96l-47 122l-49 9v61h110l59 -162q17 -47 26 -85h1q16 58 26 85l59 162h110v-61l-51 -9l-46 -122h97v-63h-121l-29 -72h150v-62z" />
    <glyph glyph-name="lira.taboldstyle" unicode="&#xe434;" horiz-adv-x="447" 
d="M379 0h-298v64q29 33 29 89v19h-46v61h46v57h-46v63h46v27q0 99 33 141.5t117 42.5q63 0 119 -15v-106h-61l-8 40q-6 0 -19 0.5t-18 0.5q-50 0 -65 -20t-15 -84v-27h133v-63h-133v-57h133v-61h-133v-19q0 -47 -21 -77h207v-76z" />
    <glyph glyph-name="florin.taboldstyle" unicode="&#xe435;" horiz-adv-x="443" 
d="M380 556l-5 -61q-27 3 -46 3q-23 0 -32.5 -10t-13.5 -45l-12 -114h96l-7 -68h-96l-23 -230q-6 -68 -33 -95t-77 -27q-38 0 -69 9l6 61q23 -2 49 -2q23 0 31.5 12t11.5 45l23 227h-87l7 68h87l13 117q7 67 35 93.5t76 26.5q34 0 66 -10z" />
    <glyph glyph-name="numbersign.taboldstyle" unicode="&#xe436;" horiz-adv-x="494" 
d="M423 143h-81l-12 -143h-67l11 143h-83l-12 -143h-67l11 143h-52v65h57l12 134h-69v65h74l13 151h67l-12 -151h83l13 151h67l-12 -151h59v-65h-65l-11 -134h76v-65zM290 342h-83l-11 -134h84z" />
    <glyph glyph-name="colonmonetary.taboldstyle" unicode="&#xe437;" horiz-adv-x="427" 
d="M360 8q-14 -4 -38 -9v-96h-64v88h-11q-24 0 -41 4v-92h-64v115q-75 49 -75 198v126q0 149 75 198v110h64v-87q16 4 41 4h11v83h64v-92q20 -3 38 -8v-108h-61l-10 48q-10 1 -32 1q-60 0 -83 -31t-23 -118v-126q0 -87 23 -118t83 -31q35 0 103 8v-67z" />
    <glyph glyph-name="currency.taboldstyle" unicode="&#xe438;" horiz-adv-x="481" 
d="M457 142l-59 -58l-64 64q-46 -27 -93 -27q-55 0 -94 27l-65 -63l-58 57l64 64q-26 44 -26 94q0 53 26 93l-64 64l58 57l65 -63q40 26 94 26q53 0 94 -26l64 62l58 -56l-65 -64q27 -48 27 -93q0 -52 -26 -94zM350 300q0 45 -32 78t-77 33q-46 0 -77.5 -32.5t-31.5 -78.5
q0 -47 31.5 -79.5t77.5 -32.5q45 0 77 33t32 79z" />
    <glyph glyph-name="peseta.taboldstyle" unicode="&#xe439;" horiz-adv-x="442" 
d="M180 0h-145v61l31 5v288h-45v69h45v67l-31 5v63q72 4 158 4q82 0 127 -30.5t53 -108.5h47v-69h-47q-9 -77 -55 -109t-126 -32q-21 0 -47 2v-149l35 -5v-61zM295 384v13q0 56 -24 75t-79 19q-27 0 -47 -2v-204q5 0 22 -0.5t23 -0.5q54 0 79.5 22.5t25.5 77.5z" />
    <glyph glyph-name="percent.oldstyle" unicode="&#xe43a;" horiz-adv-x="748" 
d="M704 163q0 -172 -127 -172t-127 172v9q0 83 29.5 127.5t97.5 44.5t97.5 -44.5t29.5 -127.5v-9zM632 163v9q0 60 -13 84t-42 24t-41.5 -23.5t-12.5 -84.5v-9q0 -61 12.5 -84.5t41.5 -23.5t42 24t13 84zM546 559l-268 -559h-74l268 559h74zM298 388q0 -172 -127 -172
q-69 0 -98 44.5t-29 127.5v9q0 84 29 127.5t98 43.5q68 0 97.5 -44t29.5 -127v-9zM225 388v9q0 61 -12.5 84.5t-41.5 23.5t-41.5 -23.5t-12.5 -84.5v-9q0 -61 12.5 -84.5t41.5 -23.5t41.5 23.5t12.5 84.5z" />
    <glyph glyph-name="perthousand.oldstyle" unicode="&#xe43b;" horiz-adv-x="1049" 
d="M1005 163q0 -172 -127 -172t-127 172v9q0 83 29.5 127.5t97.5 44.5t97.5 -44.5t29.5 -127.5v-9zM933 163v9q0 60 -13 84t-42 24t-41.5 -23.5t-12.5 -84.5v-9q0 -61 12.5 -84.5t41.5 -23.5t42 24t13 84zM704 163q0 -172 -127 -172t-127 172v9q0 83 29.5 127.5t97.5 44.5
t97.5 -44.5t29.5 -127.5v-9zM632 163v9q0 60 -13 84t-42 24t-41.5 -23.5t-12.5 -84.5v-9q0 -61 12.5 -84.5t41.5 -23.5t42 24t13 84zM546 559l-268 -559h-74l268 559h74zM298 388q0 -172 -127 -172q-69 0 -98 44.5t-29 127.5v9q0 84 29 127.5t98 43.5q68 0 97.5 -44
t29.5 -127v-9zM225 388v9q0 61 -12.5 84.5t-41.5 23.5t-41.5 -23.5t-12.5 -84.5v-9q0 -61 12.5 -84.5t41.5 -23.5t41.5 23.5t12.5 84.5z" />
    <glyph glyph-name="ampersand.alt" unicode="&#xe43d;" horiz-adv-x="551" 
d="M393 587q0 -53 -27.5 -103.5t-112.5 -116.5l136 -184q24 69 24 194v9h74v-10q0 -169 -47 -263l77 -103v-10h-95l-33 44q-59 -54 -158 -54q-85 0 -138 42.5t-53 140.5v5q0 61 21.5 106t80.5 94l-3 5q-43 59 -61 102t-18 102v7q0 80 44.5 119.5t124.5 39.5q164 0 164 -159
v-7zM229 63q73 0 115 42l-157 213q-37 -31 -50 -63t-13 -77v-5q0 -58 29 -84t76 -26zM145 587q0 -44 9 -71t46 -77l11 -15q58 49 78 83.5t20 80.5v6q0 48 -19.5 65.5t-60.5 17.5t-62.5 -18t-21.5 -65v-7z" />
    <glyph glyph-name="a.alt2" unicode="&#xe43e;" horiz-adv-x="424" 
d="M402 0h-118v31q-54 -41 -127 -41q-127 0 -127 147v27q0 92 47.5 128.5t147.5 36.5h52v52q0 67 -17.5 86.5t-78.5 19.5q-39 0 -126 -13v65q66 21 138 21q100 0 133.5 -40t33.5 -139v-305l42 -5v-71zM277 89v177h-52q-64 0 -88 -21t-24 -81v-37q0 -40 14.5 -55t47.5 -15
q55 0 102 32z" />
    <glyph glyph-name="ampersandalt.sc" unicode="&#xe451;" horiz-adv-x="483" 
d="M34 133q0 84 95 155l-8 10q-35 45 -50.5 77.5t-15.5 74.5v5q0 59 42 91t110 32q70 0 108 -31.5t38 -91.5v-5q0 -88 -121 -174l101 -128q16 47 16 126v9h70v-8q0 -112 -41 -185l59 -74v-16h-82l-26 33q-54 -41 -133 -41q-162 0 -162 137v4zM202 57q54 0 88 26l-120 152
q-51 -39 -51 -99v-4q0 -39 23.5 -57t59.5 -18zM138 450q0 -53 47 -113l7 -9q46 38 62 63.5t16 58.5v5q0 52 -63 52q-69 0 -69 -52v-5z" />
    <glyph glyph-name="aacute.alt2" unicode="&#xe456;" horiz-adv-x="424" 
d="M358 760l-111 -153h-79l96 153h94zM402 0h-118v31q-54 -41 -127 -41q-127 0 -127 147v27q0 92 47.5 128.5t147.5 36.5h52v52q0 67 -17.5 86.5t-78.5 19.5q-39 0 -126 -13v65q66 21 138 21q100 0 133.5 -40t33.5 -139v-305l42 -5v-71zM277 89v177h-52q-64 0 -88 -21
t-24 -81v-37q0 -40 14.5 -55t47.5 -15q55 0 102 32z" />
    <glyph glyph-name="acircumflex.alt2" unicode="&#xe458;" horiz-adv-x="424" 
d="M402 0h-118v31q-54 -41 -127 -41q-127 0 -127 147v27q0 92 47.5 128.5t147.5 36.5h52v52q0 67 -17.5 86.5t-78.5 19.5q-39 0 -126 -13v65q66 21 138 21q100 0 133.5 -40t33.5 -139v-305l42 -5v-71zM277 89v177h-52q-64 0 -88 -21t-24 -81v-37q0 -40 14.5 -55t47.5 -15
q55 0 102 32zM370 607h-77l-80 106l-79 -106h-78l101 153h113z" />
    <glyph glyph-name="adieresis.alt2" unicode="&#xe459;" horiz-adv-x="424" 
d="M402 0h-118v31q-54 -41 -127 -41q-127 0 -127 147v27q0 92 47.5 128.5t147.5 36.5h52v52q0 67 -17.5 86.5t-78.5 19.5q-39 0 -126 -13v65q66 21 138 21q100 0 133.5 -40t33.5 -139v-305l42 -5v-71zM277 89v177h-52q-64 0 -88 -21t-24 -81v-37q0 -40 14.5 -55t47.5 -15
q55 0 102 32zM345 635h-80v112h80v-112zM166 635v112h-80v-112h80z" />
    <glyph glyph-name="agrave.alt2" unicode="&#xe45a;" horiz-adv-x="424" 
d="M281 607h-80l-111 153h95zM402 0h-118v31q-54 -41 -127 -41q-127 0 -127 147v27q0 92 47.5 128.5t147.5 36.5h52v52q0 67 -17.5 86.5t-78.5 19.5q-39 0 -126 -13v65q66 21 138 21q100 0 133.5 -40t33.5 -139v-305l42 -5v-71zM277 89v177h-52q-64 0 -88 -21t-24 -81v-37
q0 -40 14.5 -55t47.5 -15q55 0 102 32z" />
    <glyph glyph-name="aring.alt2" unicode="&#xe45d;" horiz-adv-x="424" 
d="M323 711q0 -57 -28 -83.5t-76 -26.5t-76.5 27t-28.5 83q0 57 28.5 84t76.5 27t76 -27t28 -84zM264 711q0 58 -45 58t-45 -58q0 -57 45 -57t45 57zM402 0h-118v31q-54 -41 -127 -41q-127 0 -127 147v27q0 92 47.5 128.5t147.5 36.5h52v52q0 67 -17.5 86.5t-78.5 19.5
q-39 0 -126 -13v65q66 21 138 21q100 0 133.5 -40t33.5 -139v-305l42 -5v-71zM277 89v177h-52q-64 0 -88 -21t-24 -81v-37q0 -40 14.5 -55t47.5 -15q55 0 102 32z" />
    <glyph glyph-name="atilde.alt2" unicode="&#xe460;" horiz-adv-x="424" 
d="M402 0h-118v31q-54 -41 -127 -41q-127 0 -127 147v27q0 92 47.5 128.5t147.5 36.5h52v52q0 67 -17.5 86.5t-78.5 19.5q-39 0 -126 -13v65q66 21 138 21q100 0 133.5 -40t33.5 -139v-305l42 -5v-71zM277 89v177h-52q-64 0 -88 -21t-24 -81v-37q0 -40 14.5 -55t47.5 -15
q55 0 102 32zM375 714q0 -110 -87 -110q-56 0 -92 46l-22 27q-24 30 -45 30q-27 0 -27 -49v-49h-61v49q0 110 88 110q53 0 92 -48l21 -26q23 -28 45 -28q27 0 27 48v50h61v-50z" />
    <glyph glyph-name="g.alt2" unicode="&#xe461;" horiz-adv-x="431" 
d="M381 -26q0 -94 -38 -140t-135 -46q-41 0 -87.5 6.5t-61.5 11.5v109h65l7 -52q42 -2 71 -2q61 0 78.5 24t17.5 89v24q-43 -8 -77 -8q-93 0 -139 53.5t-46 175.5v111q0 121 44.5 175.5t145.5 54.5q45 0 91.5 -7t63.5 -15v-564zM298 70v412q-27 5 -71 5q-63 0 -86 -35
t-23 -122v-111q0 -88 23.5 -121.5t82.5 -33.5q44 0 74 6z" />
    <glyph glyph-name="zero.slash" unicode="&#xe466;" horiz-adv-x="479" 
d="M440 266q0 -136 -47 -206t-153 -70q-95 0 -143 56l-28 -51h-78l67 122q-19 60 -19 149v210q0 136 47 206.5t154 70.5q91 0 139 -54l27 48h78l-65 -117q21 -59 21 -154v-210zM355 266v210q0 24 -1 36l-211 -383q25 -66 96 -66q60 0 88 47t28 156zM124 266v-30l210 381
q-26 61 -95 61q-60 0 -87.5 -47t-27.5 -155v-210z" />
    <glyph glyph-name="DieresisAcute.sc" unicode="&#xe467;" 
d="M364 778h-80v112h80v-112zM159 911h95l-99 -162h-79zM44 778h-80v112h80v-112z" />
    <glyph glyph-name="DieresisGrave.sc" unicode="&#xe468;" 
d="M364 778h-80v112h80v-112zM169 911l84 -162h-80l-99 162h95zM44 778h-80v112h80v-112z" />
    <glyph glyph-name="commaaccent.sc" unicode="&#xe469;" horiz-adv-x="336" 
d="M225 -62l-75 -144h-74l52 144h97z" />
    <glyph glyph-name="dblGrave.sc" unicode="&#xe46a;" horiz-adv-x="336" 
d="M305 607h-79l-111 153h95zM138 607l-96 153h-94l111 -153h79z" />
    <glyph glyph-name="commaaccent.cap" unicode="&#xe46b;" horiz-adv-x="465" 
d="M291 -62l-75 -144h-74l52 144h97z" />
    <glyph glyph-name="Ogonek" unicode="&#xe46c;" 
d="M260 -205q-34 -9 -70 -9q-53 0 -80.5 26t-27.5 69q0 31 20 61t77 80h83q-70 -61 -89 -88t-19 -52q0 -41 49 -41q8 0 17.5 0.5t21 1.5t18.5 1v-49z" />
    <glyph glyph-name="cent.taboldstyle" unicode="&#xe500;" horiz-adv-x="427" 
d="M360 8q-36 -12 -83 -15v-110h-77v113q-133 24 -133 220v127q0 95 31 150t102 69v109h77v-106q57 -6 83 -16v-107h-61l-9 49q-11 1 -33 1q-60 0 -83.5 -31t-23.5 -118v-127q0 -87 23.5 -118.5t83.5 -31.5q35 0 103 8v-66z" />
    <glyph glyph-name="commaaccent.alt" unicode="&#xe504;" horiz-adv-x="465" 
d="M312 751l-52 -144h-97l75 144h74z" />
    <glyph glyph-name="Qalt.sc" unicode="&#xe595;" horiz-adv-x="417" 
d="M383 223q0 -205 -138 -228v-131h-76v131q-135 24 -135 228v106q0 231 174 231q175 0 175 -231v-106zM303 223v105q0 85 -23 122t-72 37t-71.5 -37.5t-22.5 -121.5v-105q0 -83 23 -121.5t71 -38.5q49 0 72 37.5t23 122.5z" />
    <glyph glyph-name="undercommaaccent" unicode="&#xf005;" horiz-adv-x="465" 
d="M291 -62l-75 -144h-74l52 144h97z" />
    <glyph glyph-name="dotlessj" unicode="&#xf6be;" horiz-adv-x="204" 
d="M148 -83q0 -67 -23.5 -99.5t-81.5 -32.5q-37 0 -64 8v62q11 -1 44 -1q26 0 34 12.5t8 50.5v556l-43 5v72h126v-633z" />
    <glyph glyph-name="commaaccent" unicode="&#xf6c3;" horiz-adv-x="465" 
d="M291 -62l-75 -144h-74l52 144h97z" />
    <glyph glyph-name="Acute" unicode="&#xf6c9;" 
d="M298 947l-111 -153h-79l96 153h94z" />
    <glyph glyph-name="Caron" unicode="&#xf6ca;" 
d="M321 947l-100 -153h-113l-101 153h78l79 -106l80 106h77z" />
    <glyph glyph-name="Dieresis" unicode="&#xf6cb;" 
d="M294 822h-80v112h80v-112zM115 822v112h-80v-112h80z" />
    <glyph glyph-name="DieresisAcute" unicode="&#xf6cc;" 
d="M364 823h-80v112h80v-112zM159 956h95l-99 -162h-79zM44 823h-80v112h80v-112z" />
    <glyph glyph-name="DieresisGrave" unicode="&#xf6cd;" 
d="M364 823h-80v112h80v-112zM169 956l84 -162h-80l-99 162h95zM44 823h-80v112h80v-112z" />
    <glyph glyph-name="Grave" unicode="&#xf6ce;" 
d="M215 794h-80l-111 153h95z" />
    <glyph glyph-name="Hungarumlaut" unicode="&#xf6cf;" 
d="M208 945l-111 -153h-79l96 153h94zM375 945l-111 -153h-80l96 153h95z" />
    <glyph glyph-name="Macron" unicode="&#xf6d0;" 
d="M299 840h-270v66h270v-66z" />
    <glyph glyph-name="cyrBreve" unicode="&#xf6d1;" 
d="M295 760q-3 -74 -30 -114.5t-101 -40.5q-39 0 -65 11.5t-39.5 34.5t-19 48t-7.5 61h63q3 -58 17 -78t51 -20t51.5 20.5t16.5 77.5h63z" />
    <glyph glyph-name="cyrFlex" unicode="&#xf6d2;" 
d="M295 607h-63q-2 57 -16.5 77.5t-51.5 20.5t-51 -20t-17 -78h-63q3 74 30 114t101 40t101 -40t30 -114z" />
    <glyph glyph-name="dblGrave" unicode="&#xf6d3;" 
d="M302 607h-80l-111 153h95zM134 607l-95 153h-95l111 -153h79z" />
    <glyph glyph-name="cyrbreve" unicode="&#xf6d4;" 
d="M295 760q-3 -74 -30 -114.5t-101 -40.5q-39 0 -65 11.5t-39.5 34.5t-19 48t-7.5 61h63q3 -58 17 -78t51 -20t51.5 20.5t16.5 77.5h63z" />
    <glyph glyph-name="cyrflex" unicode="&#xf6d5;" 
d="M295 607h-63q-2 57 -16.5 77.5t-51.5 20.5t-51 -20t-17 -78h-63q3 74 30 114t101 40t101 -40t30 -114z" />
    <glyph glyph-name="dblgrave" unicode="&#xf6d6;" 
d="M302 607h-80l-111 153h95zM134 607l-95 153h-95l111 -153h79z" />
    <glyph glyph-name="one.fitted" unicode="&#xf6dc;" horiz-adv-x="487" 
d="M434 0h-380v71l148 6v579l-149 -50v76l169 64h64v-669l148 -6v-71z" />
    <glyph glyph-name="rupiah" unicode="&#xf6dd;" horiz-adv-x="936" 
d="M199 0h-169v71l42 5v591l-42 5v71h181q117 0 180 -46.5t63 -167.5v-10q0 -154 -107 -205l105 -239l48 -4v-71h-111l-129 294q-13 -1 -44 -1h-59v-217l42 -5v-71zM368 519v10q0 82 -35.5 109.5t-121.5 27.5h-54v-296h58q85 0 119 33t34 116zM681 -206h-167v71l42 4v605
l-42 5v71h122v-31q52 41 119 41q76 0 111.5 -51t35.5 -156v-137q0 -123 -47 -174.5t-135 -51.5q-41 0 -81 10v-131l42 -4v-71zM819 216v137q0 73 -18.5 102.5t-63.5 29.5q-43 0 -98 -31v-381q43 -9 81 -9q51 0 75 31t24 121z" />
    <glyph glyph-name="cent.inferior" unicode="&#xf6df;" horiz-adv-x="297" 
d="M269 3q-34 -10 -72 -11v-74h-67v79q-105 25 -105 186v78q0 162 105 186v76h67v-71q38 -1 72 -11v-93h-56l-7 36h-22q-46 0 -65 -26.5t-19 -96.5v-78q0 -70 19.5 -96.5t68.5 -26.5q13 0 29 1t31.5 2.5t20.5 1.5v-62z" />
    <glyph glyph-name="cent.superior" unicode="&#xf6e0;" horiz-adv-x="297" 
d="M273 307q-29 -10 -72 -12v-74h-67v79q-105 25 -105 187v77q0 164 105 187v76h67v-72q42 -2 72 -10v-94h-57l-6 36q-3 0 -10 0.5t-13 0.5q-45 0 -64 -27t-19 -97v-77q0 -71 19 -97t68 -26q40 0 82 5v-62z" />
    <glyph glyph-name="comma.inferior" unicode="&#xf6e1;" horiz-adv-x="170" 
d="M140 89l-60 -145h-61l42 145h79z" />
    <glyph glyph-name="comma.superior" unicode="&#xf6e2;" horiz-adv-x="170" 
d="M140 393l-60 -145h-61l42 145h79z" />
    <glyph glyph-name="dollar.inferior" unicode="&#xf6e3;" horiz-adv-x="321" 
d="M289 121q0 -102 -97 -123v-79h-69v75q-48 1 -91 14v97h59l8 -44q12 -1 40 -1q39 0 55.5 14.5t16.5 43.5q0 22 -10.5 36.5t-37.5 30.5l-57 33q-42 24 -62 51.5t-20 71.5q0 93 99 110v76h69v-74q52 -3 86 -13v-93h-59l-7 40q-28 2 -41 2q-70 0 -70 -48q0 -20 10 -33t36 -28
l57 -33q44 -25 64.5 -54t20.5 -72z" />
    <glyph glyph-name="dollar.superior" unicode="&#xf6e4;" horiz-adv-x="321" 
d="M293 423q0 -104 -97 -123v-79h-69v75q-51 1 -91 13v98h59l7 -45q6 0 20 -0.5t21 -0.5q72 0 72 59q0 21 -10.5 35.5t-37.5 29.5l-58 35q-42 26 -61.5 52.5t-19.5 70.5q0 93 99 110v75h69v-73q52 -3 85 -13v-94h-58l-7 40q-21 3 -42 3q-69 0 -69 -49q0 -20 10.5 -33.5
t35.5 -27.5l57 -32q44 -25 64.5 -54.5t20.5 -71.5z" />
    <glyph glyph-name="hyphen.inferior" unicode="&#xf6e5;" horiz-adv-x="187" 
d="M157 159h-128v59h128v-59z" />
    <glyph glyph-name="hyphen.superior" unicode="&#xf6e6;" horiz-adv-x="187" 
d="M157 462h-128v59h128v-59z" />
    <glyph glyph-name="period.inferior" unicode="&#xf6e7;" horiz-adv-x="140" 
d="M106 0h-72v89h72v-89z" />
    <glyph glyph-name="period.superior" unicode="&#xf6e8;" horiz-adv-x="140" 
d="M106 304h-72v89h72v-89z" />
    <glyph glyph-name="a.superior" unicode="&#xf6e9;" horiz-adv-x="334" 
d="M305 303h-95v20q-39 -27 -92 -27q-89 0 -89 94v15q0 59 35 79.5t107 20.5h33v24q0 37 -11 48.5t-50 11.5q-22 0 -38 -2l-5 -30h-51v74q38 16 107 16q70 0 96.5 -26.5t26.5 -91.5v-166l26 -3v-57zM206 367v93h-35q-40 0 -55.5 -11t-15.5 -44v-18q0 -39 40 -39q33 0 66 19z
" />
    <glyph glyph-name="b.superior" unicode="&#xf6ea;" horiz-adv-x="338" 
d="M310 448q0 -80 -34.5 -115.5t-110.5 -35.5q-54 0 -119 7v407l-27 3v56h100v-138q31 17 70 17q63 0 92 -35t29 -107v-59zM235 449v59q0 45 -12 62.5t-45 17.5q-37 0 -58 -13v-216q4 0 20 -1t27 -1q37 0 52.5 19t15.5 73z" />
    <glyph glyph-name="d.superior" unicode="&#xf6eb;" horiz-adv-x="348" 
d="M320 303h-97v17q-34 -24 -83 -24q-111 0 -111 143v59q0 81 33 115t99 34q25 0 58 -5v72l-33 3v52h107v-406l27 -3v-57zM219 371v211q-38 6 -52 6q-34 0 -49 -18t-15 -72v-59q0 -45 13 -64t44 -19q29 0 59 15z" />
    <glyph glyph-name="e.superior" unicode="&#xf6ec;" horiz-adv-x="330" 
d="M301 448h-199v-6q0 -49 14.5 -69t65.5 -20q48 0 107 9v-53q-48 -13 -113 -13q-84 0 -115.5 38.5t-31.5 117.5v35q0 160 136 160t136 -162v-37zM227 498v5q0 41 -12 63.5t-50 22.5q-37 0 -49.5 -22.5t-12.5 -63.5v-5h124z" />
    <glyph glyph-name="l.superior" unicode="&#xf6ee;" horiz-adv-x="186" 
d="M157 303h-128v57l26 3v347l-26 3v56h100v-406l28 -3v-57z" />
    <glyph glyph-name="m.superior" unicode="&#xf6ef;" horiz-adv-x="523" 
d="M495 303h-102v229q0 22 -1.5 31.5t-9.5 17t-24 7.5q-26 0 -61 -21q2 -12 2 -35v-229h-75v229q0 22 -1 31.5t-8.5 17t-22.5 7.5q-25 0 -62 -22v-203l27 -3v-57h-128v57l26 3v218l-26 3v56h97v-25q40 32 90 32q48 0 68 -33q45 33 92 33q31 0 50.5 -9.5t28 -28t11 -35
t2.5 -42.5v-169l27 -3v-57z" />
    <glyph glyph-name="o.superior" unicode="&#xf6f0;" horiz-adv-x="330" 
d="M301 445q0 -149 -136 -149t-136 149v54q0 148 136 148t136 -148v-54zM227 445v54q0 48 -14.5 68t-47.5 20q-34 0 -48.5 -20t-14.5 -68v-54q0 -48 15 -68.5t48 -20.5t47.5 20.5t14.5 68.5z" />
    <glyph glyph-name="r.superior" unicode="&#xf6f1;" horiz-adv-x="255" 
d="M229 584q-59 0 -99 -20v-201l27 -3v-57h-128v57l26 3v218l-26 3v56h97v-26q37 33 103 33v-63z" />
    <glyph glyph-name="s.superior" unicode="&#xf6f2;" horiz-adv-x="288" 
d="M85 389l5 -35q26 -2 41 -2q31 0 42.5 9t11.5 29q0 18 -10 28.5t-44 28.5l-21 12q-43 23 -62 45t-19 57q0 86 118 86q67 0 104 -13v-75h-52l-6 30q-30 2 -39 2q-28 0 -39.5 -6.5t-11.5 -23.5t9 -27t36 -24l24 -13q51 -26 69 -47.5t18 -58.5q0 -95 -124 -95q-68 0 -102 13
v80h52z" />
    <glyph glyph-name="t.superior" unicode="&#xf6f3;" horiz-adv-x="253" 
d="M226 304q-21 -8 -62 -8q-45 0 -64 20.5t-19 67.5v200l-55 6v50h55v82h74v-82h72v-56h-72v-198q0 -23 5 -29.5t23 -6.5q25 0 43 3v-49z" />
    <glyph glyph-name="h.superior" unicode="&#xf700;" horiz-adv-x="375" 
d="M347 303h-102v219q0 38 -9.5 51.5t-34.5 13.5q-34 0 -70 -18v-206l26 -3v-57h-128v57l27 3v347l-27 3v56h102v-145q42 23 91 23q54 0 76 -31.5t22 -91.5v-161l27 -3v-57z" />
    <glyph glyph-name="Dotaccent" unicode="&#xf71a;" 
d="M206 840h-83v113h83v-113z" />
    <glyph glyph-name="Ring" unicode="&#xf71b;" 
d="M269 883q0 -57 -28 -83.5t-76 -26.5t-76.5 27t-28.5 83q0 57 28.5 84t76.5 27t76 -27t28 -84zM210 883q0 58 -45 58t-45 -58q0 -57 45 -57t45 57z" />
    <glyph glyph-name="Tilde" unicode="&#xf71c;" 
d="M333 901q0 -110 -87 -110q-56 0 -92 46l-22 27q-24 30 -45 30q-27 0 -27 -49v-49h-61v49q0 110 88 110q53 0 92 -48l21 -26q23 -28 45 -28q27 0 27 48v50h61v-50z" />
    <glyph glyph-name="Breve" unicode="&#xf71d;" 
d="M295 947q-3 -74 -30 -114.5t-101 -40.5q-39 0 -65 11.5t-39.5 34.5t-19 48t-7.5 61h63q3 -58 17 -78t51 -20t51.5 20.5t16.5 77.5h63z" />
    <glyph glyph-name="Circumflex" unicode="&#xf71e;" 
d="M321 794h-77l-80 106l-79 -106h-78l101 153h113z" />
    <glyph glyph-name="Cedilla" unicode="&#xf722;" 
d="M225 -62l-105 -144h-77l87 144h95z" />
    <glyph glyph-name="dollar.oldstyle" unicode="&#xf724;" horiz-adv-x="378" 
d="M340 145q0 -124 -114 -148v-93h-76v88q-61 3 -104 18v115h61l10 -58q16 -1 55 -1q45 0 65 18.5t20 60.5q0 29 -15 51t-58 51l-49 33q-54 36 -75.5 70t-21.5 83q0 108 112 128v89h76v-84q59 -4 103 -18v-106h-61l-10 49q-16 1 -53 1q-42 0 -63 -13t-21 -45
q0 -28 13.5 -47.5t52.5 -45.5l49 -33q61 -41 82.5 -75t21.5 -88z" />
    <glyph glyph-name="zero.oldstyle" unicode="&#xf730;" horiz-adv-x="479" 
d="M440 246q0 -124 -47 -190t-154 -66q-106 0 -153 66t-47 190v64q0 124 47 190t153 66q107 0 154 -66t47 -190v-64zM355 246v64q0 97 -28 139.5t-88 42.5t-87.5 -42.5t-27.5 -139.5v-64q0 -97 28 -139.5t87 -42.5q60 0 88 42.5t28 139.5z" />
    <glyph glyph-name="one.oldstyle" unicode="&#xf731;" horiz-adv-x="389" 
d="M353 0h-317v71l118 6v389l-118 -52v86l138 63h65v-486l114 -6v-71z" />
    <glyph glyph-name="two.oldstyle" unicode="&#xf732;" horiz-adv-x="444" 
d="M405 0h-368v78l127 108q96 82 127 128t31 100q0 41 -30 60t-100 19q-30 0 -72 -3l-11 -67h-64v122q93 21 157 21q111 0 158 -40t47 -112q0 -67 -37 -123t-147 -151l-72 -62h254v-78z" />
    <glyph glyph-name="three.oldstyle" unicode="&#xf733;" horiz-adv-x="447" 
d="M405 7q0 -113 -52.5 -158t-158.5 -45q-79 0 -152 23v125h64l10 -72q35 -3 75 -3q71 0 100 25.5t29 105.5v32q0 63 -18.5 93t-75.5 30h-157v71h157q57 0 75.5 29.5t18.5 91.5v18q0 72 -27.5 96t-102.5 24q-39 0 -72 -3l-10 -67h-65v122q17 6 63 14t88 8q109 0 160 -42.5
t51 -151.5v-18q0 -111 -72 -156q72 -44 72 -159v-33z" />
    <glyph glyph-name="four.oldstyle" unicode="&#xf734;" horiz-adv-x="482" 
d="M454 12h-83v-122l42 -5v-71h-169v71l42 5v122h-259v91l248 454h96v-470h83v-75zM287 87v330l-182 -330h182z" />
    <glyph glyph-name="five.oldstyle" unicode="&#xf735;" horiz-adv-x="442" 
d="M406 11q0 -114 -53.5 -160.5t-162.5 -46.5q-65 0 -154 21v127h64l11 -72q36 -3 75 -3q75 0 105 27.5t30 106.5v41q0 78 -27.5 107.5t-113.5 29.5h-131l24 368h314v-134h-65l-10 57h-166l-14 -218h54q125 0 172.5 -52.5t47.5 -157.5v-41z" />
    <glyph glyph-name="six.oldstyle" unicode="&#xf736;" horiz-adv-x="476" 
d="M436 212q0 -56 -13 -97.5t-33 -64.5t-47.5 -37.5t-51 -18.5t-49.5 -4q-34 0 -59.5 4.5t-54 19.5t-47 41.5t-30.5 74t-12 113.5v250q0 131 47 195.5t173 64.5q83 0 152 -22v-122h-64l-10 67q-35 3 -74 3t-65 -8.5t-40.5 -22t-22 -39.5t-9.5 -50.5t-2 -65.5v-49
q60 17 123 17q90 0 139.5 -41.5t49.5 -144.5v-63zM351 212v56q0 72 -24.5 98t-86.5 26q-58 0 -116 -16v-136q0 -94 28 -135.5t90 -41.5q53 0 81 39t28 110z" />
    <glyph glyph-name="seven.oldstyle" unicode="&#xf737;" horiz-adv-x="427" 
d="M398 464l-236 -650h-92l250 666h-217l-10 -57h-64v134h369v-93z" />
    <glyph glyph-name="eight.oldstyle" unicode="&#xf738;" horiz-adv-x="492" 
d="M450 211q0 -59 -12.5 -101.5t-30 -65.5t-47 -35.5t-54 -15.5t-59.5 -3h-3q-35 0 -59.5 3t-54 15.5t-47 35.5t-30 65.5t-12.5 101.5v10q0 65 16.5 103t53.5 64q-68 47 -68 154v13q0 198 201 198h3q201 0 201 -198v-13q0 -107 -68 -154q37 -26 53.5 -64t16.5 -103v-10z
M365 211v10q0 70 -19 100t-65 30h-71q-46 0 -65 -30t-19 -100v-10q0 -89 28 -118t90 -29h3q62 0 90 29t28 118zM364 542v13q0 72 -28.5 98t-88.5 26h-3q-60 0 -88.5 -26t-28.5 -98v-13q0 -59 19 -89t64 -30h71q45 0 64 30t19 89z" />
    <glyph glyph-name="nine.oldstyle" unicode="&#xf739;" horiz-adv-x="476" 
d="M436 63q0 -131 -46.5 -195t-173.5 -64q-75 0 -152 21v124h64l10 -69q69 -3 74 -3q48 0 77 11.5t42 39t16.5 56t3.5 79.5v50q-54 -17 -123 -17q-89 0 -139 41.5t-50 143.5v63q0 69 19 116t50.5 69t61.5 30t64 8t59.5 -4.5t54 -20t46.5 -42t30 -74t12 -112.5v-251zM351 180
v136q0 94 -27.5 135.5t-89.5 41.5q-54 0 -82 -39t-28 -110v-56q0 -71 24.5 -97t86.5 -26q61 0 116 15z" />
    <glyph glyph-name="cent.oldstyle" unicode="&#xf7a2;" horiz-adv-x="393" 
d="M343 8q-36 -12 -83 -15v-110h-77v113q-133 24 -133 220v127q0 95 31 150t102 69v109h77v-106q57 -6 83 -16v-107h-61l-9 49q-11 1 -33 1q-60 0 -83.5 -31t-23.5 -118v-127q0 -87 23.5 -118.5t83.5 -31.5q35 0 103 8v-66z" />
    <glyph glyph-name="longs_t" unicode="&#xfb05;" horiz-adv-x="473" 
d="M446 3q-34 -13 -83 -13q-57 0 -81 26.5t-24 92.5v369l-80 10v62h80v155q-28 4 -63 4q-33 0 -41.5 -16t-8.5 -67v-550l42 -5v-71h-166v71l42 5v550q0 77 23.5 114t90.5 37q42 0 84 -14h80v-213h105v-72h-105v-362q0 -38 6.5 -47.5t34.5 -9.5q19 0 64 5v-61z" />
    <glyph glyph-name="T_h" unicode="&#xfb10;" horiz-adv-x="845" 
d="M821 0h-125v370q0 68 -14 92t-54 24q-58 0 -111 -35v-375l42 -5v-71h-167v71l42 5v590h-159v-592l42 -5v-69h-169v69l42 5v592h-94l-10 -57h-64v134h495v-221q57 38 130 38t102.5 -48.5t29.5 -136.5v-299l42 -5v-71z" />
    <glyph glyph-name="longs_h" unicode="&#xfb13;" horiz-adv-x="680" 
d="M187 0h-166v71l42 5v550q0 77 23.5 114t90.5 37q46 0 88 -14h89v-241q55 38 129 38q73 0 103 -48t30 -137v-299l42 -5v-71h-125v370q0 68 -14 92t-54 24q-58 0 -111 -35v-375l42 -5v-71h-167v71l42 5v628q-43 5 -76 5t-41.5 -16t-8.5 -67v-550l42 -5v-71z" />
    <glyph glyph-name="longs_l" unicode="&#xfb14;" horiz-adv-x="422" 
d="M395 0h-167v71l42 5v628q-57 5 -75 5q-33 0 -41.5 -16t-8.5 -67v-550l42 -5v-71h-166v71l42 5v550q0 77 23.5 114t90.5 37q23 0 85 -10h91v-691l42 -5v-71z" />
    <glyph glyph-name="longs_i" unicode="&#xfb15;" horiz-adv-x="446" 
d="M419 0h-166v71l42 5v397l-42 5v72h125v-474l41 -5v-71zM379 653h-85v114h85v-114zM259 705q-28 4 -64 4q-33 0 -41.5 -16t-8.5 -67v-550l42 -5v-71h-166v71l42 5v550q0 77 23.5 114t90.5 37q40 0 82 -14v-58z" />
    <glyph glyph-name="longs_longs" unicode="&#xfb16;" horiz-adv-x="483" 
d="M260 705q-30 4 -65 4q-32 0 -40.5 -16t-8.5 -67v-550l42 -5v-71h-167v71l42 5v550q0 77 23.5 114t90.5 37q41 0 83 -14v-58zM491 763v-58q-30 4 -65 4q-32 0 -40.5 -16t-8.5 -67v-550l42 -5v-71h-167v71l42 5v550q0 77 23.5 114t90.5 37q41 0 83 -14z" />
    </font>
</defs>
</svg>
