<svg width="39" height="19" xmlns="http://www.w3.org/2000/svg"><path d="M27 15c-2.77-.202-15.6-.552-18.49-1.633 0 0 3.067-10.86 5.55-11.883 2.486-1.022 3.8 1.364 5.7 1.364 1.802 0 3.263-2.19 5.602-1.802.285.048.594.268.914.614L27 4c-.83-1.373-3.276-2.274-4.5-1.5 1.024-.144 3.833.28 4.5 1.5.1.18.901.814 1 1l2 9c-1.473.31 2.525-.754 1-.633 1.65-.082.647-.165 2-.367l-3 3.5c-2.368.361-8.87 1.543-12.091 1.493-14.466-.223-17.961-4.881-16.657-5.65C2.405 11.667 17.503 14.604 27 15zm0 2.56c8.554-1.306 11.742-4.66 11.018-5.423-.695-.731-3.817 1.648-11.018 2.728v2.695z" stroke="#553408" fill="none"/></svg>