<svg width="31" height="34" xmlns="http://www.w3.org/2000/svg"><g stroke="#553408" fill="none" fill-rule="evenodd" stroke-linejoin="round"><path d="M11.625 18.728V23l-7.764 2.812c-1.85.67-3.086 2.446-3.086 4.439v2.964h29.45V30.25c0-1.993-1.235-3.768-3.086-4.44L19.375 23v-4.567"/><path d="M23.056 10.429c0 5.207-3.47 9.428-7.75 9.428-4.28 0-7.75-4.22-7.75-9.428C7.556 5.22 11.026 1 15.306 1c4.28 0 7.75 4.22 7.75 9.429h0z"/><path d="M22.984 9.202c-.264.091-.446.06-.71.204-2.67 1.43-4.384-1.258-5.853-8.406-.883 4.695-3.64 8.406-5.903 8.406-1.114 0-2.074-.636-3.034-2.03"/></g></svg>