<svg width="66" height="66" xmlns="http://www.w3.org/2000/svg" xmlns:xlink="http://www.w3.org/1999/xlink"><defs><filter x="-50%" y="-50%" width="200%" height="200%" filterUnits="objectBoundingBox" id="a"><feOffset dy="2" in="SourceAlpha" result="shadowOffsetOuter1"/><feGaussianBlur stdDeviation="2" in="shadowOffsetOuter1" result="shadowBlurOuter1"/><feColorMatrix values="0 0 0 0 0 0 0 0 0 0 0 0 0 0 0 0 0 0 0.5 0" in="shadowBlurOuter1"/></filter><circle id="b" cx="29" cy="29" r="29"/></defs><g fill="none" fill-rule="evenodd"><g transform="translate(4 2)"><use fill="#000" filter="url(#a)" xlink:href="#b"/><use fill="#64CCF1" xlink:href="#b"/></g><path d="M49.2 24.762v1.002c0 10.432-7.682 22.366-21.67 22.366-4.367 0-8.329-1.252-11.725-3.505.566.083 1.213.083 1.86.083 3.558 0 6.873-1.252 9.46-3.338-3.315-.084-6.145-2.337-7.115-5.509.404.168.89.168 1.374.168.728 0 1.375-.084 2.022-.251-3.477-.75-6.065-3.923-6.065-7.761v-.084c.97.584 2.184.918 3.396 1.002a8.06 8.06 0 01-3.396-6.594c0-1.419.405-2.754 1.052-3.922 3.8 4.757 9.379 7.928 15.767 8.18-.162-.502-.243-1.17-.243-1.753 0-4.34 3.396-7.846 7.681-7.846a7.39 7.39 0 015.5 2.421c1.778-.335 3.395-1.002 4.85-1.837-.565 1.837-1.779 3.338-3.314 4.34 1.535-.25 2.99-.668 4.366-1.252-1.052 1.586-2.346 2.921-3.8 4.09" fill="#FFF"/></g></svg>