<svg width="18" height="21" xmlns="http://www.w3.org/2000/svg"><path d="M15.75 3H2.25a.752.752 0 01-.75-.75.75.75 0 01.75-.75h13.5a.75.75 0 010 1.5zm-1.715 3.082A6.007 6.007 0 009 12.008a5.99 5.99 0 003.983 5.647l-.106 1.17a.746.746 0 01-.747.675H5.87a.747.747 0 01-.747-.683L3.821 4.5H14.18l-.144 1.582zm-.91 10.013a4.489 4.489 0 01-2.625-4.08 4.503 4.503 0 013.394-4.365l-.768 8.445zM7.5 0H2.25A2.249 2.249 0 000 2.25 2.249 2.249 0 002.25 4.5h.065L3.63 18.953A2.248 2.248 0 005.87 21h6.261a2.248 2.248 0 002.24-2.047L15.686 4.5h.065A2.249 2.249 0 0018 2.25 2.249 2.249 0 0015.75 0H7.5z" fill="#553408" fill-rule="evenodd"/></svg>