<svg width="21" height="24" viewBox="0 0 21 24" xmlns="http://www.w3.org/2000/svg"><title>3C3D42EA-C5BC-4323-89BB-E6871CEE6D00</title><path d="M19.5 22.5H15V8.572l2.25-2.25 2.25 2.25V22.5zm-5.56-15H2.56L4.06 6h11.38l-1.5 1.5zM1.5 22.5h12V9h-12v13.5zm3-20.235a.76.76 0 0 1 .75-.765h10.5a.76.76 0 0 1 .75.765V4.5h-12V2.265zm13.5 0A2.261 2.261 0 0 0 15.75 0H5.25A2.261 2.261 0 0 0 3 2.265V4.95L.22 7.732a.744.744 0 0 0-.22.533v15c0 .195.08.383.22.517A.74.74 0 0 0 .75 24h19.5a.74.74 0 0 0 .53-.218.722.722 0 0 0 .22-.517v-15a.744.744 0 0 0-.22-.533L18 4.95V2.265z" fill="#553408" fill-rule="evenodd"/></svg>