<svg width="18" height="21" viewBox="0 0 18 21" xmlns="http://www.w3.org/2000/svg"><title>4D382574-87C9-42B7-8173-61102F538626</title><path d="M15.75 3H2.25a.752.752 0 0 1-.75-.75.75.75 0 0 1 .75-.75h13.5a.75.75 0 0 1 0 1.5zm-1.715 3.082A6.007 6.007 0 0 0 9 12.008a5.99 5.99 0 0 0 3.983 5.647l-.106 1.17a.746.746 0 0 1-.747.675H5.87a.747.747 0 0 1-.747-.683L3.821 4.5H14.18l-.144 1.582zm-.91 10.013a4.489 4.489 0 0 1-2.625-4.08 4.503 4.503 0 0 1 3.394-4.365l-.768 8.445zM7.5 0H2.25A2.249 2.249 0 0 0 0 2.25 2.249 2.249 0 0 0 2.25 4.5h.065L3.63 18.953A2.248 2.248 0 0 0 5.87 21h6.261a2.248 2.248 0 0 0 2.24-2.047L15.686 4.5h.065A2.249 2.249 0 0 0 18 2.25 2.249 2.249 0 0 0 15.75 0H7.5z" fill="#553408" fill-rule="evenodd"/></svg>