<svg width="24" height="24" viewBox="0 0 24 24" xmlns="http://www.w3.org/2000/svg"><title>DABE122A-5656-4CDD-8D14-50EACFFE808E</title><g fill="#553408" fill-rule="evenodd"><path d="M22.5 12H9.75c-.197 0-.39.08-.53.22a.756.756 0 0 0-.22.53v1.5a.75.75 0 0 1-1.5 0v-1.5c0-.197-.08-.39-.22-.53a.756.756 0 0 0-.53-.22H2.553c2.372-2.385 7.437-7.476 9.65-9.665.424-.42.989-.653 1.555-.653.143 0 .287.014.429.044C18.923 2.732 22.502 6.963 22.5 12zm0 8.25a2.265 2.265 0 0 1-2.25 2.25H10.5a3.002 3.002 0 0 0-3-3 3.002 3.002 0 0 0-3 3h-.75a2.265 2.265 0 0 1-2.25-2.25v-6.263c0-.166.022-.487.057-.487H6v.75a2.25 2.25 0 0 0 4.5 0v-.75h12v6.75zM6 22.5c0-.832.668-1.5 1.5-1.5s1.5.668 1.5 1.5H6zM14.499.26a3.56 3.56 0 0 0-.741-.079 3.73 3.73 0 0 0-2.61 1.087C8.791 3.601 3.233 9.188 1.085 11.35a3.702 3.702 0 0 0-.712 1.036c-.02.035-.04.067-.055.106A3.735 3.735 0 0 0 0 13.987v6.263A3.754 3.754 0 0 0 3.75 24h16.5A3.754 3.754 0 0 0 24 20.25V12C24 6.239 19.92 1.412 14.499.26z"/><path d="M16.5 16.5A1.506 1.506 0 0 1 18 18a1.506 1.506 0 0 1-1.5 1.5A1.506 1.506 0 0 1 15 18a1.506 1.506 0 0 1 1.5-1.5zm0 4.5a3.003 3.003 0 0 0 3-3 3.003 3.003 0 0 0-3-3 3.003 3.003 0 0 0-3 3 3.003 3.003 0 0 0 3 3z"/></g></svg>