<svg width="35" height="34" xmlns="http://www.w3.org/2000/svg" xmlns:xlink="http://www.w3.org/1999/xlink"><defs><mask id="e" maskContentUnits="userSpaceOnUse" maskUnits="objectBoundingBox" x="0" y="0" width="32.083" height="24.596" fill="#fff"><use xlink:href="#a"/></mask><mask id="f" maskContentUnits="userSpaceOnUse" maskUnits="objectBoundingBox" x="0" y="0" width="11.667" height="17.362" fill="#fff"><use xlink:href="#b"/></mask><mask id="g" maskContentUnits="userSpaceOnUse" maskUnits="objectBoundingBox" x="0" y="0" width="35" height="8.681" fill="#fff"><use xlink:href="#c"/></mask><mask id="h" maskContentUnits="userSpaceOnUse" maskUnits="objectBoundingBox" x="0" y="0" width="8.75" height="7.234" fill="#fff"><use xlink:href="#d"/></mask><path d="M7.292 32.644H2.917V10.94h29.166v21.703H16.042V34h-8.75v-1.356zM1.458 9.404V34h32.084V9.404H1.458zm0 0v1.537h32.084V9.404H1.458z" id="a"/><path d="M7.839 16.638a2.002 2.002 0 00-2.006 1.992V34H17.5V18.63c0-1.1-.896-1.992-2.006-1.992H7.84zm1.46 1.447a2.007 2.007 0 00-2.007 2V34h8.75V20.085c0-1.105-.904-2-2.008-2H9.3z" id="b"/><path d="M5.76 6.437a2.913 2.913 0 01-2.843 2.244C1.306 8.68 0 7.385 0 5.787a2.9 2.9 0 012.261-2.82l-.074-.073L5.104 0h24.792l2.916 2.894-.073.073A2.9 2.9 0 0135 5.787c0 1.598-1.306 2.894-2.917 2.894a2.913 2.913 0 01-2.842-2.244l-.074.074h-.092a2.914 2.914 0 01-2.825 2.17 2.914 2.914 0 01-2.825-2.17h-.184a2.914 2.914 0 01-2.824 2.17 2.914 2.914 0 01-2.825-2.17h-.184a2.914 2.914 0 01-2.825 2.17 2.914 2.914 0 01-2.824-2.17h-.184A2.914 2.914 0 018.75 8.68a2.914 2.914 0 01-2.825-2.17h-.092l-.074-.074z" id="c"/><rect id="d" x="20.417" y="13.745" width="8.75" height="7.234" rx="2"/></defs><g stroke-width="4" fill="none" fill-rule="evenodd"><use stroke="#5B3412" mask="url(#e)" fill="#4D2B24" xlink:href="#a"/><use stroke="#5B3412" mask="url(#f)" fill="#4D2B24" xlink:href="#b"/><use stroke="#4D2B24" mask="url(#g)" fill="#4D2B24" xlink:href="#c"/><use stroke="#4D2B24" mask="url(#h)" xlink:href="#d"/></g></svg>