<svg width="148" height="82" viewBox="0 0 148 82" xmlns="http://www.w3.org/2000/svg" xmlns:xlink="http://www.w3.org/1999/xlink"><title>Vector &amp;quot;industria colombiana&amp;quot;</title><defs><path id="a" d="M11.2.525H.046v17.637H11.2V.525z"/><path id="c" d="M0 .54v17.644h12.124V.539H0z"/><path id="e" d="M3.385 4.895V.892H.043v4.003h3.342z"/></defs><g fill="none" fill-rule="evenodd"><path fill="#553307" d="M12.704.567v1.205h1.494V16.47h-1.494v1.2h5.763v-1.2h-1.33V1.77h1.33V.568zm17.529 0v1.205h1.159V12.2L24.657.567h-3.768v1.205h1.179V16.47h-1.18v1.2h3.697v-1.2H23.43V4.154l7.723 13.518h1.601v-15.9h1.167V.567zm10.592 15.91h1.892c.98 0 1.677-.14 2.099-.42 1.517-.973 2.27-3.31 2.27-7.021 0-3.591-.72-5.849-2.178-6.773-.255-.172-.582-.297-.972-.377a7.09 7.09 0 0 0-1.354-.116h-1.757v14.707zM36.719.565h6.611c1.25 0 2.338.22 3.25.665a5.309 5.309 0 0 1 2.163 1.893c.398.665.705 1.501.92 2.51.211 1.009.319 2.166.319 3.479 0 1.28-.112 2.442-.327 3.462-.219 1.033-.506 1.878-.864 2.534a5.33 5.33 0 0 1-2.139 1.902c-.9.444-1.968.664-3.214.664h-6.72v-1.205h1.176V1.77h-1.175V.565zm25.545.002h3.828v1.205h-1.207v8.842c0 4.856-1.844 7.286-5.528 7.286-2.195 0-3.76-.72-4.7-2.15-.765-1.18-1.143-2.902-1.143-5.168v-8.81h-1.207V.567h5.29v1.205h-1.16v8.902c0 1.974.156 3.33.458 4.091.474 1.265 1.478 1.898 3.02 1.898 2.333 0 3.5-2.03 3.5-6.097V1.772h-1.15V.567z"/><g transform="translate(68.71 -.23)"><mask id="b" fill="#fff"><use xlink:href="#a"/></mask><path d="M8.074 2.603a1.101 1.101 0 0 0-.378-.36 3.035 3.035 0 0 0-.661-.289c-.223-.064-.462-.108-.71-.156-.25-.04-.49-.064-.712-.064-.741 0-1.382.296-1.928.893V2.61c-.542.592-.816 1.28-.816 2.057 0 .953.318 1.681.96 2.182.199.172.501.348.888.528.398.188.884.376 1.465.573.825.272 1.546.592 2.167.96.617.369 1.127.769 1.522 1.205.438.468.768.985.991 1.55a4.76 4.76 0 0 1 .339 1.797c0 1.5-.641 2.69-1.924 3.566v-.016a6.142 6.142 0 0 1-1.812.865 7.583 7.583 0 0 1-2.111.284c-2.286 0-4.05-.805-5.297-2.418v-2.658h1.33l.211 1.337c.092.72.458 1.297 1.095 1.738a3.62 3.62 0 0 0 2.044.608c1.003 0 1.836-.296 2.497-.893.693-.608 1.04-1.405 1.04-2.381 0-1.13-.674-2.01-2.02-2.658h.012a105.34 105.34 0 0 1-.98-.44 93.896 93.896 0 0 0-.991-.445c-.327-.148-.658-.296-.992-.444l-.992-.449C.801 8.115.045 6.778.045 5.05c0-1.438.557-2.57 1.669-3.407.98-.745 2.21-1.12 3.688-1.12.49 0 1.103.063 1.836.18a41.2 41.2 0 0 1 2.565.54v2.73H8.576l-.502-1.37z" fill="#553307" mask="url(#b)"/></g><path d="M94.524.567l.443 3.102h-1.259c-.187-1.265-.625-1.897-1.318-1.897h-2.533V16.47h1.155v1.2h-5.298v-1.2h1.215V1.77h-2.533c-.693 0-1.131.633-1.318 1.898h-1.26l.443-3.102h12.263zm6.504 7.959h2.94c.326 0 .644-.1.951-.296.31-.204.598-.484.868-.86.235-.361.423-.73.554-1.102.14-.376.207-.752.207-1.12 0-.889-.259-1.674-.773-2.354-.533-.689-1.226-1.029-2.075-1.029l-2.672.008v6.753zm0 7.942h1.258v1.205h-5.388v-1.205l1.178.008V1.773h-1.178V.568h7.14c.73 0 1.41.092 2.044.28.63.197 1.195.469 1.7.83.555.423.977.928 1.283 1.508.295.589.446 1.237.446 1.954a4.03 4.03 0 0 1-.306 1.549 4.93 4.93 0 0 1-.884 1.369 5.731 5.731 0 0 1-1.14.928c-.422.269-.868.46-1.334.589.303 1.045.805 2.133 1.506 3.266.7 1.133 1.593 2.346 2.684 3.627h1.259v1.205h-3.78a37.515 37.515 0 0 1-2.557-3.855 36.273 36.273 0 0 1-1.995-4.047h-1.936v6.697zM113.124.567h5.764v1.205h-1.33V16.47h1.33v1.2h-5.764v-1.2h1.494V1.77h-1.494zm15.543 10.211c-.294-.893-.581-1.766-.864-2.634-.279-.869-.558-1.753-.848-2.642l-.833 2.626c-.263.844-.533 1.73-.824 2.65h3.37zm-7.802 6.897v-1.197h1.246c.825-2.65 1.65-5.3 2.474-7.958a3890.69 3890.69 0 0 1 2.473-7.954h1.299l5.086 15.912h1.223v1.197h-5.067v-1.197h.865c-.124-.392-.24-.769-.359-1.133l-.35-1.105c-.116-.36-.231-.724-.347-1.1-.12-.369-.243-.753-.366-1.141h-4.13c-.128.388-.243.772-.355 1.14-.116.369-.227.725-.339 1.093-.115.36-.227.729-.338 1.097-.112.368-.231.749-.355 1.149h.889v1.197h-3.55z" fill="#553307"/><g transform="translate(0 23.788)"><mask id="d" fill="#fff"><use xlink:href="#c"/></mask><path d="M12.124 14.361l-.478 3.042a4.615 4.615 0 0 1-.956.345c-.383.1-.797.188-1.239.264-.793.116-1.517.172-2.17.172-1.61 0-3.004-.36-4.179-1.077C1.844 16.323.967 15.15.478 13.59a10.855 10.855 0 0 1-.363-1.91A23.982 23.982 0 0 1 0 9.217C0 8.341.035 7.56.103 6.88c.072-.68.183-1.277.339-1.782.454-1.517 1.314-2.666 2.593-3.458C4.185.907 5.584.54 7.233.54c1.808 0 3.266.255 4.377.772l.442 3.026h-1.398c.016-1.705-1.167-2.57-3.549-2.594a3.805 3.805 0 0 0-2.398 1.1c-.653.65-1.135 1.55-1.441 2.69-.1.445-.18.977-.24 1.594a23.36 23.36 0 0 0-.087 2.09c0 1.172.072 2.197.203 3.078.14.884.33 1.605.582 2.15.434.808.94 1.432 1.513 1.869.578.448 1.207.664 1.892.664 2.227.024 3.43-.852 3.617-2.618h1.378z" fill="#553307" mask="url(#d)"/></g><path d="M21.253 25.523c-2.41 0-3.617 2.534-3.617 7.606 0 5.083 1.21 7.625 3.628 7.625 2.41 0 3.617-2.534 3.617-7.61 0-5.08-1.21-7.621-3.628-7.621m0-1.221c4.389 0 6.58 2.942 6.58 8.827 0 5.896-2.187 8.842-6.569 8.842-4.38 0-6.567-2.946-6.567-8.842 0-5.885 2.182-8.827 6.556-8.827M34.57 40.487h5.577c.693 0 1.139-.64 1.322-1.918h1.263l-.446 3.123H30.464v-1.205h1.16v-14.7H30.44v-1.204h5.266v1.205H34.57v14.699zm17.115-14.964c-2.41 0-3.617 2.534-3.617 7.606 0 5.083 1.207 7.625 3.625 7.625 2.41 0 3.616-2.534 3.616-7.61 0-5.08-1.206-7.621-3.624-7.621m0-1.221c4.39 0 6.58 2.942 6.58 8.827 0 5.896-2.19 8.842-6.572 8.842-4.381 0-6.564-2.946-6.564-8.842 0-5.885 2.183-8.827 6.556-8.827m11.848 16.185h1.178v1.205H61v-1.205h1.18v-14.7H61v-1.204h4.075l4.023 12.277c.677-2.033 1.358-4.075 2.035-6.136.685-2.058 1.362-4.107 2.04-6.141h4.026v1.205h-1.19v14.699h1.178v1.205h-5.265v-1.205h1.135V29.355c-.307.896-.634 1.88-.988 2.946-.35 1.064-.713 2.141-1.08 3.238l-1.07 3.234c-.351 1.057-.674 2.026-.973 2.919h-1.282l-4.13-12.486v11.28zm22.617 0c.833 0 1.41-.092 1.74-.28.459-.277.841-.753 1.156-1.434a4.263 4.263 0 0 0 .43-1.873 4.39 4.39 0 0 0-.478-1.973c-.334-.689-.773-1.157-1.318-1.397a2.686 2.686 0 0 0-.574-.128 7.113 7.113 0 0 0-.84-.045H84.19v7.13h1.96zm-1.96-8.25h1.889c.7 0 1.27-.365 1.704-1.101.399-.64.598-1.37.598-2.182 0-1.405-.474-2.398-1.414-2.986l.012.008c-.243-.124-.693-.188-1.354-.188H84.19v6.449zm1.156-7.654c.7 0 1.306.024 1.812.072.514.048.94.124 1.29.236a3.795 3.795 0 0 1 1.414.757c.395.344.717.764.968 1.257.156.328.271.664.359 1.008.075.353.12.705.12 1.065 0 .78-.156 1.47-.467 2.058a4.234 4.234 0 0 1-1.306 1.485c.792.312 1.446.82 1.96 1.525.31.412.541.857.689 1.329.147.476.219.985.219 1.525 0 1.501-.51 2.686-1.526 3.57-.96.813-2.19 1.222-3.7 1.222h-7.094v-1.205h1.175v-14.7h-1.175v-1.204h5.262zm9.314.002h5.764v1.205h-1.33v14.698h1.33v1.201h-5.763v-1.2h1.493v-14.7h-1.493zm15.547 10.21c-.294-.892-.581-1.765-.864-2.634-.279-.868-.558-1.753-.848-2.642l-.833 2.626c-.263.845-.534 1.73-.824 2.65h3.37zm-7.802 6.897v-1.196h1.246c.825-2.65 1.65-5.3 2.474-7.958a3891.31 3891.31 0 0 1 2.473-7.954h1.299l5.086 15.912h1.223v1.196h-5.067v-1.196h.865c-.124-.393-.24-.77-.359-1.133l-.35-1.105c-.116-.36-.231-.725-.347-1.1-.12-.37-.243-.753-.366-1.142h-4.13c-.128.389-.244.773-.355 1.141-.116.368-.227.725-.339 1.093-.115.36-.227.728-.338 1.097-.112.368-.231.748-.355 1.149h.889v1.196h-3.55zm28.044-15.903v15.903h-1.601l-7.727-13.518v12.314h1.159v1.204h-3.7v-1.204h1.179v-14.7h-1.18v-1.204h3.773l6.727 11.632V25.79h-1.151v-1.205h3.688v1.205zm11.322 9.006c-.295-.892-.581-1.765-.864-2.634-.279-.868-.562-1.753-.852-2.642-.287.905-.562 1.782-.829 2.626-.263.845-.538 1.73-.828 2.65h3.373zm-7.806 6.897v-1.196h1.25c.825-2.65 1.65-5.3 2.474-7.958a3891.31 3891.31 0 0 1 2.473-7.954h1.295l5.086 15.912h1.227v1.196h-5.067v-1.196h.865a99.347 99.347 0 0 0-.363-1.133l-.35-1.105c-.116-.36-.231-.725-.347-1.1-.12-.37-.239-.753-.362-1.142h-4.13a34.45 34.45 0 0 0-.355 1.141c-.12.368-.227.725-.343 1.093-.111.36-.227.728-.334 1.097-.116.368-.235.748-.359 1.149h.888v1.196h-3.548zM57.39 74.844a2.354 2.354 0 0 1 3.315 2.033c4.397 2.19 13.745 3.035 13.84 3.043l-.103 1.2c-.41-.036-9.296-.844-13.984-3.03-.24.46-.626.857-1.14 1.093a2.36 2.36 0 0 1-3.118-1.197 2.387 2.387 0 0 1 1.19-3.142m-3.31-16.559c.18.4 0 .869-.394 1.049a.79.79 0 0 1-1.04-.4c-.178-.4 0-.87.395-1.05.394-.18.86 0 1.04.4m-2.034-3.744a.862.862 0 0 1-1.14-.428.872.872 0 0 1 .43-1.153.85.85 0 0 1 1.136.44.864.864 0 0 1-.426 1.141m-6.076 8.39a.874.874 0 0 1 .43-1.15.866.866 0 0 1 1.143.437.857.857 0 0 1-.446 1.14.853.853 0 0 1-1.127-.428m4.885 1.384a.598.598 0 1 1-.49-1.093.594.594 0 0 1 .79.304.595.595 0 0 1-.3.789M22.065 50.537a.81.81 0 0 1-1.087-.416.831.831 0 0 1 .41-1.093.817.817 0 0 1 1.088.416.831.831 0 0 1-.41 1.093" fill="#553307"/><path d="M18.588 61.092c.45-.204.936-.164 1.339.056.88-.665 2.126-.977 3.25-1.121-2.466-1.157-4.832-2.57-6.409-4.167a2.882 2.882 0 0 1-3.54-1.553 2.908 2.908 0 0 1 1.457-3.831 2.878 2.878 0 0 1 3.812 1.461 2.901 2.901 0 0 1-.67 3.29c2.562 2.454 7.23 4.448 10.882 5.749-1.593-1.33-3.517-3.183-5.03-5.412a1.599 1.599 0 0 1-1.61-.945c-.362-.813 0-1.777.817-2.142.804-.368 1.764 0 2.127.821.267.585.14 1.257-.255 1.725 2.764 3.983 7.026 6.781 7.567 7.126.212.06.407.124.582.172-1.207-1.009-2.565-2.822-2.872-5.98a1.503 1.503 0 0 1-.151-2.802 1.48 1.48 0 0 1 1.971.76c.331.708.036 1.54-.633 1.913.478 4.92 3.828 6.029 3.975 6.077l-.052.156a23.84 23.84 0 0 1 3.756.376c-.828-1.449-1.422-2.934-1.617-4.38a2.502 2.502 0 0 1-1.653-1.384c-.55-1.25 0-2.726 1.25-3.283a2.47 2.47 0 0 1 3.27 1.25c.559 1.252 0 2.73-1.242 3.286-.143.06-.275.1-.414.14.25 1.593 1.063 3.266 2.127 4.887.338-1.48 1.067-3.95 2.445-5.287-.115-.881.331-1.766 1.167-2.142a2.03 2.03 0 0 1 2.677 1.025 2.04 2.04 0 0 1-1.024 2.69 2.012 2.012 0 0 1-2.25-.425c-1.45 1.738-2.007 5.168-2.055 5.488 2.609 3.451 6.038 6.381 7.125 7.274 4.031-.953 7.755-.5 9.91-.048a22.854 22.854 0 0 1-1.279-2.01c-1.063-.516-3.911-1.83-5.867-2.093a1.542 1.542 0 0 1-.724.68c-.797.356-1.725 0-2.084-.8-.354-.797 0-1.726.793-2.086a1.57 1.57 0 0 1 2.083.797c.024.072.052.14.064.204 1.517.212 3.421.945 4.823 1.557a29.303 29.303 0 0 1-1.47-3.739 1.653 1.653 0 0 1-1.445-.96c-.375-.837 0-1.822.832-2.198.829-.376 1.808 0 2.175.837a1.626 1.626 0 0 1-.434 1.913c.25.777.505 1.501.792 2.198.514-1.157 1.43-2.774 2.804-3.915a2.383 2.383 0 0 1 1.307-2.786 2.358 2.358 0 0 1 3.118 1.197c.538 1.196 0 2.59-1.187 3.134-.924.416-1.947.18-2.624-.493-1.625 1.45-2.506 3.74-2.749 4.404.204.424.415.828.63 1.213.071.04.127.068.14.076l-.045.096a23.25 23.25 0 0 0 2.187 3.258c.036.008.06.024.06.024l-.008.04a20.338 20.338 0 0 0 7.938 5.997c-1.426-1.61-3.223-4.043-3.258-6.185a2.322 2.322 0 0 1-1.12-1.149 2.371 2.371 0 0 1 1.187-3.134c1.195-.54 2.581 0 3.119 1.193.53 1.189 0 2.598-1.19 3.13a2.18 2.18 0 0 1-.778.196c.227 2.322 3.179 5.54 4.525 6.777l-.028.024c1.96.54 3.346.593 3.517.6l-.032 1.205c-.107 0-8.372-.312-14.57-7.661-1.158-.352-5.432-1.445-10.255-.452-.311.364-1.446 1.913-1.259 5.055.414.088.789.36.98.793.31.692 0 1.52-.701 1.837-.705.312-1.522 0-1.836-.696a1.417 1.417 0 0 1 .378-1.642c-.175-2.293.283-3.91.773-4.927-2.573.788-5.21 2.23-7.552 4.755l-.88-.824a18.82 18.82 0 0 1 4.226-3.39c-.869-.321-2.02-.777-3.011-1.33a2.007 2.007 0 0 1-3.059-.797 2.035 2.035 0 0 1 1.02-2.681c1.011-.465 2.218 0 2.676 1.024.211.485.219 1.001.064 1.47 1.437.772 3.254 1.369 3.787 1.545a16.93 16.93 0 0 1 2.123-.841c-1.696-1.449-5.13-4.567-7.515-8.11a21.87 21.87 0 0 0-4.935-.576c-.904 1.225-1.817 2.702-2.195 3.602.227.18.418.413.542.705.438.985 0 2.141-.98 2.586a1.94 1.94 0 0 1-2.577-.985 1.96 1.96 0 0 1 .984-2.586c.306-.144.621-.18.924-.156.406-1.017 1.183-2.23 1.78-3.106-2.075.188-4.266.784-5.998 2.213a1.907 1.907 0 0 1-1.095 2.074c-.964.428-2.083 0-2.522-.98-.43-.954 0-2.094.956-2.523a1.892 1.892 0 0 1 2.095.349c1.211-.961 2.585-1.562 3.991-1.93a66.032 66.032 0 0 1-5.09-1.813v.032c-1.016-.064-3.7 0-4.97.92a1.538 1.538 0 0 1-.841 1.846c-.773.344-1.677 0-2.023-.78-.355-.777 0-1.69.764-2.042" fill="#553307"/><path d="M13.894 57.269c.64-.289 1.398 0 1.684.64.287.649 0 1.41-.645 1.697a1.27 1.27 0 0 1-1.68-.648 1.28 1.28 0 0 1 .64-1.69M10.14 54.83c.398-.18.864 0 1.044.4a.798.798 0 0 1-.399 1.044.792.792 0 0 1-.645-1.445M7.2 52.194a.68.68 0 0 1 .896.337.683.683 0 0 1-.35.9.675.675 0 0 1-.889-.336.686.686 0 0 1 .343-.9m.077-2.596a.903.903 0 1 1-.737-1.65.894.894 0 0 1 1.187.461.901.901 0 0 1-.45 1.189M3.38 47.394a.553.553 0 0 1 .74.288.559.559 0 0 1-.282.745.551.551 0 0 1-.737-.288.558.558 0 0 1 .279-.745m87.827 27.45a2.354 2.354 0 0 0-3.318 2.033c-4.393 2.19-13.737 3.035-13.837 3.043l.104 1.2c.41-.036 9.3-.844 13.992-3.03.239.46.621.857 1.127 1.093a2.36 2.36 0 0 0 3.119-1.197 2.385 2.385 0 0 0-1.187-3.142m3.313-16.559c-.183.4 0 .869.39 1.049.403.172.861 0 1.04-.4.18-.4 0-.87-.394-1.05a.776.776 0 0 0-1.035.4m2.03-3.744c.434.196.948 0 1.143-.428a.877.877 0 0 0-.434-1.153.857.857 0 0 0-1.143.44.867.867 0 0 0 .434 1.141m6.084 8.39a.88.88 0 0 0-.435-1.15.864.864 0 0 0-1.143.437.855.855 0 0 0 .442 1.14c.427.197.94 0 1.136-.428m-4.894 1.384c.303.14.653 0 .789-.296a.603.603 0 0 0-.295-.797.597.597 0 0 0-.793.304.592.592 0 0 0 .3.789m28.798-13.776c.414.196.9 0 1.083-.416a.833.833 0 0 0-.406-1.093.828.828 0 0 0-.677 1.51" fill="#553307"/><path d="M130.001 61.092a1.469 1.469 0 0 0-1.33.056c-.88-.665-2.13-.977-3.25-1.121 2.465-1.157 4.827-2.57 6.412-4.167a2.874 2.874 0 0 0 3.537-1.553 2.901 2.901 0 0 0-1.458-3.831 2.883 2.883 0 0 0-3.815 1.461 2.902 2.902 0 0 0 .673 3.29c-2.561 2.454-7.233 4.448-10.873 5.749 1.585-1.33 3.513-3.183 5.026-5.412a1.595 1.595 0 0 0 1.601-.945c.367-.813 0-1.777-.808-2.142a1.604 1.604 0 0 0-2.131.821 1.634 1.634 0 0 0 .255 1.725c-2.768 3.983-7.026 6.781-7.56 7.126-.223.06-.418.124-.585.172 1.198-1.009 2.56-2.822 2.871-5.98.387-.129.721-.409.9-.817.343-.757 0-1.65-.752-1.986a1.492 1.492 0 0 0-1.98.76 1.505 1.505 0 0 0 .633 1.914c-.474 4.92-3.82 6.029-3.967 6.077l.048.156a23.762 23.762 0 0 0-3.748.376c.82-1.449 1.422-2.934 1.61-4.38.704-.187 1.334-.664 1.652-1.384a2.489 2.489 0 0 0-1.246-3.283 2.47 2.47 0 0 0-3.27 1.25 2.487 2.487 0 0 0 1.25 3.286c.128.06.267.1.407.14-.26 1.593-1.068 3.266-2.123 4.887-.339-1.48-1.076-3.95-2.45-5.287a2.032 2.032 0 0 0-1.167-2.142 2.023 2.023 0 0 0-2.672 1.025 2.035 2.035 0 0 0 1.011 2.69 2.02 2.02 0 0 0 2.259-.425c1.445 1.738 2.007 5.168 2.055 5.488-2.61 3.451-6.038 6.381-7.13 7.274-4.022-.953-7.754-.5-9.91-.048a22.84 22.84 0 0 0 1.275-2.01c1.076-.516 3.916-1.83 5.871-2.093.16.288.406.536.729.68.797.356 1.725 0 2.075-.8.359-.797 0-1.726-.792-2.086a1.56 1.56 0 0 0-2.072.797 1.93 1.93 0 0 0-.067.204c-1.518.212-3.422.945-4.824 1.557a30.532 30.532 0 0 0 1.47-3.739 1.649 1.649 0 0 0 1.446-.96c.374-.837 0-1.822-.833-2.198a1.638 1.638 0 0 0-2.174.837 1.647 1.647 0 0 0 .426 1.913 26.624 26.624 0 0 1-.785 2.198c-.513-1.157-1.434-2.774-2.8-3.915a2.385 2.385 0 0 0-1.31-2.786 2.358 2.358 0 0 0-3.119 1.197 2.375 2.375 0 0 0 1.191 3.134c.92.416 1.952.18 2.621-.493 1.625 1.45 2.505 3.74 2.744 4.404-.203.424-.41.828-.625 1.213-.068.04-.128.068-.144.076l.048.096a23.939 23.939 0 0 1-2.178 3.258.32.32 0 0 0-.072.024l.012.04a20.338 20.338 0 0 1-7.938 5.997c1.426-1.61 3.222-4.043 3.258-6.185a2.38 2.38 0 0 0 1.123-1.149c.53-1.205 0-2.598-1.19-3.134a2.354 2.354 0 0 0-3.12 1.193 2.372 2.372 0 0 0 1.191 3.13c.255.116.514.18.773.196-.23 2.322-3.178 5.54-4.516 6.777l.023.024c-1.963.54-3.345.593-3.513.6l.028 1.205c.112 0 8.372-.312 14.57-7.661 1.159-.352 5.433-1.445 10.256-.452.315.364 1.446 1.913 1.259 5.055a1.36 1.36 0 0 0-.976.793c-.315.692 0 1.52.7 1.837a1.39 1.39 0 0 0 1.833-.696 1.41 1.41 0 0 0-.378-1.642c.175-2.293-.287-3.91-.777-4.927 2.573.788 5.206 2.23 7.555 4.755l.88-.824a18.732 18.732 0 0 0-4.225-3.39c.868-.321 2.015-.777 3.01-1.33.116.084.248.172.391.232 1.016.465 2.21 0 2.673-1.028.446-1.017 0-2.23-1.024-2.682a2.018 2.018 0 0 0-2.74 2.494c-1.442.772-3.25 1.369-3.788 1.545a17.173 17.173 0 0 0-2.123-.841c1.697-1.449 5.126-4.567 7.512-8.11.8-.196 2.716-.576 4.935-.576.908 1.225 1.828 2.702 2.194 3.602a1.84 1.84 0 0 0-.537.705 1.96 1.96 0 0 0 .98 2.586c.98.448 2.13 0 2.577-.985a1.96 1.96 0 0 0-.984-2.586 1.804 1.804 0 0 0-.928-.156c-.403-1.017-1.175-2.23-1.78-3.106 2.082.188 4.273.784 6.002 2.213a1.912 1.912 0 0 0 1.095 2.074c.96.428 2.091 0 2.521-.98.426-.954 0-2.094-.964-2.523a1.9 1.9 0 0 0-2.095.349c-1.199-.961-2.577-1.562-3.983-1.93a65.376 65.376 0 0 0 5.083-1.813l.011.032c1.02-.064 3.693 0 4.967.92a1.542 1.542 0 0 0 .84 1.846c.777.344 1.677 0 2.028-.78.35-.777 0-1.69-.777-2.042" fill="#553307"/><path d="M134.708 57.269a1.279 1.279 0 1 0-1.044 2.337c.638.289 1.39 0 1.681-.648.287-.649 0-1.401-.637-1.69m3.749-2.438a.782.782 0 0 0-1.04.4.79.79 0 0 0 .4 1.044c.393.18.855 0 1.047-.404a.792.792 0 0 0-.407-1.04m2.941-2.636a.674.674 0 0 0-.892.337.685.685 0 0 0 .338.9.677.677 0 1 0 .554-1.237m-.078-2.595a.9.9 0 0 0 1.19-.452.914.914 0 0 0-.45-1.197.897.897 0 0 0-1.19.46.904.904 0 0 0 .45 1.189" fill="#553307"/><g transform="translate(144.385 46.45)"><mask id="f" fill="#fff"><use xlink:href="#e"/></mask><path d="M.832.944a.555.555 0 0 0-.74.288.564.564 0 0 0 .286.744.55.55 0 0 0 .733-.288.561.561 0 0 0-.279-.744" fill="#553307" mask="url(#f)"/></g></g></svg>